<svg width="108" height="65" viewBox="0 0 108 65" fill="none" xmlns="http://www.w3.org/2000/svg">
<g clip-path="url(#clip0_859_5398)">
<path d="M30.807 23.5665C30.807 24.8784 30.9492 25.9419 31.1972 26.7219C31.512 27.5994 31.8911 28.4525 32.3314 29.2743C32.5087 29.5578 32.5794 29.8414 32.5794 30.0898C32.5794 30.444 32.3669 30.7987 31.906 31.1533L29.6728 32.6422C29.3537 32.8551 29.0346 32.9613 28.7506 32.9613C28.3964 32.9613 28.0417 32.784 27.6871 32.4649C27.2095 31.9515 26.7822 31.3936 26.4111 30.7987C26.0564 30.1965 25.7018 29.5223 25.312 28.7072C22.5468 31.9684 19.0723 33.5995 14.8893 33.5995C11.9116 33.5995 9.5361 32.7484 7.79883 31.0471C6.06198 29.345 5.17578 27.0761 5.17578 24.2402C5.17578 21.227 6.2393 18.7808 8.4019 16.9373C10.5641 15.0939 13.436 14.1721 17.0874 14.1721C18.2927 14.1721 19.5335 14.2783 20.8451 14.4557C22.157 14.633 23.5041 14.9165 24.9222 15.2356V12.6477C24.9222 9.95315 24.3547 8.07452 23.2557 6.97545C22.1215 5.87638 20.2069 5.34441 17.4772 5.34441C16.2363 5.34441 14.9604 5.4866 13.6484 5.8057C12.3369 6.12438 11.0605 6.51458 9.81965 7.011C9.25255 7.259 8.82722 7.40078 8.5788 7.47187C8.3308 7.54297 8.15348 7.5781 8.0117 7.5781C7.51528 7.5781 7.26728 7.22345 7.26728 6.47903V4.74176C7.26728 4.17466 7.33837 3.74933 7.51528 3.50133C7.6926 3.25291 8.0117 3.00491 8.50812 2.75691C9.74897 2.11871 11.2378 1.58674 12.9747 1.16142C14.7124 0.700542 16.5558 0.488089 18.5056 0.488089C22.7245 0.488089 25.8089 1.44497 27.7941 3.35956C29.7439 5.27373 30.7367 8.18075 30.7367 12.0806V23.5665H30.8078H30.807ZM16.4137 28.9552C17.5838 28.9552 18.7891 28.7427 20.0651 28.317C21.3415 27.8917 22.4761 27.1117 23.433 26.0482C24.0005 25.3748 24.4258 24.6304 24.6383 23.7794C24.8512 22.9287 24.9929 21.9003 24.9929 20.695V19.2062C23.9178 18.9445 22.8289 18.7433 21.7313 18.6035C20.626 18.4631 19.5131 18.392 18.3989 18.3906C16.0235 18.3906 14.2866 18.8515 13.1169 19.8088C11.9467 20.7661 11.3796 22.1132 11.3796 23.8856C11.3796 25.5518 11.8049 26.7926 12.6911 27.6437C13.5422 28.5299 14.783 28.9552 16.4137 28.9552ZM44.8812 32.784C44.243 32.784 43.8176 32.6777 43.5341 32.4293C43.2505 32.2169 43.0021 31.7204 42.7897 31.0471L34.4588 3.64311C34.2455 2.93381 34.1393 2.47294 34.1393 2.22494C34.1393 1.65784 34.4228 1.33832 34.9904 1.33832H38.4645C39.1378 1.33832 39.5991 1.44497 39.8471 1.69297C40.1307 1.90584 40.3435 2.40226 40.556 3.07559L46.5118 26.5446L52.0423 3.07559C52.2196 2.36671 52.4325 1.90584 52.7156 1.69297C52.9996 1.48051 53.496 1.33874 54.1342 1.33874H56.9701C57.6434 1.33874 58.1047 1.44497 58.3879 1.69297C58.6718 1.90584 58.9198 2.40226 59.0616 3.07559L64.6632 26.8281L70.7959 3.07559C71.0084 2.36671 71.2568 1.90584 71.5048 1.69297C71.7883 1.48051 72.2492 1.33874 72.8874 1.33874H76.1842C76.7517 1.33874 77.0708 1.62229 77.0708 2.22494C77.0708 2.40226 77.0353 2.57959 76.9997 2.79204C76.9642 3.00491 76.8935 3.28846 76.7517 3.67866L68.2076 31.0822C67.9951 31.7915 67.7471 32.2524 67.4631 32.4649C67.1796 32.6777 66.7187 32.8195 66.1165 32.8195H63.0677C62.394 32.8195 61.9331 32.7133 61.6491 32.4649C61.3656 32.2169 61.1176 31.756 60.9758 31.0471L55.4804 8.18075L50.021 31.0111C49.8441 31.7204 49.6313 32.1813 49.3477 32.4293C49.0642 32.6777 48.5677 32.784 47.93 32.784H44.8807H44.8812ZM90.4361 33.7412C88.5927 33.7412 86.7492 33.5284 84.9768 33.1031C83.2039 32.6777 81.8217 32.2164 80.9 31.6853C80.3325 31.3658 79.9423 31.0116 79.8009 30.6925C79.6629 30.3795 79.5904 30.0416 79.5881 29.6996V27.8917C79.5881 27.1472 79.8716 26.7926 80.4036 26.7926C80.6207 26.7934 80.8362 26.8294 81.0418 26.8992C81.2542 26.9703 81.5733 27.1117 81.928 27.2535C83.1801 27.8042 84.4873 28.2202 85.8274 28.4943C87.2161 28.7761 88.6294 28.9186 90.0464 28.9196C92.2796 28.9196 94.0169 28.5299 95.2222 27.7499C96.4275 26.9699 97.0657 25.8357 97.0657 24.382C97.0657 23.3896 96.7466 22.5741 96.1084 21.9003C95.4702 21.227 94.2649 20.6243 92.5281 20.0568L87.3874 18.4617C84.7994 17.6462 82.8853 16.4409 81.7151 14.8454C80.5453 13.2855 79.9427 11.5486 79.9427 9.70514C79.9427 8.2163 80.2618 6.90435 80.9 5.76973C81.5378 4.63553 82.3888 3.64311 83.4524 2.86314C84.5159 2.04761 85.7212 1.44497 87.1394 1.01964C88.5571 0.594316 90.0459 0.416992 91.6059 0.416992C92.3859 0.416992 93.2014 0.452541 93.9814 0.558767C94.7969 0.664994 95.5413 0.806769 96.2857 0.948544C96.9946 1.12587 97.6683 1.30319 98.3065 1.51606C98.9447 1.72852 99.4407 1.94139 99.7954 2.15384C100.292 2.43781 100.646 2.72136 100.859 3.04046C101.072 3.32401 101.178 3.71379 101.178 4.21021V5.87638C101.178 6.6208 100.894 7.011 100.362 7.011C100.079 7.011 99.6181 6.8688 99.0158 6.58525C96.9946 5.66351 94.7258 5.20263 92.209 5.20263C90.1881 5.20263 88.5927 5.52173 87.4936 6.19548C86.3949 6.8688 85.8274 7.8972 85.8274 9.3505C85.8274 10.3433 86.1821 11.194 86.8909 11.8677C87.6002 12.5411 88.9118 13.2148 90.7908 13.8175L95.8249 15.413C98.3772 16.2285 100.221 17.3627 101.32 18.816C102.419 20.2697 102.951 21.9359 102.951 23.7794C102.951 25.3037 102.631 26.6864 102.029 27.8917C101.391 29.097 100.54 30.1605 99.4407 31.0116C98.3417 31.8978 97.0301 32.536 95.5058 32.9968C93.9103 33.4932 92.2441 33.7412 90.4361 33.7412Z" fill="#252F3E"/>
<path d="M97.1365 50.9701C85.4733 59.585 68.5272 64.1581 53.957 64.1581C33.5367 64.1581 15.1378 56.6068 1.24088 44.057C0.141805 43.0646 1.13423 41.7175 2.44575 42.4971C17.4773 51.2186 36.0184 56.5006 55.1978 56.5006C68.1374 56.5006 82.3534 53.8065 95.4352 48.276C97.3849 47.3894 99.051 49.5524 97.1365 50.9701ZM101.994 45.4396C100.505 43.5255 92.1379 44.5179 88.3447 44.9788C87.2101 45.121 87.0328 44.1281 88.0612 43.3837C94.7259 38.7039 105.681 40.0514 106.957 41.6109C108.233 43.2064 106.602 54.1607 100.363 59.4076C99.4057 60.2232 98.4839 59.7978 98.9093 58.7343C100.327 55.2242 103.482 47.3187 101.994 45.4396Z" fill="#FF9900"/>
</g>
<defs>
<clipPath id="clip0_859_5398">
<rect width="107.063" height="63.987" fill="white" transform="translate(0.53125 0.380859)"/>
</clipPath>
</defs>
</svg>
