<svg width="105" height="63" viewBox="0 0 105 63" fill="none" xmlns="http://www.w3.org/2000/svg">
<g clip-path="url(#clip0_1267_1215)">
<path d="M30.3706 22.81C30.3706 24.0848 30.5088 25.1182 30.7498 25.8761C31.0557 26.7288 31.4241 27.5578 31.8519 28.3563C32.0242 28.6318 32.0929 28.9073 32.0929 29.1487C32.0929 29.4929 31.8864 29.8375 31.4386 30.1821L29.2685 31.6288C28.9585 31.8357 28.6484 31.9389 28.3725 31.9389C28.0283 31.9389 27.6836 31.7666 27.339 31.4565C26.8749 30.9577 26.4598 30.4156 26.0992 29.8375C25.7546 29.2523 25.41 28.5973 25.0312 27.8052C22.3442 30.9742 18.968 32.559 14.9034 32.559C12.01 32.559 9.70176 31.7321 8.01366 30.0789C6.32596 28.4249 5.46484 26.2203 5.46484 23.4647C5.46484 20.5367 6.49827 18.1598 8.59966 16.3685C10.7006 14.5772 13.4912 13.6815 17.0393 13.6815C18.2105 13.6815 19.4163 13.7847 20.6907 13.957C21.9655 14.1293 23.2744 14.4049 24.6525 14.7149V12.2002C24.6525 9.58194 24.101 7.75648 23.033 6.68852C21.9309 5.62055 20.0705 5.10364 17.4181 5.10364C16.2124 5.10364 14.9725 5.24181 13.6977 5.55187C12.4233 5.86154 11.183 6.24069 9.97728 6.72306C9.42623 6.96404 9.01294 7.10181 8.77155 7.17089C8.53057 7.23998 8.35827 7.27411 8.2205 7.27411C7.73813 7.27411 7.49715 6.9295 7.49715 6.20615V4.51804C7.49715 3.96699 7.56623 3.55371 7.73813 3.31272C7.91044 3.07133 8.2205 2.83035 8.70288 2.58937C9.9086 1.96923 11.3553 1.45232 13.043 1.03903C14.7315 0.591199 16.5228 0.384758 18.4174 0.384758C22.5169 0.384758 25.514 1.31455 27.4431 3.17496C29.3376 5.03496 30.3024 7.8597 30.3024 11.6492V22.81H30.3714H30.3706ZM16.3847 28.0462C17.5217 28.0462 18.6929 27.8398 19.9328 27.4261C21.173 27.0128 22.2755 26.2549 23.2053 25.2215C23.7568 24.5672 24.1701 23.8438 24.3765 23.0168C24.5834 22.1903 24.7211 21.191 24.7211 20.0198V18.5731C23.6765 18.3188 22.6183 18.1233 21.5518 17.9875C20.4778 17.8511 19.3964 17.782 18.3138 17.7806C16.0055 17.7806 14.3178 18.2285 13.1812 19.1587C12.0441 20.0889 11.4931 21.3978 11.4931 23.1201C11.4931 24.7391 11.9064 25.9448 12.7675 26.7718C13.5945 27.6329 14.8002 28.0462 16.3847 28.0462ZM44.0465 31.7666C43.4264 31.7666 43.0131 31.6634 42.7376 31.422C42.462 31.2156 42.2206 30.7332 42.0142 30.0789L33.9191 3.45049C33.7119 2.76127 33.6087 2.31344 33.6087 2.07245C33.6087 1.5214 33.8842 1.21093 34.4356 1.21093H37.8114C38.4657 1.21093 38.9139 1.31455 39.1549 1.55554C39.4305 1.76239 39.6373 2.24476 39.8437 2.89903L45.631 25.7038L51.005 2.89903C51.1773 2.21022 51.3841 1.76239 51.6592 1.55554C51.9352 1.3491 52.4175 1.21133 53.0377 1.21133H55.7933C56.4476 1.21133 56.8958 1.31455 57.171 1.55554C57.4469 1.76239 57.6879 2.24476 57.8256 2.89903L63.2687 25.9794L69.2278 2.89903C69.4343 2.21022 69.6757 1.76239 69.9166 1.55554C70.1922 1.3491 70.64 1.21133 71.2601 1.21133H74.4636C75.0151 1.21133 75.3251 1.48686 75.3251 2.07245C75.3251 2.24476 75.2906 2.41706 75.2561 2.6235C75.2215 2.83035 75.1528 3.10588 75.0151 3.48503L66.7127 30.113C66.5063 30.8023 66.2653 31.2501 65.9894 31.4565C65.7139 31.6634 65.266 31.8012 64.6808 31.8012H61.7183C61.0637 31.8012 60.6158 31.6979 60.3399 31.4565C60.0644 31.2156 59.8234 30.7677 59.6856 30.0789L54.3458 7.8597L49.0409 30.044C48.869 30.7332 48.6622 31.181 48.3866 31.422C48.1111 31.6634 47.6287 31.7666 47.009 31.7666H44.0461H44.0465ZM88.3122 32.6968C86.5209 32.6968 84.7296 32.49 83.0073 32.0767C81.2847 31.6634 79.9416 31.2151 79.046 30.699C78.4945 30.3886 78.1153 30.0444 77.978 29.7343C77.8438 29.4302 77.7734 29.1019 77.7711 28.7696V27.0128C77.7711 26.2894 78.0467 25.9448 78.5636 25.9448C78.7745 25.9456 78.984 25.9806 79.1837 26.0484C79.3902 26.1175 79.7002 26.2549 80.0448 26.3926C81.2615 26.9278 82.5317 27.332 83.8339 27.5984C85.1833 27.8722 86.5566 28.0107 87.9335 28.0117C90.1035 28.0117 91.7916 27.6329 92.9628 26.875C94.134 26.1171 94.7542 25.015 94.7542 23.6024C94.7542 22.6381 94.4441 21.8457 93.8239 21.191C93.2038 20.5367 92.0326 19.9511 90.3449 19.3997L85.3497 17.8497C82.835 17.0573 80.975 15.8861 79.838 14.3358C78.7013 12.82 78.1158 11.1323 78.1158 9.34096C78.1158 7.89425 78.4258 6.61943 79.046 5.51693C79.6657 4.41482 80.4927 3.45049 81.5261 2.69259C82.5595 1.90015 83.7307 1.31455 85.1087 0.901267C86.4864 0.487979 87.9331 0.315674 89.4489 0.315674C90.2068 0.315674 90.9992 0.350216 91.7571 0.453436C92.5495 0.556657 93.2729 0.69442 93.9962 0.832182C94.6851 1.00449 95.3397 1.17679 95.9599 1.38364C96.58 1.59008 97.062 1.79693 97.4066 2.00337C97.889 2.2793 98.2332 2.55483 98.44 2.86489C98.6469 3.14042 98.7501 3.51916 98.7501 4.00154V5.62055C98.7501 6.34391 98.4746 6.72306 97.9576 6.72306C97.6821 6.72306 97.2343 6.58489 96.6491 6.30937C94.6851 5.41371 92.4805 4.96588 90.0349 4.96588C88.0712 4.96588 86.5209 5.27594 85.4529 5.93062C84.3854 6.58489 83.8339 7.58418 83.8339 8.99635C83.8339 9.96109 84.1785 10.7877 84.8673 11.4423C85.5566 12.0966 86.831 12.7513 88.6568 13.3369L93.5484 14.8872C96.0285 15.6797 97.8199 16.7818 98.8878 18.1939C99.9558 19.6065 100.473 21.2255 100.473 23.0168C100.473 24.4981 100.162 25.8416 99.5767 27.0128C98.9569 28.184 98.1299 29.2174 97.062 30.0444C95.994 30.9055 94.7196 31.5256 93.2383 31.9735C91.688 32.4558 90.069 32.6968 88.3122 32.6968Z" fill="#252F3E"/>
<path d="M94.8222 49.4382C83.4891 57.8092 67.0226 62.253 52.8647 62.253C33.0224 62.253 15.1442 54.9154 1.64059 42.7208C0.572629 41.7564 1.53697 40.4475 2.81137 41.205C17.4175 49.6796 35.4339 54.8122 54.0705 54.8122C66.6438 54.8122 80.4575 52.1943 93.169 46.8203C95.0636 45.9588 96.6826 48.0606 94.8222 49.4382ZM99.5419 44.0642C98.0952 42.2042 89.9651 43.1686 86.2793 43.6164C85.1768 43.7546 85.0045 42.7898 86.0038 42.0665C92.4798 37.5191 103.125 38.8285 104.364 40.3438C105.605 41.8942 104.02 52.5385 97.957 57.6369C97.0272 58.4294 96.1315 58.0161 96.5448 56.9827C97.9225 53.5719 100.989 45.8901 99.5419 44.0642Z" fill="#FF9900"/>
</g>
<defs>
<clipPath id="clip0_1267_1215">
<rect width="104.033" height="62.1761" fill="white" transform="translate(0.951172 0.280518)"/>
</clipPath>
</defs>
</svg>
