<svg width="157" height="57" viewBox="0 0 157 57" fill="none" xmlns="http://www.w3.org/2000/svg">
<path d="M33.3445 45.7763C41.1603 44.5213 47.6143 43.4824 47.6887 43.4686L47.8245 43.4426L40.4465 35.465C36.3876 31.0778 33.0686 27.4702 33.0686 27.4494C33.0686 27.4287 40.6874 8.33774 40.7312 8.27033C40.7465 8.24786 45.9307 16.3845 53.2999 27.9957L65.9408 47.9111L66.0372 48.0633H19.1382L33.3445 45.7763ZM5.20117 43.3424C5.20117 43.332 8.67776 37.8454 12.9272 31.1504L20.6532 18.9792L29.6665 12.1131C34.6187 8.33602 38.6842 5.24005 38.6995 5.23486C38.6671 5.34939 38.6186 5.46071 38.555 5.56676L28.7689 24.6266L19.1579 43.3476H12.1762C9.85127 43.3663 7.5261 43.3646 5.20117 43.3424Z" fill="#0089D6"/>
<path d="M91.2244 36.3533C91.3204 36.6174 91.3684 36.8334 91.3684 37.0015C91.3804 37.1576 91.3384 37.2776 91.2424 37.3616C91.1463 37.4457 90.9843 37.4997 90.7562 37.5237C90.5401 37.5477 90.246 37.5597 89.8739 37.5597C89.5017 37.5597 89.2016 37.5477 88.9735 37.5237C88.7575 37.5117 88.5894 37.4877 88.4694 37.4517C88.3613 37.4036 88.2773 37.3436 88.2173 37.2716C88.1693 37.1996 88.1212 37.1095 88.0732 37.0015L86.0745 31.3294H76.387L74.4783 36.9295C74.4423 37.0375 74.3943 37.1335 74.3343 37.2176C74.2742 37.2896 74.1842 37.3556 74.0642 37.4156C73.9561 37.4637 73.7941 37.4997 73.578 37.5237C73.3739 37.5477 73.1038 37.5597 72.7677 37.5597C72.4196 37.5597 72.1315 37.5417 71.9034 37.5057C71.6873 37.4817 71.5312 37.4277 71.4352 37.3436C71.3512 37.2596 71.3092 37.1395 71.3092 36.9835C71.3212 36.8154 71.3752 36.5994 71.4712 36.3353L79.286 14.6914C79.3341 14.5594 79.3941 14.4514 79.4661 14.3673C79.5501 14.2833 79.6642 14.2173 79.8082 14.1692C79.9643 14.1212 80.1564 14.0912 80.3844 14.0792C80.6245 14.0552 80.9246 14.0432 81.2848 14.0432C81.6689 14.0432 81.987 14.0552 82.2391 14.0792C82.4912 14.0912 82.6953 14.1212 82.8513 14.1692C83.0074 14.2173 83.1274 14.2893 83.2115 14.3853C83.2955 14.4694 83.3615 14.5774 83.4095 14.7094L91.2244 36.3533ZM81.1947 17.2484H81.1767L77.1613 28.8626H85.2642L81.1947 17.2484ZM105.125 36.1912C105.125 36.4193 105.107 36.6174 105.071 36.7854C105.035 36.9415 104.993 37.0735 104.945 37.1816C104.897 37.2776 104.831 37.3496 104.747 37.3976C104.663 37.4337 104.573 37.4517 104.477 37.4517H94.5015C94.2495 37.4517 94.0394 37.3676 93.8713 37.1996C93.7153 37.0315 93.6372 36.7494 93.6372 36.3533V35.741C93.6372 35.573 93.6492 35.4229 93.6732 35.2909C93.6973 35.1588 93.7333 35.0268 93.7813 34.8947C93.8293 34.7627 93.8953 34.6246 93.9794 34.4806C94.0634 34.3245 94.1654 34.1505 94.2855 33.9584L101.434 22.8304H94.5015C94.3095 22.8304 94.1534 22.7343 94.0334 22.5423C93.9253 22.3382 93.8713 22.0141 93.8713 21.5699C93.8713 21.3538 93.8833 21.1678 93.9073 21.0117C93.9313 20.8437 93.9673 20.7116 94.0154 20.6156C94.0754 20.5075 94.1414 20.4355 94.2134 20.3995C94.2975 20.3515 94.3935 20.3275 94.5015 20.3275H103.793C103.925 20.3275 104.039 20.3455 104.135 20.3815C104.243 20.4175 104.333 20.4775 104.405 20.5616C104.477 20.6456 104.531 20.7536 104.567 20.8857C104.615 21.0177 104.639 21.1858 104.639 21.3899V21.9661C104.639 22.1341 104.627 22.2902 104.603 22.4342C104.579 22.5783 104.543 22.7223 104.495 22.8664C104.447 22.9984 104.381 23.1425 104.297 23.2985C104.213 23.4546 104.111 23.6287 103.991 23.8207L96.8784 34.9488H104.477C104.573 34.9488 104.657 34.9728 104.729 35.0208C104.813 35.0568 104.879 35.1228 104.927 35.2189C104.987 35.3149 105.035 35.4469 105.071 35.615C105.107 35.7711 105.125 35.9631 105.125 36.1912ZM123.078 37.0015C123.078 37.0975 123.054 37.1816 123.006 37.2536C122.97 37.3136 122.898 37.3676 122.79 37.4156C122.682 37.4637 122.538 37.4997 122.358 37.5237C122.19 37.5477 121.979 37.5597 121.727 37.5597C121.451 37.5597 121.223 37.5477 121.043 37.5237C120.875 37.4997 120.737 37.4637 120.629 37.4156C120.533 37.3676 120.467 37.3136 120.431 37.2536C120.395 37.1816 120.377 37.0975 120.377 37.0015V34.8587C119.453 35.8791 118.54 36.6234 117.64 37.0915C116.74 37.5597 115.827 37.7938 114.903 37.7938C113.823 37.7938 112.91 37.6137 112.166 37.2536C111.434 36.8935 110.839 36.4073 110.383 35.7951C109.927 35.1708 109.597 34.4506 109.393 33.6343C109.201 32.806 109.105 31.8036 109.105 30.6272V20.7956C109.105 20.6996 109.123 20.6216 109.159 20.5616C109.207 20.4895 109.291 20.4295 109.411 20.3815C109.531 20.3215 109.687 20.2855 109.879 20.2735C110.071 20.2494 110.311 20.2374 110.599 20.2374C110.887 20.2374 111.128 20.2494 111.32 20.2735C111.512 20.2855 111.662 20.3215 111.77 20.3815C111.89 20.4295 111.974 20.4895 112.022 20.5616C112.07 20.6216 112.094 20.6996 112.094 20.7956V30.2311C112.094 31.1794 112.16 31.9417 112.292 32.5179C112.436 33.0821 112.646 33.5683 112.922 33.9764C113.21 34.3725 113.57 34.6847 114.003 34.9127C114.435 35.1288 114.939 35.2369 115.515 35.2369C116.259 35.2369 116.998 34.9728 117.73 34.4446C118.474 33.9164 119.26 33.1421 120.089 32.1217V20.7956C120.089 20.6996 120.107 20.6216 120.143 20.5616C120.191 20.4895 120.275 20.4295 120.395 20.3815C120.515 20.3215 120.665 20.2855 120.845 20.2735C121.037 20.2494 121.283 20.2374 121.583 20.2374C121.871 20.2374 122.112 20.2494 122.304 20.2735C122.496 20.2855 122.646 20.3215 122.754 20.3815C122.862 20.4295 122.94 20.4895 122.988 20.5616C123.048 20.6216 123.078 20.6996 123.078 20.7956V37.0015ZM138.041 21.858C138.041 22.1221 138.035 22.3442 138.023 22.5243C138.011 22.7043 137.987 22.8484 137.951 22.9564C137.915 23.0525 137.867 23.1305 137.807 23.1905C137.759 23.2385 137.687 23.2625 137.591 23.2625C137.495 23.2625 137.375 23.2385 137.231 23.1905C137.099 23.1305 136.943 23.0765 136.763 23.0284C136.595 22.9684 136.403 22.9144 136.187 22.8664C135.971 22.8184 135.736 22.7944 135.484 22.7944C135.184 22.7944 134.89 22.8544 134.602 22.9744C134.314 23.0945 134.008 23.2925 133.684 23.5686C133.372 23.8447 133.041 24.2109 132.693 24.667C132.345 25.1232 131.961 25.6814 131.541 26.3416V37.0015C131.541 37.0975 131.517 37.1816 131.469 37.2536C131.421 37.3136 131.343 37.3676 131.235 37.4156C131.127 37.4637 130.977 37.4997 130.785 37.5237C130.593 37.5477 130.346 37.5597 130.046 37.5597C129.758 37.5597 129.518 37.5477 129.326 37.5237C129.134 37.4997 128.978 37.4637 128.858 37.4156C128.75 37.3676 128.672 37.3136 128.624 37.2536C128.588 37.1816 128.57 37.0975 128.57 37.0015V20.7956C128.57 20.6996 128.588 20.6216 128.624 20.5616C128.66 20.4895 128.732 20.4295 128.84 20.3815C128.948 20.3215 129.086 20.2855 129.254 20.2735C129.422 20.2494 129.644 20.2374 129.92 20.2374C130.184 20.2374 130.401 20.2494 130.569 20.2735C130.749 20.2855 130.887 20.3215 130.983 20.3815C131.079 20.4295 131.145 20.4895 131.181 20.5616C131.229 20.6216 131.253 20.6996 131.253 20.7956V23.1545C131.697 22.5063 132.111 21.9781 132.495 21.5699C132.891 21.1618 133.264 20.8437 133.612 20.6156C133.96 20.3755 134.302 20.2134 134.638 20.1294C134.986 20.0334 135.334 19.9853 135.682 19.9853C135.838 19.9853 136.013 19.9974 136.205 20.0214C136.409 20.0334 136.619 20.0634 136.835 20.1114C137.051 20.1594 137.243 20.2134 137.411 20.2735C137.591 20.3335 137.717 20.3935 137.789 20.4535C137.861 20.5135 137.909 20.5736 137.933 20.6336C137.957 20.6816 137.975 20.7476 137.987 20.8317C138.011 20.9157 138.023 21.0417 138.023 21.2098C138.035 21.3658 138.041 21.5819 138.041 21.858ZM154.751 28.1963C154.751 28.6645 154.631 29.0006 154.391 29.2047C154.163 29.3968 153.899 29.4928 153.599 29.4928H142.975C142.975 30.3931 143.065 31.2034 143.245 31.9237C143.425 32.6439 143.725 33.2621 144.145 33.7783C144.566 34.2945 145.112 34.6907 145.784 34.9668C146.456 35.2429 147.279 35.3809 148.251 35.3809C149.019 35.3809 149.703 35.3209 150.304 35.2008C150.904 35.0688 151.42 34.9247 151.852 34.7687C152.296 34.6126 152.657 34.4746 152.933 34.3545C153.221 34.2225 153.437 34.1565 153.581 34.1565C153.665 34.1565 153.737 34.1805 153.797 34.2285C153.869 34.2645 153.923 34.3245 153.959 34.4086C153.995 34.4926 154.019 34.6126 154.031 34.7687C154.055 34.9127 154.067 35.0928 154.067 35.3089C154.067 35.4649 154.061 35.603 154.049 35.723C154.037 35.8311 154.019 35.9331 153.995 36.0291C153.983 36.1132 153.953 36.1912 153.905 36.2632C153.869 36.3353 153.815 36.4073 153.743 36.4793C153.683 36.5393 153.491 36.6474 153.167 36.8034C152.843 36.9475 152.422 37.0915 151.906 37.2356C151.39 37.3796 150.79 37.5057 150.106 37.6137C149.433 37.7338 148.713 37.7938 147.945 37.7938C146.612 37.7938 145.442 37.6077 144.434 37.2356C143.437 36.8634 142.597 36.3112 141.913 35.579C141.228 34.8467 140.712 33.9284 140.364 32.824C140.016 31.7196 139.842 30.4351 139.842 28.9706C139.842 27.5781 140.022 26.3296 140.382 25.2252C140.742 24.1088 141.258 23.1665 141.931 22.3982C142.615 21.6179 143.437 21.0237 144.398 20.6156C145.358 20.1954 146.432 19.9853 147.621 19.9853C148.893 19.9853 149.974 20.1894 150.862 20.5976C151.762 21.0057 152.5 21.5579 153.077 22.2542C153.653 22.9384 154.073 23.7487 154.337 24.685C154.613 25.6094 154.751 26.5997 154.751 27.6561V28.1963ZM151.762 27.314C151.798 25.7534 151.45 24.529 150.718 23.6407C149.998 22.7523 148.923 22.3082 147.495 22.3082C146.762 22.3082 146.12 22.4462 145.568 22.7223C145.016 22.9984 144.554 23.3646 144.181 23.8207C143.809 24.2769 143.521 24.8111 143.317 25.4233C143.113 26.0235 142.999 26.6538 142.975 27.314H151.762Z" fill="#2EA3E5"/>
</svg>
