<svg width="153" height="55" viewBox="0 0 153 55" fill="none" xmlns="http://www.w3.org/2000/svg">
<path d="M32.5431 44.2712C40.1377 43.0518 46.409 42.0423 46.4814 42.0288L46.6133 42.0037L39.4442 34.2518C35.5001 29.9887 32.2751 26.4832 32.2751 26.463C32.2751 26.4429 39.6782 7.89226 39.7207 7.82675C39.7356 7.80492 44.7731 15.7113 51.9337 26.9938L64.2169 46.3457L64.3105 46.4935H18.7389L32.5431 44.2712ZM5.19629 41.9062C5.19629 41.8962 8.57449 36.5648 12.7036 30.0593L20.211 18.2325L28.9692 11.5607C33.7812 7.89058 37.7317 4.88224 37.7466 4.8772C37.7151 4.98848 37.668 5.09665 37.6062 5.1997L28.097 23.7201L18.758 41.9113H11.974C9.71478 41.9295 7.45542 41.9278 5.19629 41.9062Z" fill="#0089D6"/>
<path d="M89.0023 35.0206C89.0957 35.2772 89.1423 35.4872 89.1423 35.6505C89.154 35.8021 89.1132 35.9188 89.0198 36.0004C88.9265 36.0821 88.769 36.1345 88.5474 36.1579C88.3375 36.1812 88.0517 36.1929 87.6901 36.1929C87.3285 36.1929 87.0369 36.1812 86.8152 36.1579C86.6053 36.1462 86.442 36.1229 86.3253 36.0879C86.2203 36.0412 86.1387 35.9829 86.0804 35.9129C86.0337 35.8429 85.987 35.7554 85.9404 35.6505L83.9982 30.1389H74.5849L72.7302 35.5805C72.6952 35.6855 72.6486 35.7788 72.5902 35.8604C72.5319 35.9304 72.4444 35.9946 72.3278 36.0529C72.2228 36.0996 72.0653 36.1345 71.8554 36.1579C71.6571 36.1812 71.3946 36.1929 71.068 36.1929C70.7297 36.1929 70.4498 36.1754 70.2282 36.1404C70.0182 36.1171 69.8666 36.0646 69.7732 35.9829C69.6916 35.9013 69.6508 35.7846 69.6508 35.633C69.6624 35.4697 69.7149 35.2597 69.8082 35.0031L77.4019 13.9718C77.4486 13.8435 77.5069 13.7385 77.5769 13.6569C77.6585 13.5752 77.7693 13.5111 77.9093 13.4644C78.0609 13.4177 78.2476 13.3886 78.4692 13.3769C78.7025 13.3536 78.9941 13.3419 79.3441 13.3419C79.7173 13.3419 80.0264 13.3536 80.2714 13.3769C80.5163 13.3886 80.7146 13.4177 80.8663 13.4644C81.0179 13.5111 81.1346 13.5811 81.2162 13.6744C81.2979 13.756 81.362 13.861 81.4087 13.9893L89.0023 35.0206ZM79.2566 16.4564H79.2391L75.3373 27.7419H83.2109L79.2566 16.4564ZM102.51 34.8631C102.51 35.0847 102.492 35.2772 102.457 35.4405C102.422 35.5921 102.382 35.7205 102.335 35.8254C102.288 35.9188 102.224 35.9887 102.143 36.0354C102.061 36.0704 101.973 36.0879 101.88 36.0879H92.1868C91.9418 36.0879 91.7377 36.0062 91.5744 35.8429C91.4227 35.6796 91.3469 35.4055 91.3469 35.0206V34.4257C91.3469 34.2624 91.3586 34.1166 91.3819 33.9883C91.4052 33.86 91.4402 33.7316 91.4869 33.6033C91.5336 33.475 91.5977 33.3409 91.6794 33.2009C91.761 33.0493 91.8602 32.8801 91.9768 32.6935L98.9231 21.8804H92.1868C92.0001 21.8804 91.8485 21.7871 91.7319 21.6005C91.6269 21.4022 91.5744 21.0872 91.5744 20.6556C91.5744 20.4457 91.586 20.2649 91.6094 20.1132C91.6327 19.9499 91.6677 19.8216 91.7144 19.7283C91.7727 19.6233 91.8368 19.5533 91.9068 19.5183C91.9885 19.4717 92.0818 19.4483 92.1868 19.4483H101.215C101.343 19.4483 101.454 19.4658 101.548 19.5008C101.653 19.5358 101.74 19.5942 101.81 19.6758C101.88 19.7575 101.933 19.8624 101.968 19.9907C102.014 20.1191 102.038 20.2824 102.038 20.4807V21.0406C102.038 21.2039 102.026 21.3555 102.003 21.4955C101.979 21.6355 101.944 21.7754 101.898 21.9154C101.851 22.0437 101.787 22.1837 101.705 22.3353C101.623 22.487 101.524 22.6561 101.408 22.8427L94.4964 33.6558H101.88C101.973 33.6558 102.055 33.6792 102.125 33.7258C102.207 33.7608 102.271 33.825 102.317 33.9183C102.376 34.0116 102.422 34.1399 102.457 34.3032C102.492 34.4548 102.51 34.6415 102.51 34.8631ZM119.954 35.6505C119.954 35.7438 119.931 35.8254 119.884 35.8954C119.849 35.9537 119.779 36.0062 119.674 36.0529C119.569 36.0996 119.429 36.1345 119.254 36.1579C119.091 36.1812 118.887 36.1929 118.642 36.1929C118.374 36.1929 118.152 36.1812 117.977 36.1579C117.814 36.1345 117.68 36.0996 117.575 36.0529C117.481 36.0062 117.417 35.9537 117.382 35.8954C117.347 35.8254 117.33 35.7438 117.33 35.6505V33.5683C116.432 34.5598 115.545 35.283 114.67 35.738C113.795 36.1929 112.909 36.4203 112.011 36.4203C110.961 36.4203 110.074 36.2454 109.351 35.8954C108.64 35.5455 108.062 35.0731 107.619 34.4782C107.176 33.8716 106.855 33.1717 106.657 32.3785C106.47 31.5737 106.377 30.5997 106.377 29.4566V19.9033C106.377 19.8099 106.394 19.7341 106.429 19.6758C106.476 19.6058 106.558 19.5475 106.674 19.5008C106.791 19.4425 106.942 19.4075 107.129 19.3959C107.316 19.3725 107.549 19.3609 107.829 19.3609C108.109 19.3609 108.342 19.3725 108.529 19.3959C108.716 19.4075 108.861 19.4425 108.966 19.5008C109.083 19.5475 109.165 19.6058 109.211 19.6758C109.258 19.7341 109.281 19.8099 109.281 19.9033V29.0716C109.281 29.9931 109.345 30.7338 109.474 31.2937C109.614 31.842 109.818 32.3144 110.086 32.711C110.366 33.0959 110.716 33.3992 111.136 33.6208C111.556 33.8308 112.046 33.9358 112.606 33.9358C113.329 33.9358 114.046 33.6792 114.758 33.1659C115.481 32.6527 116.245 31.9003 117.05 30.9088V19.9033C117.05 19.8099 117.067 19.7341 117.102 19.6758C117.149 19.6058 117.231 19.5475 117.347 19.5008C117.464 19.4425 117.61 19.4075 117.785 19.3959C117.971 19.3725 118.21 19.3609 118.502 19.3609C118.782 19.3609 119.015 19.3725 119.202 19.3959C119.389 19.4075 119.534 19.4425 119.639 19.5008C119.744 19.5475 119.82 19.6058 119.867 19.6758C119.925 19.7341 119.954 19.8099 119.954 19.9033V35.6505ZM134.494 20.9356C134.494 21.1922 134.488 21.408 134.477 21.583C134.465 21.7579 134.442 21.8979 134.407 22.0029C134.372 22.0962 134.325 22.172 134.267 22.2303C134.22 22.277 134.15 22.3003 134.057 22.3003C133.964 22.3003 133.847 22.277 133.707 22.2303C133.579 22.172 133.427 22.1195 133.252 22.0729C133.089 22.0146 132.902 21.9621 132.692 21.9154C132.482 21.8687 132.255 21.8454 132.01 21.8454C131.718 21.8454 131.432 21.9037 131.152 22.0204C130.872 22.137 130.575 22.3295 130.26 22.5978C129.957 22.8661 129.636 23.2218 129.298 23.6651C128.959 24.1083 128.586 24.6508 128.178 25.2923V35.6505C128.178 35.7438 128.155 35.8254 128.108 35.8954C128.061 35.9537 127.985 36.0062 127.88 36.0529C127.775 36.0996 127.63 36.1345 127.443 36.1579C127.256 36.1812 127.017 36.1929 126.726 36.1929C126.446 36.1929 126.212 36.1812 126.026 36.1579C125.839 36.1345 125.687 36.0996 125.571 36.0529C125.466 36.0062 125.39 35.9537 125.343 35.8954C125.308 35.8254 125.291 35.7438 125.291 35.6505V19.9033C125.291 19.8099 125.308 19.7341 125.343 19.6758C125.378 19.6058 125.448 19.5475 125.553 19.5008C125.658 19.4425 125.792 19.4075 125.956 19.3959C126.119 19.3725 126.335 19.3609 126.603 19.3609C126.86 19.3609 127.07 19.3725 127.233 19.3959C127.408 19.4075 127.542 19.4425 127.635 19.5008C127.729 19.5475 127.793 19.6058 127.828 19.6758C127.875 19.7341 127.898 19.8099 127.898 19.9033V22.1954C128.33 21.5655 128.732 21.0522 129.105 20.6556C129.49 20.259 129.852 19.9499 130.19 19.7283C130.528 19.495 130.861 19.3375 131.187 19.2559C131.526 19.1626 131.864 19.1159 132.202 19.1159C132.354 19.1159 132.523 19.1276 132.71 19.1509C132.908 19.1626 133.112 19.1917 133.322 19.2384C133.532 19.285 133.719 19.3375 133.882 19.3959C134.057 19.4542 134.179 19.5125 134.249 19.5708C134.319 19.6291 134.366 19.6875 134.389 19.7458C134.413 19.7924 134.43 19.8566 134.442 19.9383C134.465 20.0199 134.477 20.1424 134.477 20.3057C134.488 20.4573 134.494 20.6673 134.494 20.9356ZM150.731 27.0945C150.731 27.5494 150.615 27.876 150.381 28.0743C150.16 28.2609 149.903 28.3543 149.612 28.3543H139.288C139.288 29.2291 139.376 30.0165 139.551 30.7163C139.726 31.4162 140.017 32.0169 140.426 32.5185C140.834 33.0201 141.365 33.405 142.018 33.6733C142.671 33.9416 143.47 34.0757 144.415 34.0757C145.162 34.0757 145.826 34.0174 146.41 33.9008C146.993 33.7725 147.494 33.6325 147.914 33.4809C148.346 33.3292 148.696 33.1951 148.964 33.0784C149.244 32.9501 149.454 32.886 149.594 32.886C149.676 32.886 149.746 32.9093 149.804 32.9559C149.874 32.9909 149.927 33.0493 149.962 33.1309C149.997 33.2126 150.02 33.3292 150.032 33.4809C150.055 33.6208 150.067 33.7958 150.067 34.0058C150.067 34.1574 150.061 34.2915 150.049 34.4082C150.037 34.5132 150.02 34.6123 149.997 34.7056C149.985 34.7873 149.956 34.8631 149.909 34.9331C149.874 35.0031 149.822 35.0731 149.752 35.1431C149.693 35.2014 149.507 35.3064 149.192 35.458C148.877 35.598 148.468 35.738 147.967 35.8779C147.465 36.0179 146.882 36.1404 146.217 36.2454C145.564 36.362 144.864 36.4203 144.118 36.4203C142.823 36.4203 141.685 36.2395 140.706 35.8779C139.738 35.5163 138.921 34.9798 138.256 34.2682C137.591 33.5567 137.09 32.6643 136.751 31.5912C136.413 30.518 136.244 29.2699 136.244 27.8469C136.244 26.4938 136.419 25.2806 136.769 24.2075C137.119 23.1227 137.62 22.207 138.274 21.4605C138.938 20.7023 139.738 20.1249 140.671 19.7283C141.604 19.32 142.648 19.1159 143.803 19.1159C145.039 19.1159 146.089 19.3142 146.952 19.7108C147.827 20.1074 148.544 20.644 149.104 21.3205C149.664 21.9854 150.072 22.7728 150.329 23.6826C150.597 24.5808 150.731 25.5431 150.731 26.5696V27.0945ZM147.827 26.2371C147.862 24.7207 147.524 23.531 146.812 22.6678C146.112 21.8046 145.068 21.373 143.68 21.373C142.969 21.373 142.345 21.5071 141.808 21.7754C141.271 22.0437 140.822 22.3995 140.461 22.8427C140.099 23.286 139.819 23.8051 139.621 24.4C139.423 24.9832 139.312 25.5956 139.288 26.2371H147.827Z" fill="#2EA3E5"/>
</svg>
