<svg width="105" height="79" viewBox="0 0 105 79" fill="none" xmlns="http://www.w3.org/2000/svg">
<g clip-path="url(#clip0_1267_1211)">
<path d="M51.9543 42.8944V52.934C68.9711 52.934 82.2207 36.4947 76.6541 18.6632C74.2215 10.8709 68.0295 4.67885 60.2372 2.24626C42.4052 -3.32033 25.966 9.92927 25.966 26.946H36.0287C36.0299 26.946 36.0312 26.9436 36.0312 26.9436C36.0328 16.2639 46.6011 8.00791 57.829 12.0823C61.9887 13.5916 65.3063 16.9088 66.8169 21.0681C70.8916 32.2891 62.6474 42.8537 51.9775 42.8688V32.8617L51.9759 32.8609H41.944C41.9432 32.8609 41.9424 32.8625 41.9424 32.8625V42.8944H51.9543ZM41.9403 50.605H34.2325L34.2309 50.603V42.8944H41.9424V50.6034C41.9424 50.6034 41.9416 50.605 41.9403 50.605ZM34.2362 42.8944H27.7748C27.7719 42.8944 27.7699 42.8927 27.7699 42.8927V36.4342C27.7699 36.4342 27.7719 36.4293 27.7748 36.4293H34.2313C34.2342 36.4293 34.2362 36.4313 34.2362 36.4313V42.8944ZM8.99596 63.1183C7.68783 62.2104 6.05987 61.7504 4.15761 61.7504H0.0166016V74.8882H4.15761C6.0554 74.8882 7.68376 74.4026 8.99759 73.4456C9.71282 72.938 10.2744 72.2289 10.6678 71.3389C11.0587 70.453 11.2571 69.4086 11.2571 68.2342C11.2571 67.0731 11.0587 66.0417 10.667 65.1688C10.2744 64.2911 9.712 63.6014 8.99596 63.1183ZM2.43537 63.9708H3.73497C5.18128 63.9708 6.37156 64.2553 7.27454 64.8173C8.27627 65.4216 8.78465 66.5709 8.78465 68.2338C8.78465 69.9466 8.27505 71.1479 7.27048 71.8058H7.26966C6.40529 72.3772 5.22192 72.6674 3.75285 72.6674H2.43537V63.9708ZM12.9529 74.8882H15.2814V65.635H12.9529V74.8882ZM14.1395 61.5886C13.7413 61.5886 13.3987 61.7297 13.1223 62.006C12.8432 62.2722 12.7013 62.6099 12.7013 63.0089C12.7013 63.4072 12.8423 63.7498 13.1207 64.0277C13.3987 64.3065 13.7417 64.4475 14.1395 64.4475C14.5374 64.4475 14.8799 64.3065 15.1587 64.0277C15.4375 63.7494 15.5781 63.4064 15.5781 63.0089C15.5781 62.6103 15.4367 62.273 15.1587 62.008C15.0263 61.8725 14.8676 61.7654 14.6923 61.6933C14.5171 61.6212 14.329 61.5856 14.1395 61.5886ZM23.7374 66.4083C23.0352 65.7833 22.2512 65.4192 21.4035 65.4192C20.1182 65.4192 19.0498 65.8638 18.2285 66.7399C17.397 67.6087 16.9748 68.7271 16.9748 70.0641C16.9748 71.3698 17.3901 72.4845 18.211 73.3785C19.038 74.2433 20.1125 74.6814 21.4035 74.6814C22.3012 74.6814 23.0729 74.4315 23.7016 73.9377V74.151C23.7016 74.9187 23.496 75.5161 23.0908 75.9261C22.6857 76.3357 22.1241 76.5434 21.4218 76.5434C20.347 76.5434 19.6732 76.1208 18.8531 75.0126L17.2674 76.5361L17.3101 76.5962C17.6527 77.0766 18.1773 77.5472 18.8698 77.9942C19.5622 78.4392 20.4327 78.6655 21.4576 78.6655C22.8401 78.6655 23.958 78.2392 24.7818 77.3992C25.6096 76.5544 26.0294 75.4234 26.0294 74.0385V65.6346H23.7374V66.4079V66.4083ZM23.1266 71.8729C22.7198 72.3353 22.1972 72.5593 21.5295 72.5593C20.8618 72.5593 20.3421 72.3353 19.941 71.8737C19.5423 71.4145 19.3395 70.8049 19.3395 70.0637C19.3395 69.3103 19.5423 68.6938 19.9414 68.2309C20.3368 67.7733 20.8712 67.5409 21.5295 67.5409C22.1964 67.5409 22.7194 67.7668 23.1266 68.2321C23.5318 68.6946 23.7374 69.3107 23.7374 70.0637C23.7374 70.8049 23.5318 71.4141 23.1266 71.8729ZM28.0222 74.8882H30.3508V65.635H28.0222V74.8882ZM29.2089 61.5886C28.811 61.5886 28.468 61.7297 28.1917 62.006C27.9125 62.2722 27.7707 62.6099 27.7707 63.0089C27.7707 63.4072 27.9117 63.7498 28.1901 64.0277C28.468 64.3065 28.811 64.4475 29.2093 64.4475C29.3988 64.4505 29.5869 64.4148 29.7621 64.3426C29.9374 64.2705 30.0961 64.1633 30.2285 64.0277C30.5068 63.7494 30.6479 63.4064 30.6479 63.0089C30.6479 62.6103 30.5056 62.273 30.2285 62.008C30.096 61.8726 29.9373 61.7655 29.762 61.6934C29.5868 61.6213 29.3987 61.5857 29.2093 61.5886H29.2089ZM35.4545 63.1349H33.1625V65.635H31.8308V67.7571H33.1621V71.6006C33.1621 72.8035 33.4023 73.6642 33.8765 74.1584C34.352 74.655 35.1961 74.9065 36.3855 74.9065C36.7639 74.9065 37.1446 74.8939 37.5169 74.8699L37.6217 74.8626V72.7421L36.8236 72.784C36.2689 72.784 35.8991 72.6865 35.7231 72.4951C35.5443 72.3 35.4545 71.8879 35.4545 71.2706V67.7571H37.6217V65.635H35.4545V63.1349ZM45.6132 66.327C44.9073 65.7248 43.932 65.4192 42.7141 65.4192C41.9391 65.4192 41.2145 65.589 40.5595 65.9215C39.9531 66.2291 39.3578 66.7383 38.9795 67.4047L39.003 67.4332L40.494 68.8604C41.1081 67.881 41.7912 67.5409 42.6966 67.5409C43.183 67.5409 43.5866 67.6717 43.8971 67.929C44.2059 68.1846 44.3563 68.5097 44.3563 68.9213V69.3708C43.8012 69.1987 43.2237 69.1097 42.6426 69.1067C41.4836 69.1067 40.5408 69.3789 39.8406 69.9166C39.131 70.4611 38.7718 71.2393 38.7718 72.2313C38.7718 73.1006 39.0745 73.8068 39.6748 74.3319C40.2803 74.8382 41.0361 75.0955 41.9233 75.0955C42.8096 75.0955 43.639 74.7379 44.392 74.1263V74.8882H46.6844V68.9396C46.6844 67.8136 46.324 66.9346 45.6132 66.327ZM41.4791 71.3523C41.7432 71.1682 42.1163 71.0752 42.5885 71.0752C43.1489 71.0752 43.743 71.1877 44.3563 71.41V72.3179C43.8499 72.7881 43.1737 73.027 42.3459 73.027C41.9428 73.027 41.6295 72.9376 41.4141 72.76C41.2028 72.5869 41.0999 72.3662 41.0999 72.0871C41.0999 71.7697 41.2239 71.5291 41.4791 71.3523ZM48.5395 74.8882H50.8681V61.75H48.5395V74.8882ZM59.3167 75.0861C55.5821 75.0861 52.5436 72.048 52.5436 68.3134C52.5436 64.5788 55.5817 61.5403 59.3163 61.5403C63.0509 61.5403 66.089 64.5788 66.089 68.3134C66.089 72.048 63.0509 75.0861 59.3163 75.0861H59.3167ZM59.3167 63.9269C56.8979 63.9269 54.9307 65.8946 54.9307 68.3134C54.9307 70.7318 56.8979 72.6991 59.3163 72.6991C61.7347 72.6991 63.7024 70.7322 63.7024 68.3134C63.7024 65.8946 61.7347 63.9274 59.3163 63.9274L59.3167 63.9269ZM74.3918 71.5795C73.9752 72.0464 73.5493 72.4512 73.221 72.6613V72.6617C72.8991 72.8681 72.4928 72.9734 72.0136 72.9734C71.3273 72.9734 70.7758 72.7234 70.3263 72.2086C69.8793 71.6965 69.653 71.039 69.653 70.2523C69.653 69.4663 69.8765 68.8096 70.3178 68.3012C70.7612 67.7892 71.3098 67.5413 71.9953 67.5413C72.7455 67.5413 73.5363 68.0074 74.2138 68.8088L75.7527 67.3328C74.749 66.0267 73.4693 65.4192 71.9417 65.4192C70.6632 65.4192 69.555 65.8849 68.648 66.8029C67.7458 67.714 67.2883 68.875 67.2883 70.2523C67.2883 71.6299 67.7454 72.7937 68.6468 73.7113C69.549 74.6298 70.6575 75.0955 71.9417 75.0955C73.6274 75.0955 74.9883 74.3677 75.9055 73.0343L74.3918 71.5795ZM83.9482 66.9277C83.6182 66.4676 83.1688 66.0974 82.6112 65.8264C82.0561 65.5561 81.4083 65.4192 80.6874 65.4192C79.3878 65.4192 78.3239 65.8987 77.5258 66.8456C76.7504 67.7843 76.3578 68.9518 76.3578 70.3156C76.3578 71.7177 76.7886 72.8787 77.6387 73.7654C78.484 74.6476 79.6158 75.0955 81.0019 75.0955C82.5722 75.0955 83.8608 74.4603 84.8317 73.2078L84.8841 73.1404L83.365 71.6807C83.2244 71.8505 83.0249 72.0432 82.8424 72.2147C82.6128 72.4317 82.3966 72.5995 82.1658 72.7145C81.8175 72.8876 81.4274 72.9734 80.9906 72.9734C80.3456 72.9734 79.8112 72.7836 79.4028 72.4093C79.0208 72.059 78.7973 71.5868 78.738 71.0036H84.9068L84.928 70.1539C84.928 69.5525 84.8459 68.973 84.6845 68.4308C84.5248 67.8922 84.2759 67.384 83.9482 66.9277ZM78.8591 69.1063C78.9713 68.6633 79.1753 68.2951 79.4675 68.009C79.7828 67.6982 80.1936 67.5409 80.6878 67.5409C81.2527 67.5409 81.6895 67.7014 81.9866 68.0192C82.2621 68.3126 82.4174 68.6779 82.4499 69.1063H78.8591ZM92.8906 66.327C92.1847 65.7248 91.209 65.4192 89.9915 65.4192C89.2165 65.4192 88.4919 65.589 87.8368 65.9215C87.2301 66.2291 86.6348 66.7383 86.2568 67.4047L86.2804 67.4332L87.7714 68.8604C88.3854 67.881 89.0686 67.5409 89.974 67.5409C90.4604 67.5409 90.864 67.6717 91.1744 67.929C91.4833 68.1846 91.6336 68.5097 91.6336 68.9213V69.3708C91.0784 69.1987 90.5008 69.1097 89.9195 69.1067C88.7614 69.1067 87.8177 69.3789 87.1175 69.9166C86.4084 70.4611 86.0488 71.2393 86.0488 72.2313C86.0488 73.1006 86.3519 73.8068 86.9521 74.3319C87.5572 74.8382 88.3135 75.0955 89.2002 75.0955C90.087 75.0955 90.9164 74.7379 91.669 74.1263V74.8882H93.9618V68.9396C93.9618 67.8136 93.6013 66.9346 92.8906 66.327ZM88.7565 71.3523C89.0206 71.1682 89.3933 71.0752 89.8659 71.0752C90.4263 71.0752 91.0204 71.1877 91.6336 71.41V72.3179C91.1269 72.7881 90.4511 73.027 89.6229 73.027C89.2201 73.027 88.9068 72.9376 88.6915 72.76C88.4801 72.5869 88.3773 72.3662 88.3773 72.0871C88.3773 71.7697 88.5013 71.5291 88.7565 71.3523ZM102.919 66.5087C102.271 65.7861 101.36 65.4192 100.21 65.4192C99.2862 65.4192 98.536 65.6845 97.9748 66.2076V65.6346H95.6913V74.8882H98.0199V69.7849C98.0199 69.0839 98.1865 68.5272 98.5157 68.1297C98.844 67.7339 99.2951 67.5409 99.8953 67.5409C100.423 67.5409 100.822 67.7132 101.117 68.0671C101.414 68.4227 101.564 68.9124 101.564 69.5244V74.8882H103.892V69.5244C103.892 68.2427 103.565 67.2284 102.919 66.5091V66.5087Z" fill="#0080FF"/>
</g>
<defs>
<clipPath id="clip0_1267_1211">
<rect width="104.033" height="78.0249" fill="white" transform="translate(0.0166016 0.862061)"/>
</clipPath>
</defs>
</svg>
