<svg width="108" height="81" viewBox="0 0 108 81" fill="none" xmlns="http://www.w3.org/2000/svg">
<g clip-path="url(#clip0_859_5394)">
<path d="M53.9817 43.6085V53.9405C71.4941 53.9405 85.1296 37.0224 79.4009 18.6715C76.8974 10.6523 70.5251 4.27991 62.5058 1.77647C44.1545 -3.95225 27.2364 9.68325 27.2364 27.1956H37.5923C37.5935 27.1956 37.5948 27.1931 37.5948 27.1931C37.5964 16.2024 48.4726 7.70593 60.0274 11.899C64.3083 13.4522 67.7226 16.8661 69.2771 21.1465C73.4706 32.6943 64.9862 43.5667 54.0056 43.5821V33.2836L54.0039 33.2827H43.6798C43.679 33.2827 43.6781 33.2844 43.6781 33.2844V43.6085H53.9817ZM43.676 51.5437H35.7437L35.7421 51.5416V43.6085H43.6781V51.542C43.6781 51.542 43.6773 51.5437 43.676 51.5437ZM35.7475 43.6085H29.0979C29.095 43.6085 29.0929 43.6068 29.0929 43.6068V36.9601C29.0929 36.9601 29.095 36.9551 29.0979 36.9551H35.7425C35.7454 36.9551 35.7475 36.9572 35.7475 36.9572V43.6085ZM9.77214 64.4214C8.42591 63.4871 6.75053 63.0137 4.79287 63.0137H0.53125V76.5342H4.79287C6.74593 76.5342 8.42172 76.0344 9.77382 75.0495C10.5099 74.5272 11.0878 73.7974 11.4927 72.8815C11.895 71.9698 12.0991 70.895 12.0991 69.6863C12.0991 68.4915 11.895 67.43 11.4918 66.5317C11.0878 65.6284 10.509 64.9187 9.77214 64.4214ZM3.02047 65.2988H4.35792C5.84635 65.2988 7.07131 65.5916 8.00058 66.17C9.03148 66.7918 9.55467 67.9746 9.55467 69.6859C9.55467 71.4487 9.03023 72.6849 7.9964 73.362H7.99556C7.10602 73.95 5.88817 74.2486 4.37632 74.2486H3.02047V65.2988ZM13.8443 76.5342H16.2407V67.0114H13.8443V76.5342ZM15.0655 62.8472C14.6556 62.8472 14.3031 62.9924 14.0187 63.2767C13.7314 63.5507 13.5854 63.8982 13.5854 64.3089C13.5854 64.7188 13.7306 65.0713 14.017 65.3574C14.3031 65.6443 14.6561 65.7894 15.0655 65.7894C15.4749 65.7894 15.8275 65.6443 16.1144 65.3574C16.4013 65.0709 16.546 64.7179 16.546 64.3089C16.546 63.8986 16.4004 63.5515 16.1144 63.2788C15.9781 63.1394 15.8147 63.0292 15.6344 62.955C15.4541 62.8808 15.2605 62.8441 15.0655 62.8472ZM24.9429 67.8073C24.2202 67.1641 23.4135 66.7893 22.5411 66.7893C21.2183 66.7893 20.1188 67.2469 19.2736 68.1485C18.4179 69.0427 17.9834 70.1936 17.9834 71.5695C17.9834 72.9133 18.4108 74.0604 19.2556 74.9805C20.1067 75.8705 21.2124 76.3213 22.5411 76.3213C23.4649 76.3213 24.2591 76.0641 24.9061 75.556V75.7755C24.9061 76.5655 24.6945 77.1803 24.2775 77.6023C23.8606 78.0239 23.2826 78.2376 22.5599 78.2376C21.4537 78.2376 20.7603 77.8026 19.9164 76.6622L18.2845 78.23L18.3284 78.2919C18.681 78.7863 19.2209 79.2706 19.9335 79.7306C20.6462 80.1885 21.542 80.4215 22.5967 80.4215C24.0195 80.4215 25.17 79.9828 26.0177 79.1183C26.8696 78.2489 27.3016 77.085 27.3016 75.6597V67.011H24.9429V67.8069V67.8073ZM24.3143 73.431C23.8957 73.907 23.3579 74.1374 22.6707 74.1374C21.9836 74.1374 21.4487 73.907 21.0359 73.4319C20.6257 72.9593 20.417 72.3319 20.417 71.5691C20.417 70.7938 20.6257 70.1593 21.0364 69.683C21.4433 69.2121 21.9932 68.9728 22.6707 68.9728C23.357 68.9728 23.8953 69.2054 24.3143 69.6842C24.7313 70.1602 24.9429 70.7942 24.9429 71.5691C24.9429 72.3319 24.7313 72.9589 24.3143 73.431ZM29.3526 76.5342H31.749V67.0114H29.3526V76.5342ZM30.5738 62.8472C30.1643 62.8472 29.8114 62.9924 29.527 63.2767C29.2397 63.5507 29.0937 63.8982 29.0937 64.3089C29.0937 64.7188 29.2388 65.0713 29.5253 65.3574C29.8114 65.6443 30.1643 65.7894 30.5742 65.7894C30.7692 65.7925 30.9628 65.7557 31.1431 65.6815C31.3235 65.6072 31.4868 65.4969 31.6231 65.3574C31.9095 65.0709 32.0547 64.7179 32.0547 64.3089C32.0547 63.8986 31.9083 63.5515 31.6231 63.2788C31.4867 63.1394 31.3234 63.0293 31.1431 62.9551C30.9627 62.8809 30.7692 62.8442 30.5742 62.8472H30.5738ZM37.0013 64.4385H34.6426V67.0114H33.2721V69.1953H34.6422V73.1508C34.6422 74.3887 34.8893 75.2745 35.3774 75.7831C35.8667 76.2941 36.7353 76.553 37.9595 76.553C38.3488 76.553 38.7407 76.54 39.1238 76.5154L39.2317 76.5078V74.3256L38.4103 74.3687C37.8394 74.3687 37.4589 74.2683 37.2778 74.0713C37.0938 73.8706 37.0013 73.4465 37.0013 72.8112V69.1953H39.2317V67.0114H37.0013V64.4385ZM47.4559 67.7236C46.7294 67.1038 45.7257 66.7893 44.4723 66.7893C43.6748 66.7893 42.9291 66.9641 42.2549 67.3063C41.631 67.6228 41.0183 68.1469 40.6289 68.8327L40.6532 68.862L42.1876 70.3308C42.8195 69.3229 43.5226 68.9728 44.4543 68.9728C44.9549 68.9728 45.3702 69.1075 45.6898 69.3722C46.0076 69.6353 46.1623 69.9699 46.1623 70.3935V70.8561C45.5911 70.6789 44.9968 70.5873 44.3987 70.5842C43.206 70.5842 42.2357 70.8644 41.5151 71.4177C40.7849 71.9781 40.4152 72.779 40.4152 73.7999C40.4152 74.6945 40.7268 75.4213 41.3445 75.9616C41.9676 76.4827 42.7455 76.7475 43.6585 76.7475C44.5706 76.7475 45.4242 76.3794 46.1991 75.75V76.5342H48.5583V70.4123C48.5583 69.2535 48.1873 68.3489 47.4559 67.7236ZM43.2014 72.8953C43.4732 72.7058 43.8571 72.6101 44.3431 72.6101C44.9198 72.6101 45.5312 72.7259 46.1623 72.9547V73.889C45.6412 74.3728 44.9453 74.6188 44.0934 74.6188C43.6786 74.6188 43.3561 74.5267 43.1345 74.344C42.917 74.1658 42.8112 73.9387 42.8112 73.6514C42.8112 73.3248 42.9387 73.0772 43.2014 72.8953ZM50.4674 76.5342H52.8638V63.0133H50.4674V76.5342ZM61.5585 76.7378C57.7151 76.7378 54.5881 73.6113 54.5881 69.7679C54.5881 65.9245 57.7147 62.7975 61.5581 62.7975C65.4015 62.7975 68.5281 65.9245 68.5281 69.7679C68.5281 73.6113 65.4015 76.7378 61.5581 76.7378H61.5585ZM61.5585 65.2537C59.0693 65.2537 57.0447 67.2786 57.0447 69.7679C57.0447 72.2567 59.0693 74.2813 61.5581 74.2813C64.0469 74.2813 66.0719 72.2571 66.0719 69.7679C66.0719 67.2786 64.0469 65.2541 61.5581 65.2541L61.5585 65.2537ZM77.0726 73.1291C76.644 73.6096 76.2057 74.0261 75.8678 74.2424V74.2428C75.5365 74.4552 75.1183 74.5636 74.6253 74.5636C73.9189 74.5636 73.3514 74.3063 72.8888 73.7765C72.4288 73.2495 72.1958 72.5728 72.1958 71.7632C72.1958 70.9544 72.4259 70.2785 72.88 69.7553C73.3363 69.2284 73.9009 68.9733 74.6064 68.9733C75.3785 68.9733 76.1923 69.453 76.8895 70.2777L78.4733 68.7587C77.4403 67.4146 76.1233 66.7893 74.5512 66.7893C73.2355 66.7893 72.095 67.2686 71.1616 68.2134C70.2332 69.151 69.7622 70.3458 69.7622 71.7632C69.7622 73.1809 70.2327 74.3787 71.1603 75.323C72.0888 76.2682 73.2297 76.7475 74.5512 76.7475C76.286 76.7475 77.6866 75.9984 78.6305 74.6263L77.0726 73.1291ZM86.9074 68.3418C86.5678 67.8683 86.1053 67.4873 85.5315 67.2084C84.9602 66.9303 84.2936 66.7893 83.5517 66.7893C82.2142 66.7893 81.1193 67.2828 80.2979 68.2573C79.5 69.2234 79.096 70.4249 79.096 71.8284C79.096 73.2713 79.5393 74.4661 80.4142 75.3786C81.2841 76.2866 82.4488 76.7475 83.8754 76.7475C85.4913 76.7475 86.8175 76.0938 87.8166 74.8049L87.8706 74.7354L86.3073 73.2332C86.1626 73.408 85.9572 73.6063 85.7694 73.7827C85.5331 74.0061 85.3107 74.1788 85.0731 74.2971C84.7147 74.4753 84.3132 74.5636 83.8636 74.5636C83.1999 74.5636 82.65 74.3682 82.2297 73.9831C81.8365 73.6226 81.6065 73.1366 81.5455 72.5365H87.894L87.9157 71.662C87.9157 71.043 87.8312 70.4466 87.6652 69.8887C87.5008 69.3343 87.2447 68.8114 86.9074 68.3418ZM81.6701 70.5838C81.7855 70.128 81.9955 69.7491 82.2962 69.4546C82.6207 69.1347 83.0435 68.9728 83.5521 68.9728C84.1334 68.9728 84.583 69.138 84.8887 69.4651C85.1722 69.767 85.332 70.143 85.3654 70.5838H81.6701ZM96.1102 67.7236C95.3838 67.1038 94.3797 66.7893 93.1267 66.7893C92.3292 66.7893 91.5835 66.9641 90.9093 67.3063C90.2849 67.6228 89.6722 68.1469 89.2833 68.8327L89.3075 68.862L90.842 70.3308C91.4739 69.3229 92.1769 68.9728 93.1087 68.9728C93.6093 68.9728 94.0246 69.1075 94.3441 69.3722C94.662 69.6353 94.8167 69.9699 94.8167 70.3935V70.8561C94.2453 70.6789 93.6509 70.5873 93.0527 70.5842C91.8608 70.5842 90.8897 70.8644 90.1691 71.4177C89.4393 71.9781 89.0692 72.779 89.0692 73.7999C89.0692 74.6945 89.3812 75.4213 89.9989 75.9616C90.6216 76.4827 91.3999 76.7475 92.3124 76.7475C93.225 76.7475 94.0786 76.3794 94.8531 75.75V76.5342H97.2127V70.4123C97.2127 69.2535 96.8417 68.3489 96.1102 67.7236ZM91.8557 72.8953C92.1276 72.7058 92.5111 72.6101 92.9975 72.6101C93.5742 72.6101 94.1856 72.7259 94.8167 72.9547V73.889C94.2952 74.3728 93.5997 74.6188 92.7474 74.6188C92.3329 74.6188 92.0105 74.5267 91.7888 74.344C91.5714 74.1658 91.4655 73.9387 91.4655 73.6514C91.4655 73.3248 91.5931 73.0772 91.8557 72.8953ZM106.431 67.9106C105.763 67.167 104.826 66.7893 103.643 66.7893C102.692 66.7893 101.92 67.0624 101.343 67.6007V67.011H98.9926V76.5342H101.389V71.2822C101.389 70.5608 101.56 69.9879 101.899 69.5788C102.237 69.1715 102.701 68.9728 103.319 68.9728C103.862 68.9728 104.273 69.1502 104.577 69.5144C104.881 69.8804 105.036 70.3843 105.036 71.0142V76.5342H107.432V71.0142C107.432 69.6951 107.096 68.6512 106.431 67.911V67.9106Z" fill="#0080FF"/>
</g>
<defs>
<clipPath id="clip0_859_5394">
<rect width="107.063" height="80.2974" fill="white" transform="translate(0.53125 0.351562)"/>
</clipPath>
</defs>
</svg>
