<svg width="66" height="69" viewBox="0 0 66 69" fill="none" xmlns="http://www.w3.org/2000/svg">
<path fill-rule="evenodd" clip-rule="evenodd" d="M19.1569 2.38755C24.2613 1.12982 29.6856 0 32.9318 0C36.1779 0 41.6022 1.12982 46.7066 2.38755C51.9287 3.6666 57.1931 5.18014 60.2886 6.09679C61.5829 6.48413 62.7303 7.19449 63.5991 8.14625C64.4679 9.09802 65.0229 10.2526 65.2002 11.4773C67.7815 29.0495 62.4722 42.4338 55.4536 51.7499H48.2215C47.572 51.7499 47.0454 52.2765 47.0454 52.9261C47.0454 53.5756 47.572 54.1022 48.2215 54.1022H53.5762C52.903 54.9059 52.2038 55.6903 51.4798 56.4544H45.8693C45.2197 56.4544 44.6931 56.981 44.6931 57.6306C44.6931 58.2801 45.2197 58.8067 45.8693 58.8067H49.1036C48.2299 59.6182 47.3261 60.4028 46.3937 61.159H43.517C42.8674 61.159 42.3409 61.6856 42.3409 62.3351C42.3409 62.9101 42.7535 63.3888 43.2988 63.491C42.7935 63.8445 42.2812 64.1901 41.7622 64.5279C40.2054 65.5417 38.556 66.4331 36.8318 67.1926C35.5146 67.7554 34.0985 68.2158 32.9318 68.2158C31.765 68.2158 30.3537 67.7554 29.0317 67.1926C27.3076 66.4332 25.6581 65.5417 24.1014 64.5279C19.5992 61.5982 15.6077 58.0728 12.26 54.0696C4.36583 44.7112 -2.14054 30.565 0.663363 11.4773C0.840664 10.2526 1.39559 9.09802 2.2644 8.14625C3.1332 7.19449 4.28064 6.48413 5.5749 6.09679C10.0686 4.7615 14.5973 3.52473 19.1569 2.38755ZM36.9448 6.56091C35.9491 6.51277 34.9407 6.48869 33.9195 6.48869C32.0879 6.48869 30.2663 6.55837 28.4546 6.69773C26.6629 6.83709 24.9408 7.06604 23.2884 7.38458C21.6559 7.70311 20.1329 8.13115 18.7193 8.66868C17.3058 9.1863 16.0815 9.83333 15.0462 10.6098C14.0309 11.3663 13.2246 12.2622 12.6273 13.2974C12.05 14.3127 11.7613 15.4874 11.7613 16.8212V32.111H23.6421V26.0787H19.5256V18.9713C19.5256 17.737 19.9437 16.7316 20.7799 15.9552C21.616 15.1788 22.711 14.5716 24.0648 14.1336L24.1489 14.107C24.2372 13.9047 24.337 13.7045 24.4484 13.5065C24.986 12.5508 25.7325 11.6749 26.6882 10.8785C27.6637 10.0822 28.8184 9.36548 30.1522 8.7284C31.506 8.09133 32.9992 7.5538 34.6317 7.11581C35.3802 6.90837 36.1513 6.7234 36.9448 6.56091ZM31.4662 26.0787V32.111H48.1342V39.3975C48.1342 40.592 47.7261 41.5775 46.9098 42.3539C46.1135 43.1303 45.0484 43.7475 43.7145 44.2054C42.4005 44.6434 40.8875 44.952 39.1754 45.1312C38.6747 45.1783 38.1688 45.2184 37.6578 45.2516C38.3583 45.4536 39.1115 45.6325 39.9174 45.7881C41.6693 46.1067 43.6104 46.2659 45.7406 46.2659C47.9505 46.2659 49.9314 46.0967 51.6833 45.7583C53.0093 45.4871 54.1813 45.1531 55.1994 44.7564C55.6655 43.7956 55.8985 42.726 55.8985 41.5476V26.0787H31.4662ZM35.9713 51.9094C35.5171 51.8071 35.0705 51.6978 34.6317 51.5815C32.9992 51.1236 31.506 50.5861 30.1522 49.9689C28.8184 49.3319 27.6637 48.6152 26.6882 47.8188C25.7325 47.0225 24.986 46.1564 24.4484 45.2207C24.2622 44.8897 24.1083 44.5527 23.9866 44.2097C22.6688 43.7737 21.5999 43.1751 20.7799 42.4136C19.9437 41.6372 19.5256 40.6318 19.5256 39.3975L11.7613 41.5476C11.9007 42.9014 12.2889 44.0959 12.926 45.1312C13.563 46.1664 14.3992 47.0722 15.4344 47.8487C16.4697 48.6052 17.6642 49.2522 19.018 49.7898C20.3917 50.3074 21.8749 50.7255 23.4675 51.044C25.0602 51.3625 26.7425 51.5915 28.5143 51.7308C30.2862 51.8702 32.0879 51.9399 33.9195 51.9399C34.6035 51.9399 35.2874 51.9297 35.9713 51.9094ZM38.5215 13.203C38.9677 13.0952 39.433 12.9973 39.9174 12.9092C41.6693 12.5708 43.6104 12.4015 45.7406 12.4015C47.9505 12.4015 49.9314 12.5807 51.6833 12.9391C52.9496 13.1837 54.0756 13.4959 55.061 13.8758C55.5008 14.7612 55.7799 15.7431 55.8985 16.8212L48.1342 18.9713C48.1342 17.7768 47.7261 16.8013 46.9098 16.0448C46.1135 15.2684 45.0484 14.6611 43.7145 14.2232C42.4005 13.7653 40.8875 13.4467 39.1754 13.2675C38.9584 13.2446 38.7404 13.2231 38.5215 13.203Z" fill="url(#paint0_linear_683_26)"/>
<defs>
<linearGradient id="paint0_linear_683_26" x1="5.7096" y1="27.1405" x2="59.0547" y2="26.9147" gradientUnits="userSpaceOnUse">
<stop stop-color="#05DEEC" stop-opacity="0.74"/>
<stop offset="1" stop-color="#0E2C66" stop-opacity="0.74"/>
</linearGradient>
</defs>
</svg>
