<svg width="110" height="117" viewBox="0 0 110 117" fill="none" xmlns="http://www.w3.org/2000/svg">
<path d="M8.02626 103.188H14.2322C14.2676 103.329 14.2971 103.5 14.3206 103.7C14.3442 103.901 14.356 104.101 14.356 104.302C14.356 105.115 14.2322 105.881 13.9847 106.6C13.7372 107.319 13.3482 107.961 12.8178 108.527C12.252 109.128 11.5742 109.594 10.7845 109.924C9.99472 110.254 9.093 110.419 8.0793 110.419C7.1599 110.419 6.29354 110.254 5.48022 109.924C4.6669 109.594 3.95967 109.134 3.35852 108.545C2.75737 107.956 2.27999 107.26 1.92637 106.459C1.57276 105.645 1.39595 104.761 1.39595 103.806C1.39595 102.852 1.57276 101.974 1.92637 101.172C2.27999 100.359 2.75737 99.6574 3.35852 99.068C3.95967 98.4787 4.6669 98.019 5.48022 97.6889C6.29354 97.3589 7.1599 97.1939 8.0793 97.1939C9.10479 97.1939 10.0183 97.3707 10.8198 97.7243C11.6331 98.0779 12.3286 98.5671 12.9062 99.1918L11.2618 100.801C10.8493 100.365 10.3896 100.035 9.88274 99.8106C9.37589 99.5749 8.76885 99.457 8.06162 99.457C7.48405 99.457 6.93594 99.5631 6.4173 99.7753C5.89866 99.9756 5.44486 100.264 5.05588 100.642C4.6669 101.019 4.35454 101.479 4.11879 102.021C3.89484 102.551 3.78286 103.146 3.78286 103.806C3.78286 104.467 3.89484 105.068 4.11879 105.61C4.35454 106.14 4.6669 106.594 5.05588 106.971C5.45664 107.349 5.91635 107.643 6.43498 107.855C6.95362 108.056 7.50762 108.156 8.09698 108.156C8.76885 108.156 9.33464 108.062 9.79434 107.873C10.2658 107.673 10.6666 107.419 10.9966 107.113C11.2324 106.901 11.4328 106.635 11.5978 106.317C11.7746 105.987 11.9101 105.622 12.0044 105.221H8.02626V103.188ZM20.0614 101.19C20.7332 101.19 21.3462 101.308 21.9002 101.543C22.466 101.767 22.9492 102.086 23.35 102.498C23.7626 102.899 24.0808 103.382 24.3048 103.948C24.5405 104.514 24.6584 105.133 24.6584 105.804C24.6584 106.476 24.5405 107.095 24.3048 107.661C24.0808 108.227 23.7626 108.716 23.35 109.128C22.9492 109.529 22.466 109.847 21.9002 110.083C21.3462 110.307 20.7332 110.419 20.0614 110.419C19.3895 110.419 18.7707 110.307 18.2049 110.083C17.6509 109.847 17.1676 109.529 16.7551 109.128C16.3543 108.716 16.036 108.227 15.8003 107.661C15.5763 107.095 15.4644 106.476 15.4644 105.804C15.4644 105.133 15.5763 104.514 15.8003 103.948C16.036 103.382 16.3543 102.899 16.7551 102.498C17.1676 102.086 17.6509 101.767 18.2049 101.543C18.7707 101.308 19.3895 101.19 20.0614 101.19ZM20.0614 108.28C20.3561 108.28 20.6389 108.227 20.9101 108.121C21.1929 108.003 21.4405 107.838 21.6526 107.626C21.8648 107.413 22.0298 107.154 22.1477 106.848C22.2774 106.541 22.3422 106.193 22.3422 105.804C22.3422 105.415 22.2774 105.068 22.1477 104.761C22.0298 104.455 21.8648 104.195 21.6526 103.983C21.4405 103.771 21.1929 103.612 20.9101 103.506C20.6389 103.388 20.3561 103.329 20.0614 103.329C19.7549 103.329 19.4661 103.388 19.195 103.506C18.9239 103.612 18.6823 103.771 18.4701 103.983C18.2579 104.195 18.087 104.455 17.9574 104.761C17.8395 105.068 17.7805 105.415 17.7805 105.804C17.7805 106.193 17.8395 106.541 17.9574 106.848C18.087 107.154 18.2579 107.413 18.4701 107.626C18.6823 107.838 18.9239 108.003 19.195 108.121C19.4661 108.227 19.7549 108.28 20.0614 108.28ZM30.2486 101.19C30.9204 101.19 31.5334 101.308 32.0874 101.543C32.6532 101.767 33.1364 102.086 33.5372 102.498C33.9498 102.899 34.268 103.382 34.492 103.948C34.7277 104.514 34.8456 105.133 34.8456 105.804C34.8456 106.476 34.7277 107.095 34.492 107.661C34.268 108.227 33.9498 108.716 33.5372 109.128C33.1364 109.529 32.6532 109.847 32.0874 110.083C31.5334 110.307 30.9204 110.419 30.2486 110.419C29.5767 110.419 28.9579 110.307 28.3921 110.083C27.8381 109.847 27.3548 109.529 26.9423 109.128C26.5415 108.716 26.2232 108.227 25.9875 107.661C25.7635 107.095 25.6516 106.476 25.6516 105.804C25.6516 105.133 25.7635 104.514 25.9875 103.948C26.2232 103.382 26.5415 102.899 26.9423 102.498C27.3548 102.086 27.8381 101.767 28.3921 101.543C28.9579 101.308 29.5767 101.19 30.2486 101.19ZM30.2486 108.28C30.5432 108.28 30.8261 108.227 31.0972 108.121C31.3801 108.003 31.6277 107.838 31.8398 107.626C32.052 107.413 32.217 107.154 32.3349 106.848C32.4646 106.541 32.5294 106.193 32.5294 105.804C32.5294 105.415 32.4646 105.068 32.3349 104.761C32.217 104.455 32.052 104.195 31.8398 103.983C31.6277 103.771 31.3801 103.612 31.0972 103.506C30.8261 103.388 30.5432 103.329 30.2486 103.329C29.9421 103.329 29.6533 103.388 29.3822 103.506C29.1111 103.612 28.8695 103.771 28.6573 103.983C28.4451 104.195 28.2742 104.455 28.1446 104.761C28.0267 105.068 27.9677 105.415 27.9677 105.804C27.9677 106.193 28.0267 106.541 28.1446 106.848C28.2742 107.154 28.4451 107.413 28.6573 107.626C28.8695 107.838 29.1111 108.003 29.3822 108.121C29.6533 108.227 29.9421 108.28 30.2486 108.28ZM40.3297 114.238C39.7167 114.238 39.1686 114.156 38.6854 113.991C38.2139 113.837 37.8013 113.631 37.4477 113.372C37.0941 113.124 36.7994 112.847 36.5637 112.541C36.3279 112.234 36.157 111.928 36.0509 111.621L38.261 110.737C38.426 111.197 38.6971 111.551 39.0743 111.798C39.4515 112.058 39.87 112.187 40.3297 112.187C41.0605 112.187 41.6381 111.957 42.0624 111.498C42.4867 111.05 42.6989 110.419 42.6989 109.606V109.005H42.5575C42.2864 109.382 41.9268 109.682 41.4789 109.906C41.0428 110.119 40.5242 110.225 39.923 110.225C39.4044 110.225 38.8975 110.119 38.4025 109.906C37.9192 109.694 37.489 109.394 37.1118 109.005C36.7346 108.604 36.4281 108.127 36.1924 107.573C35.9566 107.019 35.8387 106.4 35.8387 105.716C35.8387 105.032 35.9566 104.414 36.1924 103.86C36.4281 103.294 36.7346 102.816 37.1118 102.427C37.489 102.027 37.9192 101.72 38.4025 101.508C38.8975 101.296 39.4044 101.19 39.923 101.19C40.5242 101.19 41.0428 101.302 41.4789 101.526C41.9268 101.738 42.2864 102.033 42.5575 102.41H42.6989V101.473H44.909V109.517C44.909 110.248 44.797 110.902 44.5731 111.48C44.3491 112.069 44.0368 112.564 43.636 112.965C43.2352 113.378 42.752 113.69 42.1862 113.902C41.6322 114.126 41.0133 114.238 40.3297 114.238ZM40.4181 108.138C40.701 108.138 40.978 108.085 41.2491 107.979C41.532 107.873 41.7795 107.72 41.9917 107.519C42.2038 107.307 42.3748 107.054 42.5044 106.759C42.6341 106.453 42.6989 106.105 42.6989 105.716C42.6989 105.327 42.6341 104.979 42.5044 104.673C42.3748 104.366 42.2038 104.113 41.9917 103.913C41.7795 103.7 41.532 103.541 41.2491 103.435C40.978 103.329 40.701 103.276 40.4181 103.276C40.1352 103.276 39.8582 103.329 39.5871 103.435C39.316 103.541 39.0743 103.7 38.8622 103.913C38.65 104.125 38.4791 104.384 38.3494 104.691C38.2198 104.985 38.1549 105.327 38.1549 105.716C38.1549 106.105 38.2198 106.453 38.3494 106.759C38.4791 107.054 38.65 107.307 38.8622 107.519C39.0743 107.72 39.316 107.873 39.5871 107.979C39.8582 108.085 40.1352 108.138 40.4181 108.138ZM46.8836 110.136V97.4768H49.1998V110.136H46.8836ZM59.3005 108.05C58.8997 108.757 58.3575 109.329 57.6739 109.765C57.002 110.201 56.1769 110.419 55.1986 110.419C54.5385 110.419 53.9255 110.307 53.3598 110.083C52.8058 109.847 52.3225 109.523 51.9099 109.111C51.4974 108.698 51.1732 108.215 50.9375 107.661C50.7135 107.095 50.6015 106.476 50.6015 105.804C50.6015 105.18 50.7135 104.59 50.9375 104.036C51.1614 103.471 51.4738 102.981 51.8746 102.569C52.2753 102.144 52.7468 101.809 53.289 101.561C53.843 101.313 54.4501 101.19 55.1102 101.19C55.8056 101.19 56.4244 101.308 56.9666 101.543C57.5089 101.767 57.9627 102.086 58.3281 102.498C58.6935 102.899 58.9705 103.376 59.1591 103.93C59.3477 104.484 59.442 105.085 59.442 105.734C59.442 105.816 59.442 105.887 59.442 105.946C59.4302 106.017 59.4243 106.081 59.4243 106.14C59.4125 106.199 59.4066 106.264 59.4066 106.335H52.8824C52.9295 106.688 53.0238 106.995 53.1653 107.254C53.3185 107.502 53.5012 107.714 53.7134 107.891C53.9373 108.056 54.179 108.18 54.4383 108.262C54.6976 108.333 54.9628 108.368 55.2339 108.368C55.7643 108.368 56.2005 108.25 56.5423 108.015C56.8959 107.767 57.1729 107.461 57.3733 107.095L59.3005 108.05ZM57.1965 104.691C57.1847 104.537 57.1317 104.366 57.0374 104.178C56.9549 103.989 56.8252 103.812 56.6484 103.647C56.4834 103.482 56.2712 103.347 56.0119 103.241C55.7643 103.135 55.4638 103.082 55.1102 103.082C54.6151 103.082 54.179 103.223 53.8018 103.506C53.4246 103.789 53.1594 104.184 53.0061 104.691H57.1965ZM71.0475 110.419C69.1733 110.419 67.6056 109.789 66.3444 108.527C65.0949 107.266 64.4702 105.692 64.4702 103.806C64.4702 101.921 65.0949 100.353 66.3444 99.1034C67.5938 97.8304 69.1615 97.1939 71.0475 97.1939C72.957 97.1939 74.507 97.8834 75.6975 99.2625L74.5306 100.394C73.623 99.2979 72.462 98.7498 71.0475 98.7498C69.6448 98.7498 68.472 99.2213 67.529 100.164C66.5978 101.095 66.1322 102.31 66.1322 103.806C66.1322 105.303 66.5978 106.518 67.529 107.449C68.472 108.392 69.6448 108.863 71.0475 108.863C72.5209 108.863 73.7998 108.244 74.8842 107.007L76.0688 108.156C75.4677 108.875 74.731 109.435 73.8587 109.836C72.9865 110.225 72.0494 110.419 71.0475 110.419ZM79.1409 97.4768V110.136H77.5143V97.4768H79.1409ZM80.5415 105.804C80.5415 104.472 80.96 103.37 81.7969 102.498C82.6456 101.626 83.7123 101.19 84.9971 101.19C86.2819 101.19 87.3428 101.626 88.1797 102.498C89.0283 103.37 89.4527 104.472 89.4527 105.804C89.4527 107.148 89.0283 108.25 88.1797 109.111C87.3428 109.983 86.2819 110.419 84.9971 110.419C83.7123 110.419 82.6456 109.983 81.7969 109.111C80.96 108.238 80.5415 107.136 80.5415 105.804ZM82.1682 105.804C82.1682 106.736 82.4393 107.49 82.9815 108.068C83.5237 108.645 84.1956 108.934 84.9971 108.934C85.7986 108.934 86.4705 108.645 87.0127 108.068C87.5549 107.49 87.826 106.736 87.826 105.804C87.826 104.885 87.5549 104.137 87.0127 103.559C86.4587 102.97 85.7869 102.675 84.9971 102.675C84.2074 102.675 83.5355 102.97 82.9815 103.559C82.4393 104.137 82.1682 104.885 82.1682 105.804ZM98.4467 110.136H96.8908V108.934H96.8201C96.5725 109.358 96.1894 109.712 95.6708 109.995C95.1639 110.278 94.6335 110.419 94.0795 110.419C93.0187 110.419 92.1995 110.119 91.6219 109.517C91.0561 108.904 90.7732 108.038 90.7732 106.918V101.473H92.3998V106.812C92.4352 108.227 93.1483 108.934 94.5392 108.934C95.1875 108.934 95.7297 108.675 96.1659 108.156C96.602 107.626 96.8201 106.995 96.8201 106.264V101.473H98.4467V110.136ZM104.23 108.934C105.032 108.934 105.686 108.645 106.193 108.068C106.723 107.49 106.988 106.736 106.988 105.804C106.988 104.897 106.723 104.148 106.193 103.559C105.674 102.97 105.02 102.675 104.23 102.675C103.452 102.675 102.798 102.97 102.268 103.559C101.737 104.148 101.472 104.897 101.472 105.804C101.472 106.724 101.737 107.472 102.268 108.05C102.798 108.639 103.452 108.934 104.23 108.934ZM103.965 110.419C102.833 110.419 101.861 109.971 101.048 109.075C100.246 108.168 99.8454 107.077 99.8454 105.804C99.8454 104.531 100.246 103.441 101.048 102.533C101.861 101.638 102.833 101.19 103.965 101.19C104.602 101.19 105.179 101.325 105.698 101.596C106.228 101.867 106.635 102.227 106.918 102.675H106.988L106.918 101.473V97.4768H108.544V110.136H106.988V108.934H106.918C106.635 109.382 106.228 109.741 105.698 110.012C105.179 110.284 104.602 110.419 103.965 110.419Z" fill="#322323"/>
<path d="M68.6424 22.9674H71.7516L80.6119 14.107L81.0367 10.3437C75.9602 5.87126 69.8281 2.7657 63.2188 1.31993C56.6094 -0.125837 49.7408 0.135838 43.2606 2.08027C36.7804 4.0247 30.9024 7.5878 26.1809 12.4335C21.4593 17.2792 18.05 23.2477 16.2744 29.7762C17.2621 29.373 18.3556 29.3087 19.3836 29.5935L37.1044 26.667C37.1044 26.667 38.0091 25.1761 38.4721 25.2695C42.2702 21.0994 47.5183 18.5384 53.1425 18.1104C58.7668 17.6825 64.342 19.42 68.7273 22.9674H68.6424Z" fill="#EA4335"/>
<path d="M93.2351 29.7764C91.1965 22.2809 87.0144 15.5435 81.2018 10.3906L68.765 22.8274C71.3582 24.9439 73.4363 27.6222 74.8425 30.6597C76.2487 33.6972 76.9461 37.0147 76.8821 40.3613V42.57C79.8178 42.57 82.6332 43.7362 84.7091 45.8121C86.785 47.8879 87.9512 50.7034 87.9512 53.6391C87.9512 56.5748 86.785 59.3903 84.7091 61.4661C82.6332 63.542 79.8178 64.7082 76.8821 64.7082H54.7439L52.5352 66.9466V80.2245L54.7439 82.4289H76.8821C83.0645 82.4781 89.0986 80.5356 94.0913 76.889C99.0841 73.2425 102.77 68.0855 104.605 62.1812C106.439 56.2769 106.324 49.9389 104.276 44.1052C102.228 38.2715 98.3571 33.2519 93.2351 29.7891V29.7764Z" fill="#4285F4"/>
<path d="M32.5769 82.2931H54.7151V64.5724H32.5769C30.9996 64.5699 29.4412 64.2295 28.0065 63.5742L24.8973 64.5384L15.9775 73.3988L15.2002 76.508C20.2032 80.2862 26.3076 82.3185 32.5769 82.2931Z" fill="#34A853"/>
<path d="M32.5763 24.8024C26.5779 24.8375 20.7402 26.7454 15.8788 30.2596C11.0174 33.7737 7.37511 38.7186 5.46068 44.4034C3.54624 50.0883 3.4553 56.2291 5.20058 61.9682C6.94585 67.7072 10.4402 72.7577 15.1954 76.4143L28.0357 63.574C26.4035 62.8368 24.9746 61.7146 23.8716 60.3036C22.7685 58.8927 22.0243 57.2352 21.7028 55.4733C21.3813 53.7115 21.4921 51.898 22.0256 50.1884C22.5592 48.4788 23.4996 46.9242 24.7662 45.658C26.0327 44.3918 27.5876 43.4518 29.2974 42.9187C31.0071 42.3857 32.8207 42.2754 34.5824 42.5975C36.3442 42.9195 38.0015 43.6642 39.4121 44.7676C40.8227 45.8711 41.9445 47.3003 42.6812 48.9327L55.5215 36.0881C52.8257 32.5656 49.3519 29.7141 45.3715 27.7563C41.3912 25.7986 37.0121 24.7876 32.5763 24.8024Z" fill="#FBBC05"/>
</svg>
