<svg width="97" height="112" viewBox="0 0 97 112" fill="none" xmlns="http://www.w3.org/2000/svg">
<path d="M48.4669 5.95459C44.7225 5.95459 41.0148 6.6921 37.5555 8.125C34.0962 9.5579 30.953 11.6581 28.3053 14.3058C22.9581 19.653 19.9541 26.9053 19.9541 34.4674C19.9541 47.07 28.1373 57.7623 39.4569 61.5545C40.8825 61.7826 41.3387 60.8987 41.3387 60.1289V55.3102C33.4407 57.021 31.7584 51.4895 31.7584 51.4895C30.4468 48.182 28.5935 47.2981 28.5935 47.2981C25.9988 45.5303 28.7931 45.5874 28.7931 45.5874C31.6443 45.787 33.1555 48.5242 33.1555 48.5242C35.6361 52.8581 39.8275 51.5751 41.4527 50.8908C41.7094 49.0374 42.4507 47.7829 43.2491 47.07C36.9192 46.3572 30.2757 43.9051 30.2757 33.0417C30.2757 29.8768 31.3592 27.3392 33.2125 25.3148C32.9274 24.602 31.9295 21.6366 33.4977 17.7874C33.4977 17.7874 35.8928 17.0176 41.3387 20.6957C43.5912 20.0684 46.0433 19.7548 48.4669 19.7548C50.8905 19.7548 53.3426 20.0684 55.5951 20.6957C61.041 17.0176 63.4361 17.7874 63.4361 17.7874C65.0043 21.6366 64.0064 24.602 63.7212 25.3148C65.5746 27.3392 66.6581 29.8768 66.6581 33.0417C66.6581 43.9336 59.9861 46.3287 53.6277 47.0415C54.6542 47.9254 55.5951 49.6647 55.5951 52.3164V60.1289C55.5951 60.8987 56.0513 61.8111 57.5054 61.5545C68.825 57.7338 76.9797 47.07 76.9797 34.4674C76.9797 30.723 76.2422 27.0153 74.8093 23.556C73.3764 20.0967 71.2761 16.9535 68.6285 14.3058C65.9808 11.6581 62.8376 9.5579 59.3783 8.125C55.9189 6.6921 52.2112 5.95459 48.4669 5.95459Z" fill="black"/>
<g clip-path="url(#clip0_1267_1235)">
<path fill-rule="evenodd" clip-rule="evenodd" d="M39.9782 102.962H39.9354C39.9547 102.962 39.9675 102.983 39.9867 102.986H39.9996L39.9782 102.964V102.962ZM39.9867 102.986C39.7879 102.988 39.2875 103.093 38.7593 103.093C37.0913 103.093 36.5139 102.323 36.5139 101.318V94.6221H39.914C40.1065 94.6221 40.2562 94.451 40.2562 94.2158V90.5804C40.2562 90.3879 40.0851 90.2169 39.914 90.2169H36.5139V85.7047C36.5139 85.5336 36.407 85.4267 36.2145 85.4267H31.5954C31.403 85.4267 31.296 85.5336 31.296 85.7047V90.3452C31.296 90.3452 28.9651 90.9226 28.8154 90.9439C28.6444 90.9867 28.5374 91.1364 28.5374 91.3075V94.2158C28.5374 94.451 28.7085 94.6221 28.901 94.6221H31.2747V101.636C31.2747 106.854 34.91 107.389 37.3907 107.389C38.524 107.389 39.8927 107.025 40.1065 106.918C40.2348 106.875 40.299 106.726 40.299 106.576V103.368C40.3019 103.277 40.272 103.188 40.2146 103.118C40.1573 103.047 40.0764 102.999 39.9867 102.983V102.986ZM90.6597 98.2789C90.6597 94.4082 89.0986 93.895 87.452 94.0661C86.1689 94.1516 85.1425 94.7932 85.1425 94.7932V102.321C85.1425 102.321 86.1903 103.048 87.7514 103.09C89.954 103.155 90.6597 102.363 90.6597 98.2789ZM95.8561 97.9367C95.8561 105.272 93.4825 107.367 89.3338 107.367C85.8268 107.367 83.9449 105.592 83.9449 105.592C83.9449 105.592 83.8594 106.576 83.7525 106.704C83.6883 106.833 83.5814 106.875 83.4531 106.875H80.2882C80.0743 106.875 79.8818 106.704 79.8818 106.512L79.9246 82.7536C79.9246 82.5612 80.0957 82.3901 80.2882 82.3901H84.8431C85.0355 82.3901 85.2066 82.5612 85.2066 82.7536V90.8156C85.2066 90.8156 86.9602 89.6822 89.5263 89.6822L89.5049 89.6395C92.0711 89.6395 95.8561 90.6018 95.8561 97.9367ZM77.2088 90.2169H72.718C72.4828 90.2169 72.3545 90.3879 72.3545 90.6232V102.256C72.3545 102.256 71.1783 103.09 69.5745 103.09C67.9706 103.09 67.5002 102.363 67.5002 100.759V90.6018C67.5002 90.4093 67.3291 90.2382 67.1366 90.2382H62.5603C62.3679 90.2382 62.1968 90.4093 62.1968 90.6018V101.529C62.1968 106.234 64.8271 107.41 68.4411 107.41C71.4135 107.41 73.83 105.763 73.83 105.763C73.83 105.763 73.9369 106.597 74.0011 106.726C74.0438 106.833 74.1935 106.918 74.3432 106.918H77.2088C77.444 106.918 77.5723 106.747 77.5723 106.555L77.6151 90.5804C77.6151 90.3879 77.444 90.2169 77.2088 90.2169ZM26.5273 90.1955H21.9724C21.7799 90.1955 21.6088 90.3879 21.6088 90.6232V106.319C21.6088 106.747 21.8868 106.897 22.2504 106.897H26.3562C26.7839 106.897 26.8908 106.704 26.8908 106.319V90.559C26.8908 90.3666 26.7197 90.1955 26.5273 90.1955ZM24.2819 82.9675C22.6353 82.9675 21.3308 84.2719 21.3308 85.9186C21.3308 87.5652 22.6353 88.8696 24.2819 88.8696C25.8857 88.8696 27.1902 87.5652 27.1902 85.9186C27.1902 84.2719 25.8857 82.9675 24.2819 82.9675ZM59.5451 82.4329H55.0329C54.8405 82.4329 54.6694 82.6039 54.6694 82.7964V91.5427H47.5911V82.7964C47.5911 82.6039 47.42 82.4329 47.2276 82.4329H42.6727C42.4802 82.4329 42.3091 82.6039 42.3091 82.7964V106.555C42.3091 106.747 42.5016 106.918 42.6727 106.918H47.2276C47.42 106.918 47.5911 106.747 47.5911 106.555V96.397H54.6694L54.6266 106.555C54.6266 106.747 54.7977 106.918 54.9902 106.918H59.5451C59.7376 106.918 59.9086 106.747 59.9086 106.555V82.7964C59.9086 82.6039 59.7376 82.4329 59.5451 82.4329ZM19.1924 92.9541V105.229C19.1924 105.314 19.171 105.464 19.0641 105.507C19.0641 105.507 16.391 107.41 11.9858 107.41C6.66099 107.41 0.352539 105.742 0.352539 94.7504C0.352539 83.7587 5.86976 81.4919 11.2587 81.5133C15.9205 81.5133 17.8024 82.5612 18.1018 82.7536C18.1873 82.8606 18.2301 82.9461 18.2301 83.053L17.3319 86.8595C17.3319 87.0519 17.1394 87.2872 16.9042 87.223C16.1344 86.9878 14.9796 86.5173 12.2638 86.5173C9.12022 86.5173 5.74146 87.4155 5.74146 94.4938C5.74146 101.572 8.94915 102.406 11.2587 102.406C13.2261 102.406 13.9318 102.171 13.9318 102.171V97.2524H10.7882C10.553 97.2524 10.3819 97.0813 10.3819 96.8889V92.9541C10.3819 92.7616 10.553 92.5906 10.7882 92.5906H18.7861C19.0213 92.5906 19.1924 92.7616 19.1924 92.9541Z" fill="black"/>
</g>
<defs>
<clipPath id="clip0_1267_1235">
<rect width="96.2307" height="34.2153" fill="white" transform="translate(0.352539 77.2358)"/>
</clipPath>
</defs>
</svg>
