<svg width="101" height="115" viewBox="0 0 101 115" fill="none" xmlns="http://www.w3.org/2000/svg">
<path d="M50.5093 6.26904C46.6559 6.26904 42.8402 7.02803 39.2801 8.50266C35.72 9.9773 32.4852 12.1387 29.7605 14.8635C24.2575 20.3664 21.166 27.83 21.166 35.6123C21.166 48.582 29.5875 59.5857 41.2368 63.4884C42.704 63.7231 43.1735 62.8135 43.1735 62.0212V57.0622C35.0454 58.8228 33.3141 53.1302 33.3141 53.1302C31.9643 49.7264 30.057 48.8168 30.057 48.8168C27.3868 46.9975 30.2624 47.0562 30.2624 47.0562C33.1967 47.2616 34.7519 50.0785 34.7519 50.0785C37.3048 54.5387 41.6183 53.2182 43.2908 52.514C43.5549 50.6067 44.3178 49.3156 45.1394 48.582C38.6252 47.8484 31.7883 45.3249 31.7883 34.1451C31.7883 30.888 32.9033 28.2765 34.8106 26.1931C34.5172 25.4595 33.4902 22.4078 35.1041 18.4465C35.1041 18.4465 37.5689 17.6542 43.1735 21.4395C45.4916 20.794 48.0151 20.4712 50.5093 20.4712C53.0034 20.4712 55.527 20.794 57.8451 21.4395C63.4496 17.6542 65.9145 18.4465 65.9145 18.4465C67.5283 22.4078 66.5013 25.4595 66.2079 26.1931C68.1152 28.2765 69.2303 30.888 69.2303 34.1451C69.2303 45.3542 62.3639 47.8191 55.8204 48.5527C56.8767 49.4623 57.8451 51.2522 57.8451 53.9812V62.0212C57.8451 62.8135 58.3146 63.7525 59.8111 63.4884C71.4603 59.5564 79.8525 48.582 79.8525 35.6123C79.8525 31.7589 79.0935 27.9432 77.6189 24.3831C76.1443 20.823 73.9828 17.5883 71.2581 14.8635C68.5333 12.1387 65.2985 9.9773 61.7384 8.50266C58.1784 7.02803 54.3627 6.26904 50.5093 6.26904Z" fill="black"/>
<g clip-path="url(#clip0_859_5418)">
<path fill-rule="evenodd" clip-rule="evenodd" d="M41.7729 106.102H41.7289C41.7487 106.102 41.7619 106.124 41.7817 106.126H41.7949L41.7729 106.104V106.102ZM41.7817 106.126C41.5771 106.128 41.0621 106.236 40.5185 106.236C38.8019 106.236 38.2077 105.444 38.2077 104.41V97.519H41.7069C41.905 97.519 42.059 97.343 42.059 97.1009V93.3596C42.059 93.1616 41.883 92.9855 41.7069 92.9855H38.2077V88.3419C38.2077 88.1659 38.0977 88.0558 37.8996 88.0558H33.146C32.948 88.0558 32.8379 88.1659 32.8379 88.3419V93.1175C32.8379 93.1175 30.4391 93.7117 30.2851 93.7338C30.109 93.7778 29.999 93.9318 29.999 94.1079V97.1009C29.999 97.343 30.175 97.519 30.3731 97.519H32.8159V104.737C32.8159 110.107 36.5572 110.657 39.11 110.657C40.2764 110.657 41.6849 110.283 41.905 110.173C42.037 110.129 42.1031 109.975 42.1031 109.821V106.52C42.1061 106.426 42.0753 106.335 42.0163 106.262C41.9572 106.189 41.874 106.14 41.7817 106.124V106.126ZM93.9306 101.282C93.9306 97.299 92.324 96.7708 90.6294 96.9468C89.309 97.0349 88.2526 97.6951 88.2526 97.6951V105.442C88.2526 105.442 89.331 106.19 90.9375 106.234C93.2043 106.3 93.9306 105.486 93.9306 101.282ZM99.2784 100.93C99.2784 108.479 96.8355 110.635 92.5661 110.635C88.9569 110.635 87.0202 108.809 87.0202 108.809C87.0202 108.809 86.9322 109.821 86.8222 109.953C86.7561 110.085 86.6461 110.129 86.5141 110.129H83.257C83.0369 110.129 82.8388 109.953 82.8388 109.755L82.8828 85.3049C82.8828 85.1068 83.0589 84.9308 83.257 84.9308H87.9445C88.1426 84.9308 88.3187 85.1068 88.3187 85.3049V93.6017C88.3187 93.6017 90.1233 92.4353 92.7642 92.4353L92.7422 92.3913C95.383 92.3913 99.2784 93.3816 99.2784 100.93ZM80.0879 92.9855H75.4663C75.2242 92.9855 75.0922 93.1616 75.0922 93.4036V105.376C75.0922 105.376 73.8818 106.234 72.2312 106.234C70.5807 106.234 70.0965 105.486 70.0965 103.835V93.3816C70.0965 93.1836 69.9204 93.0075 69.7224 93.0075H65.0128C64.8147 93.0075 64.6387 93.1836 64.6387 93.3816V104.627C64.6387 109.469 67.3456 110.679 71.0648 110.679C74.1239 110.679 76.6107 108.985 76.6107 108.985C76.6107 108.985 76.7207 109.843 76.7868 109.975C76.8308 110.085 76.9848 110.173 77.1389 110.173H80.0879C80.33 110.173 80.462 109.997 80.462 109.799L80.506 93.3596C80.506 93.1616 80.33 92.9855 80.0879 92.9855ZM27.9303 92.9635H23.2427C23.0446 92.9635 22.8686 93.1616 22.8686 93.4036V109.557C22.8686 109.997 23.1546 110.151 23.5288 110.151H27.7542C28.1944 110.151 28.3044 109.953 28.3044 109.557V93.3376C28.3044 93.1396 28.1283 92.9635 27.9303 92.9635ZM25.6195 85.525C23.9249 85.525 22.5825 86.8674 22.5825 88.562C22.5825 90.2566 23.9249 91.599 25.6195 91.599C27.27 91.599 28.6125 90.2566 28.6125 88.562C28.6125 86.8674 27.27 85.525 25.6195 85.525ZM61.9097 84.9748H57.2662C57.0681 84.9748 56.892 85.1509 56.892 85.3489V94.35H49.6076V85.3489C49.6076 85.1509 49.4315 84.9748 49.2335 84.9748H44.5459C44.3478 84.9748 44.1718 85.1509 44.1718 85.3489V109.799C44.1718 109.997 44.3698 110.173 44.5459 110.173H49.2335C49.4315 110.173 49.6076 109.997 49.6076 109.799V99.3456H56.892L56.848 109.799C56.848 109.997 57.0241 110.173 57.2222 110.173H61.9097C62.1078 110.173 62.2839 109.997 62.2839 109.799V85.3489C62.2839 85.1509 62.1078 84.9748 61.9097 84.9748ZM20.3817 95.8025V108.435C20.3817 108.523 20.3597 108.677 20.2497 108.721C20.2497 108.721 17.4987 110.679 12.9652 110.679C7.48536 110.679 0.993164 108.963 0.993164 97.6511C0.993164 86.3393 6.67108 84.0065 12.217 84.0285C17.0146 84.0285 18.9512 85.1068 19.2593 85.3049C19.3474 85.4149 19.3914 85.503 19.3914 85.613L18.4671 89.5303C18.4671 89.7284 18.269 89.9705 18.0269 89.9045C17.2346 89.6624 16.0462 89.1782 13.2513 89.1782C10.0162 89.1782 6.53904 90.1025 6.53904 97.387C6.53904 104.671 9.84015 105.53 12.217 105.53C14.2416 105.53 14.9679 105.288 14.9679 105.288V100.226H11.7328C11.4907 100.226 11.3147 100.05 11.3147 99.8518V95.8025C11.3147 95.6044 11.4907 95.4283 11.7328 95.4283H19.9636C20.2057 95.4283 20.3817 95.6044 20.3817 95.8025Z" fill="black"/>
</g>
<defs>
<clipPath id="clip0_859_5418">
<rect width="99.0335" height="35.2119" fill="white" transform="translate(0.993164 79.6265)"/>
</clipPath>
</defs>
</svg>
