<svg width="107" height="113" viewBox="0 0 107 113" fill="none" xmlns="http://www.w3.org/2000/svg">
<path d="M7.30397 100.372H13.3343C13.3687 100.51 13.3973 100.676 13.4202 100.871C13.4431 101.065 13.4546 101.26 13.4546 101.455C13.4546 102.245 13.3343 102.99 13.0938 103.688C12.8532 104.387 12.4753 105.011 11.9599 105.561C11.4101 106.145 10.7515 106.597 9.98411 106.918C9.21672 107.239 8.34052 107.399 7.35551 107.399C6.46213 107.399 5.62028 107.239 4.82998 106.918C4.03968 106.597 3.35247 106.151 2.76833 105.578C2.1842 105.005 1.72033 104.33 1.37672 103.551C1.03311 102.76 0.861304 101.901 0.861304 100.974C0.861304 100.046 1.03311 99.1926 1.37672 98.4138C1.72033 97.6235 2.1842 96.942 2.76833 96.3693C3.35247 95.7966 4.03968 95.3499 4.82998 95.0292C5.62028 94.7085 6.46213 94.5482 7.35551 94.5482C8.35197 94.5482 9.23963 94.72 10.0185 95.0636C10.8088 95.4072 11.4845 95.8825 12.0458 96.4896L10.448 98.053C10.0471 97.6292 9.60042 97.3085 9.10791 97.0909C8.61541 96.8618 8.02555 96.7473 7.33833 96.7473C6.7771 96.7473 6.24451 96.8504 5.74055 97.0565C5.23659 97.2512 4.79562 97.5319 4.41765 97.8984C4.03968 98.2649 3.73616 98.7116 3.50709 99.2384C3.28947 99.7539 3.18066 100.332 3.18066 100.974C3.18066 101.615 3.28947 102.199 3.50709 102.726C3.73616 103.241 4.03968 103.682 4.41765 104.049C4.80708 104.415 5.25377 104.702 5.75773 104.908C6.26169 105.103 6.80001 105.2 7.37269 105.2C8.02554 105.2 8.57532 105.108 9.02201 104.925C9.48016 104.73 9.86958 104.484 10.1903 104.186C10.4194 103.98 10.6141 103.723 10.7744 103.413C10.9462 103.093 11.0779 102.738 11.1696 102.348H7.30397V100.372ZM18.9985 98.431C19.6513 98.431 20.2469 98.5455 20.7852 98.7746C21.335 98.9922 21.8046 99.3014 22.194 99.7023C22.5949 100.092 22.9042 100.561 23.1218 101.111C23.3508 101.661 23.4654 102.262 23.4654 102.915C23.4654 103.568 23.3508 104.169 23.1218 104.719C22.9042 105.269 22.5949 105.744 22.194 106.145C21.8046 106.534 21.335 106.844 20.7852 107.073C20.2469 107.29 19.6513 107.399 18.9985 107.399C18.3456 107.399 17.7443 107.29 17.1945 107.073C16.6562 106.844 16.1866 106.534 15.7857 106.145C15.3963 105.744 15.0871 105.269 14.858 104.719C14.6404 104.169 14.5316 103.568 14.5316 102.915C14.5316 102.262 14.6404 101.661 14.858 101.111C15.0871 100.561 15.3963 100.092 15.7857 99.7023C16.1866 99.3014 16.6562 98.9922 17.1945 98.7746C17.7443 98.5455 18.3456 98.431 18.9985 98.431ZM18.9985 105.32C19.2848 105.32 19.5597 105.269 19.8231 105.166C20.098 105.051 20.3385 104.891 20.5447 104.685C20.7509 104.478 20.9112 104.227 21.0258 103.929C21.1518 103.631 21.2147 103.293 21.2147 102.915C21.2147 102.537 21.1518 102.199 21.0258 101.901C20.9112 101.604 20.7509 101.352 20.5447 101.145C20.3385 100.939 20.098 100.785 19.8231 100.682C19.5597 100.567 19.2848 100.51 18.9985 100.51C18.7007 100.51 18.4201 100.567 18.1566 100.682C17.8932 100.785 17.6584 100.939 17.4522 101.145C17.2461 101.352 17.08 101.604 16.954 101.901C16.8395 102.199 16.7822 102.537 16.7822 102.915C16.7822 103.293 16.8395 103.631 16.954 103.929C17.08 104.227 17.2461 104.478 17.4522 104.685C17.6584 104.891 17.8932 105.051 18.1566 105.166C18.4201 105.269 18.7007 105.32 18.9985 105.32ZM28.8974 98.431C29.5502 98.431 30.1458 98.5455 30.6841 98.7746C31.2339 98.9922 31.7035 99.3014 32.0929 99.7023C32.4938 100.092 32.803 100.561 33.0207 101.111C33.2497 101.661 33.3643 102.262 33.3643 102.915C33.3643 103.568 33.2497 104.169 33.0207 104.719C32.803 105.269 32.4938 105.744 32.0929 106.145C31.7035 106.534 31.2339 106.844 30.6841 107.073C30.1458 107.29 29.5502 107.399 28.8974 107.399C28.2445 107.399 27.6432 107.29 27.0934 107.073C26.5551 106.844 26.0855 106.534 25.6846 106.145C25.2952 105.744 24.9859 105.269 24.7569 104.719C24.5393 104.169 24.4304 103.568 24.4304 102.915C24.4304 102.262 24.5393 101.661 24.7569 101.111C24.9859 100.561 25.2952 100.092 25.6846 99.7023C26.0855 99.3014 26.5551 98.9922 27.0934 98.7746C27.6432 98.5455 28.2445 98.431 28.8974 98.431ZM28.8974 105.32C29.1837 105.32 29.4586 105.269 29.722 105.166C29.9969 105.051 30.2374 104.891 30.4436 104.685C30.6498 104.478 30.8101 104.227 30.9246 103.929C31.0506 103.631 31.1136 103.293 31.1136 102.915C31.1136 102.537 31.0506 102.199 30.9246 101.901C30.8101 101.604 30.6498 101.352 30.4436 101.145C30.2374 100.939 29.9969 100.785 29.722 100.682C29.4586 100.567 29.1837 100.51 28.8974 100.51C28.5996 100.51 28.3189 100.567 28.0555 100.682C27.7921 100.785 27.5573 100.939 27.3511 101.145C27.145 101.352 26.9789 101.604 26.8529 101.901C26.7383 102.199 26.6811 102.537 26.6811 102.915C26.6811 103.293 26.7383 103.631 26.8529 103.929C26.9789 104.227 27.145 104.478 27.3511 104.685C27.5573 104.891 27.7921 105.051 28.0555 105.166C28.3189 105.269 28.5996 105.32 28.8974 105.32ZM38.6932 111.11C38.0976 111.11 37.565 111.03 37.0954 110.87C36.6372 110.721 36.2364 110.52 35.8927 110.268C35.5491 110.028 35.2628 109.759 35.0337 109.461C34.8047 109.163 34.6386 108.865 34.5355 108.567L36.683 107.708C36.8434 108.155 37.1068 108.499 37.4733 108.739C37.8399 108.991 38.2465 109.117 38.6932 109.117C39.4033 109.117 39.9645 108.894 40.3768 108.447C40.7892 108.012 40.9953 107.399 40.9953 106.609V106.025H40.8579C40.5945 106.391 40.2451 106.683 39.8099 106.901C39.3861 107.107 38.8821 107.21 38.298 107.21C37.794 107.21 37.3015 107.107 36.8205 106.901C36.3509 106.695 35.9328 106.403 35.5663 106.025C35.1998 105.635 34.902 105.171 34.6729 104.633C34.4439 104.095 34.3293 103.493 34.3293 102.829C34.3293 102.165 34.4439 101.564 34.6729 101.025C34.902 100.475 35.1998 100.012 35.5663 99.6336C35.9328 99.2442 36.3509 98.9464 36.8205 98.7402C37.3015 98.5341 37.794 98.431 38.298 98.431C38.8821 98.431 39.3861 98.5398 39.8099 98.7574C40.2451 98.9636 40.5945 99.2499 40.8579 99.6164H40.9953V98.7059H43.1429V106.523C43.1429 107.233 43.0341 107.869 42.8165 108.43C42.5988 109.003 42.2953 109.484 41.9059 109.873C41.5165 110.274 41.0469 110.578 40.4971 110.784C39.9588 111.001 39.3575 111.11 38.6932 111.11ZM38.7791 105.183C39.0539 105.183 39.3231 105.131 39.5865 105.028C39.8614 104.925 40.102 104.776 40.3081 104.582C40.5143 104.375 40.6804 104.129 40.8064 103.843C40.9323 103.545 40.9953 103.207 40.9953 102.829C40.9953 102.451 40.9323 102.113 40.8064 101.816C40.6804 101.518 40.5143 101.271 40.3081 101.077C40.102 100.871 39.8614 100.716 39.5865 100.613C39.3231 100.51 39.0539 100.458 38.7791 100.458C38.5042 100.458 38.235 100.51 37.9716 100.613C37.7081 100.716 37.4733 100.871 37.2672 101.077C37.061 101.283 36.8949 101.535 36.7689 101.833C36.643 102.119 36.58 102.451 36.58 102.829C36.58 103.207 36.643 103.545 36.7689 103.843C36.8949 104.129 37.061 104.375 37.2672 104.582C37.4733 104.776 37.7081 104.925 37.9716 105.028C38.235 105.131 38.5042 105.183 38.7791 105.183ZM45.0616 107.124V94.8231H47.3122V107.124H45.0616ZM57.1271 105.097C56.7377 105.784 56.2108 106.34 55.5465 106.763C54.8936 107.187 54.0919 107.399 53.1412 107.399C52.4998 107.399 51.9042 107.29 51.3545 107.073C50.8161 106.844 50.3465 106.529 49.9457 106.128C49.5448 105.727 49.2298 105.257 49.0007 104.719C48.7831 104.169 48.6743 103.568 48.6743 102.915C48.6743 102.308 48.7831 101.735 49.0007 101.197C49.2184 100.647 49.5219 100.172 49.9113 99.771C50.3007 99.3587 50.7589 99.0323 51.2857 98.7918C51.8241 98.5512 52.4139 98.431 53.0553 98.431C53.7311 98.431 54.3324 98.5455 54.8593 98.7746C55.3861 98.9922 55.8271 99.3014 56.1822 99.7023C56.5372 100.092 56.8064 100.556 56.9896 101.094C57.1729 101.632 57.2645 102.216 57.2645 102.846C57.2645 102.927 57.2645 102.995 57.2645 103.053C57.2531 103.121 57.2474 103.184 57.2474 103.241C57.2359 103.299 57.2302 103.362 57.2302 103.43H50.8906C50.9364 103.774 51.028 104.072 51.1655 104.324C51.3144 104.564 51.4919 104.771 51.6981 104.942C51.9157 105.103 52.1505 105.223 52.4025 105.303C52.6545 105.372 52.9122 105.406 53.1756 105.406C53.691 105.406 54.1148 105.292 54.4469 105.063C54.7906 104.822 55.0597 104.524 55.2544 104.169L57.1271 105.097ZM55.0826 101.833C55.0712 101.684 55.0196 101.518 54.928 101.334C54.8478 101.151 54.7218 100.979 54.55 100.819C54.3897 100.659 54.1835 100.527 53.9315 100.424C53.691 100.321 53.3989 100.269 53.0553 100.269C52.5743 100.269 52.1505 100.407 51.784 100.682C51.4175 100.956 51.1598 101.34 51.0109 101.833H55.0826ZM68.5416 107.399C66.7205 107.399 65.1972 106.786 63.9716 105.561C62.7575 104.335 62.1505 102.806 62.1505 100.974C62.1505 99.1411 62.7575 97.6178 63.9716 96.4037C65.1857 95.1667 66.709 94.5482 68.5416 94.5482C70.3971 94.5482 71.9032 95.2182 73.0601 96.5583L71.9262 97.6578C71.0442 96.5927 69.916 96.0601 68.5416 96.0601C67.1786 96.0601 66.039 96.5182 65.1227 97.4345C64.2179 98.3393 63.7654 99.5191 63.7654 100.974C63.7654 102.428 64.2179 103.608 65.1227 104.513C66.039 105.429 67.1786 105.887 68.5416 105.887C69.9733 105.887 71.216 105.286 72.2698 104.083L73.4209 105.2C72.8367 105.899 72.1209 106.443 71.2733 106.832C70.4257 107.21 69.5152 107.399 68.5416 107.399ZM76.406 94.8231V107.124H74.8254V94.8231H76.406ZM77.767 102.915C77.767 101.621 78.1736 100.55 78.9868 99.7023C79.8114 98.8548 80.848 98.431 82.0964 98.431C83.3449 98.431 84.3757 98.8548 85.1889 99.7023C86.0136 100.55 86.4259 101.621 86.4259 102.915C86.4259 104.221 86.0136 105.292 85.1889 106.128C84.3757 106.975 83.3449 107.399 82.0964 107.399C80.848 107.399 79.8114 106.975 78.9868 106.128C78.1736 105.28 77.767 104.209 77.767 102.915ZM79.3476 102.915C79.3476 103.82 79.611 104.553 80.1379 105.114C80.6647 105.675 81.3176 105.956 82.0964 105.956C82.8753 105.956 83.5281 105.675 84.055 105.114C84.5819 104.553 84.8453 103.82 84.8453 102.915C84.8453 102.022 84.5819 101.294 84.055 100.733C83.5167 100.16 82.8638 99.8741 82.0964 99.8741C81.329 99.8741 80.6762 100.16 80.1379 100.733C79.611 101.294 79.3476 102.022 79.3476 102.915ZM95.1654 107.124H93.6535V105.956H93.5848C93.3443 106.368 92.972 106.712 92.4681 106.987C91.9755 107.262 91.4601 107.399 90.9218 107.399C89.891 107.399 89.095 107.107 88.5337 106.523C87.984 105.927 87.7091 105.086 87.7091 103.997V98.7059H89.2897V103.894C89.324 105.269 90.017 105.956 91.3685 105.956C91.9985 105.956 92.5253 105.704 92.9491 105.2C93.3729 104.685 93.5848 104.072 93.5848 103.362V98.7059H95.1654V107.124ZM100.785 105.956C101.564 105.956 102.2 105.675 102.692 105.114C103.208 104.553 103.465 103.82 103.465 102.915C103.465 102.033 103.208 101.306 102.692 100.733C102.188 100.16 101.553 99.8741 100.785 99.8741C100.029 99.8741 99.3936 100.16 98.8782 100.733C98.3628 101.306 98.1051 102.033 98.1051 102.915C98.1051 103.808 98.3628 104.536 98.8782 105.097C99.3936 105.67 100.029 105.956 100.785 105.956ZM100.528 107.399C99.428 107.399 98.4831 106.964 97.6928 106.093C96.9139 105.212 96.5245 104.152 96.5245 102.915C96.5245 101.678 96.9139 100.619 97.6928 99.7367C98.4831 98.8662 99.428 98.431 100.528 98.431C101.146 98.431 101.707 98.5627 102.211 98.8261C102.727 99.0896 103.122 99.4389 103.397 99.8741H103.465L103.397 98.7059V94.8231H104.977V107.124H103.465V105.956H103.397C103.122 106.391 102.727 106.741 102.211 107.004C101.707 107.267 101.146 107.399 100.528 107.399Z" fill="#322323"/>
<path d="M66.1622 21.9412H69.1834L77.793 13.3316L78.2058 9.6748C73.2729 5.32896 67.3144 2.3113 60.8921 0.906443C54.4698 -0.498409 47.7956 -0.24414 41.4988 1.64526C35.202 3.53467 29.4903 6.99692 24.9024 11.7055C20.3146 16.414 17.0017 22.2136 15.2764 28.5573C16.2361 28.1655 17.2986 28.1031 18.2976 28.3799L35.5168 25.5361C35.5168 25.5361 36.3959 24.0874 36.8458 24.1782C40.5364 20.1262 45.636 17.6376 51.1011 17.2217C56.5661 16.8059 61.9835 18.4942 66.2448 21.9412H66.1622Z" fill="#EA4335"/>
<path d="M90.0588 28.5576C88.0779 21.2743 84.0141 14.7275 78.3661 9.72046L66.2813 21.8053C68.801 23.8619 70.8204 26.4643 72.1868 29.4159C73.5532 32.3675 74.2308 35.591 74.1686 38.8429V40.9891C77.0212 40.9891 79.757 42.1223 81.7741 44.1394C83.7912 46.1565 84.9244 48.8923 84.9244 51.7449C84.9244 54.5976 83.7912 57.3333 81.7741 59.3505C79.757 61.3676 77.0212 62.5008 74.1686 62.5008H52.657L50.5107 64.6759V77.5779L52.657 79.72H74.1686C80.1761 79.7677 86.0394 77.8803 90.8908 74.3369C95.7423 70.7935 99.3242 65.7825 101.106 60.0453C102.889 54.3081 102.777 48.1495 100.787 42.4809C98.7975 36.8122 95.0359 31.9347 90.0588 28.57V28.5576Z" fill="#4285F4"/>
<path d="M31.1173 79.5878H52.629V62.3686H31.1173C29.5847 62.3661 28.0704 62.0354 26.6763 61.3987L23.6551 62.3356L14.9877 70.9452L14.2324 73.9664C19.0938 77.6377 25.0255 79.6125 31.1173 79.5878Z" fill="#34A853"/>
<path d="M31.1169 23.7245C25.2882 23.7587 19.6158 25.6126 14.892 29.0273C10.1681 32.442 6.62891 37.2469 4.76865 42.7708C2.90839 48.2948 2.82003 54.2618 4.51591 59.8384C6.21179 65.415 9.60721 70.3226 14.2278 73.8757L26.7048 61.3988C25.1188 60.6825 23.7303 59.592 22.6585 58.221C21.5867 56.85 20.8635 55.2394 20.5511 53.5274C20.2387 51.8155 20.3463 50.0532 20.8648 48.392C21.3833 46.7308 22.2971 45.2202 23.5278 43.9898C24.7585 42.7595 26.2694 41.8461 27.9307 41.3281C29.5921 40.8102 31.3543 40.703 33.0662 41.016C34.7781 41.3289 36.3885 42.0525 37.7592 43.1247C39.1299 44.1969 40.2199 45.5857 40.9358 47.1719L53.4127 34.6908C50.7931 31.268 47.4176 28.4972 43.5499 26.5948C39.6822 24.6925 35.4271 23.7101 31.1169 23.7245Z" fill="#FBBC05"/>
</svg>
