<svg width="592" height="695" viewBox="0 0 592 695" fill="none" xmlns="http://www.w3.org/2000/svg">
<g filter="url(#filter0_ddd_859_5423)">
<rect x="189" y="236.251" width="214.126" height="194.498" rx="21.4126" fill="white"/>
</g>
<g clip-path="url(#clip0_859_5423)">
<path d="M295.982 336.608V346.94C313.494 346.94 327.13 330.022 321.401 311.672C318.897 303.652 312.525 297.28 304.506 294.776C286.154 289.048 269.236 302.683 269.236 320.196H279.592C279.594 320.196 279.595 320.193 279.595 320.193C279.596 309.202 290.473 300.706 302.027 304.899C306.308 306.452 309.723 309.866 311.277 314.147C315.471 325.694 306.986 336.567 296.006 336.582V326.284L296.004 326.283H285.68C285.679 326.283 285.678 326.284 285.678 326.284V336.608H295.982V336.608ZM285.676 344.544H277.744L277.742 344.542V336.608H285.678V344.542C285.678 344.542 285.677 344.544 285.676 344.544V344.544ZM277.748 336.608H271.098C271.095 336.608 271.093 336.607 271.093 336.607V329.96C271.093 329.96 271.095 329.955 271.098 329.955H277.742C277.745 329.955 277.748 329.957 277.748 329.957V336.608V336.608ZM251.772 357.421C250.426 356.487 248.751 356.014 246.793 356.014H242.531V369.534H246.793C248.746 369.534 250.422 369.034 251.774 368.05C252.51 367.527 253.088 366.797 253.493 365.881C253.895 364.97 254.099 363.895 254.099 362.686C254.099 361.491 253.895 360.43 253.492 359.532C253.088 358.628 252.509 357.919 251.772 357.421V357.421ZM245.02 358.299H246.358C247.846 358.299 249.071 358.592 250.001 359.17C251.031 359.792 251.555 360.975 251.555 362.686C251.555 364.449 251.03 365.685 249.996 366.362H249.996C249.106 366.95 247.888 367.249 246.376 367.249H245.02V358.299V358.299ZM255.844 369.534H258.241V360.011H255.844V369.534V369.534ZM257.065 355.847C256.656 355.847 256.303 355.992 256.019 356.277C255.731 356.551 255.585 356.898 255.585 357.309C255.585 357.719 255.731 358.071 256.017 358.357C256.303 358.644 256.656 358.789 257.065 358.789C257.475 358.789 257.827 358.644 258.114 358.357C258.401 358.071 258.546 357.718 258.546 357.309C258.546 356.899 258.4 356.552 258.114 356.279C257.978 356.139 257.815 356.029 257.634 355.955C257.454 355.881 257.26 355.844 257.065 355.847ZM266.943 360.807C266.22 360.164 265.413 359.789 264.541 359.789C263.218 359.789 262.119 360.247 261.274 361.149C260.418 362.043 259.983 363.194 259.983 364.57C259.983 365.913 260.411 367.06 261.256 367.981C262.107 368.87 263.212 369.321 264.541 369.321C265.465 369.321 266.259 369.064 266.906 368.556V368.776C266.906 369.566 266.694 370.18 266.278 370.602C265.861 371.024 265.283 371.238 264.56 371.238C263.454 371.238 262.76 370.803 261.916 369.662L260.285 371.23L260.328 371.292C260.681 371.786 261.221 372.271 261.934 372.731C262.646 373.189 263.542 373.421 264.597 373.421C266.019 373.421 267.17 372.983 268.018 372.118C268.87 371.249 269.302 370.085 269.302 368.66V360.011H266.943V360.807V360.807ZM266.314 366.431C265.896 366.907 265.358 367.137 264.671 367.137C263.984 367.137 263.449 366.907 263.036 366.432C262.626 365.959 262.417 365.332 262.417 364.569C262.417 363.794 262.626 363.159 263.036 362.683C263.443 362.212 263.993 361.973 264.671 361.973C265.357 361.973 265.895 362.205 266.314 362.684C266.731 363.16 266.943 363.794 266.943 364.569C266.943 365.332 266.731 365.959 266.314 366.431V366.431ZM271.353 369.534H273.749V360.011H271.353V369.534ZM272.574 355.847C272.164 355.847 271.811 355.992 271.527 356.277C271.24 356.551 271.094 356.898 271.094 357.309C271.094 357.719 271.239 358.071 271.525 358.357C271.811 358.644 272.164 358.789 272.574 358.789C272.769 358.792 272.963 358.756 273.143 358.681C273.323 358.607 273.487 358.497 273.623 358.357C273.91 358.071 274.055 357.718 274.055 357.309C274.055 356.899 273.908 356.552 273.623 356.279C273.487 356.139 273.323 356.029 273.143 355.955C272.963 355.881 272.769 355.844 272.574 355.847H272.574ZM279.001 357.439H276.643V360.011H275.272V362.195H276.642V366.151C276.642 367.389 276.889 368.275 277.377 368.783C277.867 369.294 278.735 369.553 279.959 369.553C280.349 369.553 280.741 369.54 281.124 369.515L281.232 369.508V367.326L280.41 367.369C279.839 367.369 279.459 367.268 279.278 367.071C279.094 366.871 279.001 366.446 279.001 365.811V362.195H281.232V360.011H279.001V357.439V357.439ZM289.456 360.724C288.729 360.104 287.726 359.789 286.472 359.789C285.675 359.789 284.929 359.964 284.255 360.306C283.631 360.623 283.018 361.147 282.629 361.833L282.653 361.862L284.188 363.331C284.82 362.323 285.523 361.973 286.454 361.973C286.955 361.973 287.37 362.108 287.69 362.372C288.008 362.635 288.162 362.97 288.162 363.394V363.856C287.591 363.679 286.997 363.587 286.399 363.584C285.206 363.584 284.236 363.864 283.515 364.418C282.785 364.978 282.415 365.779 282.415 366.8C282.415 367.694 282.727 368.421 283.344 368.962C283.968 369.483 284.746 369.747 285.658 369.747C286.571 369.747 287.424 369.379 288.199 368.75V369.534H290.558V363.412C290.558 362.253 290.187 361.349 289.456 360.724V360.724ZM285.201 365.895C285.473 365.706 285.857 365.61 286.343 365.61C286.92 365.61 287.531 365.726 288.162 365.955V366.889C287.641 367.373 286.945 367.619 286.093 367.619C285.679 367.619 285.356 367.527 285.134 367.344C284.917 367.166 284.811 366.939 284.811 366.651C284.811 366.325 284.939 366.077 285.201 365.895V365.895ZM292.467 369.534H294.864V356.013H292.467V369.534V369.534ZM303.559 369.738C299.715 369.738 296.588 366.611 296.588 362.768C296.588 358.924 299.715 355.797 303.558 355.797C307.402 355.797 310.528 358.924 310.528 362.768C310.528 366.611 307.402 369.738 303.558 369.738H303.559ZM303.559 358.254C301.069 358.254 299.045 360.279 299.045 362.768C299.045 365.257 301.069 367.281 303.558 367.281C306.047 367.281 308.072 365.257 308.072 362.768C308.072 360.279 306.047 358.254 303.558 358.254L303.559 358.254ZM319.073 366.129C318.644 366.61 318.206 367.026 317.868 367.242V367.243C317.537 367.455 317.118 367.564 316.625 367.564C315.919 367.564 315.351 367.306 314.889 366.776C314.429 366.25 314.196 365.573 314.196 364.763C314.196 363.954 314.426 363.279 314.88 362.755C315.336 362.228 315.901 361.973 316.606 361.973C317.378 361.973 318.192 362.453 318.889 363.278L320.473 361.759C319.44 360.415 318.123 359.789 316.551 359.789C315.236 359.789 314.095 360.269 313.162 361.213C312.233 362.151 311.762 363.346 311.762 364.763C311.762 366.181 312.233 367.379 313.16 368.323C314.089 369.268 315.23 369.747 316.551 369.747C318.286 369.747 319.687 368.998 320.631 367.626L319.073 366.129ZM328.907 361.342C328.568 360.868 328.105 360.487 327.531 360.208C326.96 359.93 326.294 359.789 325.552 359.789C324.214 359.789 323.119 360.283 322.298 361.257C321.5 362.223 321.096 363.425 321.096 364.828C321.096 366.271 321.539 367.466 322.414 368.379C323.284 369.287 324.449 369.747 325.875 369.747C327.491 369.747 328.817 369.094 329.817 367.805L329.871 367.735L328.307 366.233C328.163 366.408 327.957 366.606 327.769 366.783C327.533 367.006 327.311 367.179 327.073 367.297C326.715 367.475 326.313 367.564 325.864 367.564C325.2 367.564 324.65 367.368 324.23 366.983C323.837 366.623 323.607 366.137 323.545 365.536H329.894L329.916 364.662C329.916 364.043 329.831 363.447 329.665 362.889C329.501 362.334 329.245 361.811 328.907 361.342V361.342ZM323.67 363.584C323.786 363.128 323.995 362.749 324.296 362.455C324.621 362.135 325.044 361.973 325.552 361.973C326.133 361.973 326.583 362.138 326.889 362.465C327.172 362.767 327.332 363.143 327.365 363.584H323.67V363.584ZM338.11 360.724C337.384 360.104 336.38 359.789 335.127 359.789C334.329 359.789 333.583 359.964 332.909 360.306C332.285 360.623 331.672 361.147 331.283 361.833L331.308 361.862L332.842 363.331C333.474 362.323 334.177 361.973 335.109 361.973C335.609 361.973 336.025 362.108 336.344 362.372C336.662 362.635 336.817 362.97 336.817 363.394V363.856C336.245 363.679 335.651 363.587 335.053 363.584C333.861 363.584 332.89 363.864 332.169 364.418C331.439 364.978 331.069 365.779 331.069 366.8C331.069 367.694 331.381 368.421 331.999 368.962C332.622 369.483 333.4 369.747 334.312 369.747C335.225 369.747 336.079 369.379 336.853 368.75V369.534H339.213V363.412C339.213 362.253 338.842 361.349 338.11 360.724V360.724ZM333.856 365.895C334.128 365.706 334.511 365.61 334.997 365.61C335.574 365.61 336.186 365.726 336.817 365.955V366.889C336.295 367.373 335.6 367.619 334.747 367.619C334.333 367.619 334.01 367.527 333.789 367.344C333.571 367.166 333.466 366.939 333.466 366.651C333.466 366.325 333.593 366.077 333.856 365.895V365.895ZM348.431 360.911C347.763 360.167 346.826 359.789 345.643 359.789C344.692 359.789 343.92 360.062 343.343 360.601V360.011H340.993V369.534H343.389V364.282C343.389 363.561 343.56 362.988 343.899 362.579C344.237 362.171 344.701 361.973 345.319 361.973C345.862 361.973 346.273 362.15 346.577 362.514C346.881 362.88 347.036 363.384 347.036 364.014V369.534H349.432V364.014C349.432 362.695 349.096 361.651 348.431 360.911V360.911Z" fill="#0080FF"/>
</g>
<g filter="url(#filter1_ddd_859_5423)">
<rect x="22" y="7.25098" width="214.126" height="194.498" rx="21.4126" fill="white"/>
</g>
<g clip-path="url(#clip1_859_5423)">
<path d="M105.807 95.5665C105.807 96.8784 105.949 97.9419 106.197 98.7219C106.512 99.5994 106.891 100.453 107.331 101.274C107.509 101.558 107.579 101.841 107.579 102.09C107.579 102.444 107.367 102.799 106.906 103.153L104.673 104.642C104.354 104.855 104.035 104.961 103.751 104.961C103.396 104.961 103.042 104.784 102.687 104.465C102.209 103.952 101.782 103.394 101.411 102.799C101.056 102.196 100.702 101.522 100.312 100.707C97.5468 103.968 94.0722 105.599 89.8893 105.599C86.9116 105.599 84.5361 104.748 82.7988 103.047C81.062 101.345 80.1758 99.0761 80.1758 96.2402C80.1758 93.227 81.2393 90.7808 83.4019 88.9373C85.5641 87.0939 88.436 86.1721 92.0874 86.1721C93.2927 86.1721 94.5335 86.2783 95.8451 86.4557C97.157 86.633 98.5041 86.9165 99.9222 87.2356V84.6477C99.9222 81.9531 99.3547 80.0745 98.2557 78.9754C97.1215 77.8764 95.2069 77.3444 92.4772 77.3444C91.2363 77.3444 89.9604 77.4866 88.6484 77.8057C87.3369 78.1244 86.0605 78.5146 84.8196 79.011C84.2525 79.259 83.8272 79.4008 83.5788 79.4719C83.3308 79.543 83.1535 79.5781 83.0117 79.5781C82.5153 79.5781 82.2673 79.2235 82.2673 78.479V76.7418C82.2673 76.1747 82.3384 75.7493 82.5153 75.5013C82.6926 75.2529 83.0117 75.0049 83.5081 74.7569C84.749 74.1187 86.2378 73.5867 87.9747 73.1614C89.7124 72.7005 91.5558 72.4881 93.5056 72.4881C97.7245 72.4881 100.809 73.445 102.794 75.3596C104.744 77.2737 105.737 80.1807 105.737 84.0806V95.5665H105.808H105.807ZM91.4137 100.955C92.5838 100.955 93.7891 100.743 95.0651 100.317C96.3415 99.8917 97.4761 99.1117 98.433 98.0482C99.0005 97.3748 99.4258 96.6304 99.6383 95.7794C99.8512 94.9287 99.9929 93.9003 99.9929 92.695V91.2062C98.9178 90.9445 97.8289 90.7433 96.7313 90.6035C95.626 90.4631 94.5131 90.392 93.3989 90.3906C91.0235 90.3906 89.2866 90.8515 88.1169 91.8088C86.9467 92.7661 86.3796 94.1132 86.3796 95.8856C86.3796 97.5518 86.8049 98.7926 87.6911 99.6437C88.5422 100.53 89.783 100.955 91.4137 100.955ZM119.881 104.784C119.243 104.784 118.818 104.678 118.534 104.429C118.251 104.217 118.002 103.72 117.79 103.047L109.459 75.6431C109.246 74.9338 109.139 74.4729 109.139 74.2249C109.139 73.6578 109.423 73.3383 109.99 73.3383H113.464C114.138 73.3383 114.599 73.445 114.847 73.693C115.131 73.9058 115.344 74.4023 115.556 75.0756L121.512 98.5446L127.042 75.0756C127.22 74.3667 127.432 73.9058 127.716 73.693C128 73.4805 128.496 73.3387 129.134 73.3387H131.97C132.643 73.3387 133.105 73.445 133.388 73.693C133.672 73.9058 133.92 74.4023 134.062 75.0756L139.663 98.8281L145.796 75.0756C146.008 74.3667 146.257 73.9058 146.505 73.693C146.788 73.4805 147.249 73.3387 147.887 73.3387H151.184C151.752 73.3387 152.071 73.6223 152.071 74.2249C152.071 74.4023 152.035 74.5796 152 74.792C151.964 75.0049 151.893 75.2885 151.752 75.6787L143.208 103.082C142.995 103.792 142.747 104.252 142.463 104.465C142.18 104.678 141.719 104.82 141.116 104.82H138.068C137.394 104.82 136.933 104.713 136.649 104.465C136.366 104.217 136.118 103.756 135.976 103.047L130.48 80.1807L125.021 103.011C124.844 103.72 124.631 104.181 124.348 104.429C124.064 104.678 123.568 104.784 122.93 104.784H119.881H119.881ZM165.436 105.741C163.593 105.741 161.749 105.528 159.977 105.103C158.204 104.678 156.822 104.216 155.9 103.685C155.332 103.366 154.942 103.012 154.801 102.692C154.663 102.38 154.59 102.042 154.588 101.7V99.8917C154.588 99.1472 154.872 98.7926 155.404 98.7926C155.621 98.7934 155.836 98.8294 156.042 98.8992C156.254 98.9703 156.573 99.1117 156.928 99.2535C158.18 99.8042 159.487 100.22 160.827 100.494C162.216 100.776 163.629 100.919 165.046 100.92C167.28 100.92 169.017 100.53 170.222 99.7499C171.428 98.9699 172.066 97.8357 172.066 96.382C172.066 95.3896 171.747 94.5741 171.108 93.9003C170.47 93.227 169.265 92.6243 167.528 92.0568L162.387 90.4617C159.799 89.6462 157.885 88.4409 156.715 86.8454C155.545 85.2855 154.943 83.5486 154.943 81.7051C154.943 80.2163 155.262 78.9044 155.9 77.7697C156.538 76.6355 157.389 75.6431 158.452 74.8631C159.516 74.0476 160.721 73.445 162.139 73.0196C163.557 72.5943 165.046 72.417 166.606 72.417C167.386 72.417 168.201 72.4525 168.981 72.5588C169.797 72.665 170.541 72.8068 171.286 72.9485C171.995 73.1259 172.668 73.3032 173.307 73.5161C173.945 73.7285 174.441 73.9414 174.795 74.1538C175.292 74.4378 175.646 74.7214 175.859 75.0405C176.072 75.324 176.178 75.7138 176.178 76.2102V77.8764C176.178 78.6208 175.894 79.011 175.362 79.011C175.079 79.011 174.618 78.8688 174.016 78.5853C171.995 77.6635 169.726 77.2026 167.209 77.2026C165.188 77.2026 163.593 77.5217 162.494 78.1955C161.395 78.8688 160.827 79.8972 160.827 81.3505C160.827 82.3433 161.182 83.194 161.891 83.8677C162.6 84.5411 163.912 85.2148 165.791 85.8175L170.825 87.413C173.377 88.2285 175.221 89.3627 176.32 90.816C177.419 92.2697 177.951 93.9359 177.951 95.7794C177.951 97.3037 177.631 98.6864 177.029 99.8917C176.391 101.097 175.54 102.16 174.441 103.012C173.342 103.898 172.03 104.536 170.506 104.997C168.91 105.493 167.244 105.741 165.436 105.741V105.741Z" fill="#252F3E"/>
<path d="M172.136 122.97C160.473 131.585 143.527 136.158 128.957 136.158C108.537 136.158 90.1378 128.607 76.2409 116.057C75.1418 115.065 76.1342 113.718 77.4458 114.497C92.4773 123.219 111.018 128.501 130.198 128.501C143.137 128.501 157.353 125.806 170.435 120.276C172.385 119.389 174.051 121.552 172.136 122.97V122.97ZM176.994 117.44C175.505 115.525 167.138 116.518 163.345 116.979C162.21 117.121 162.033 116.128 163.061 115.384C169.726 110.704 180.681 112.051 181.957 113.611C183.233 115.206 181.602 126.161 175.363 131.408C174.406 132.223 173.484 131.798 173.909 130.734C175.327 127.224 178.482 119.319 176.994 117.44V117.44Z" fill="#FF9900"/>
</g>
<g filter="url(#filter2_ddd_859_5423)">
<rect x="356" y="464.251" width="214.126" height="194.498" rx="21.4126" fill="white"/>
</g>
<path d="M417.344 578.776C425.16 577.521 431.614 576.482 431.689 576.469L431.824 576.443L424.447 568.465C420.388 564.078 417.069 560.47 417.069 560.449C417.069 560.429 424.687 541.338 424.731 541.27C424.746 541.248 429.931 549.384 437.3 560.996L449.941 580.911L450.037 581.063H403.138L417.344 578.776ZM389.201 576.342C389.201 576.332 392.678 570.845 396.927 564.15L404.653 551.979L413.666 545.113C418.619 541.336 422.684 538.24 422.699 538.235C422.667 538.349 422.619 538.461 422.555 538.567L412.769 557.627L403.158 576.348H396.176C393.851 576.366 391.526 576.365 389.201 576.342V576.342Z" fill="#0089D6"/>
<path d="M475.224 569.353C475.32 569.617 475.368 569.833 475.368 570.001C475.38 570.158 475.338 570.278 475.242 570.362C475.146 570.446 474.984 570.5 474.756 570.524C474.54 570.548 474.246 570.56 473.874 570.56C473.502 570.56 473.202 570.548 472.974 570.524C472.757 570.512 472.589 570.488 472.469 570.452C472.361 570.404 472.277 570.344 472.217 570.272C472.169 570.2 472.121 570.11 472.073 570.001L470.074 564.329H460.387L458.478 569.929C458.442 570.038 458.394 570.134 458.334 570.218C458.274 570.29 458.184 570.356 458.064 570.416C457.956 570.464 457.794 570.5 457.578 570.524C457.374 570.548 457.104 570.56 456.768 570.56C456.42 570.56 456.131 570.542 455.903 570.506C455.687 570.482 455.531 570.428 455.435 570.344C455.351 570.26 455.309 570.14 455.309 569.983C455.321 569.815 455.375 569.599 455.471 569.335L463.286 547.691C463.334 547.559 463.394 547.451 463.466 547.367C463.55 547.283 463.664 547.217 463.808 547.169C463.964 547.121 464.156 547.091 464.384 547.079C464.625 547.055 464.925 547.043 465.285 547.043C465.669 547.043 465.987 547.055 466.239 547.079C466.491 547.091 466.695 547.121 466.851 547.169C467.007 547.217 467.127 547.289 467.211 547.385C467.295 547.469 467.362 547.577 467.41 547.709L475.224 569.353ZM465.195 550.248H465.177L461.161 561.863H469.264L465.195 550.248ZM489.125 569.191C489.125 569.419 489.107 569.617 489.071 569.785C489.035 569.941 488.993 570.074 488.945 570.182C488.897 570.278 488.831 570.35 488.747 570.398C488.663 570.434 488.573 570.452 488.477 570.452H478.502C478.249 570.452 478.039 570.368 477.871 570.2C477.715 570.032 477.637 569.749 477.637 569.353V568.741C477.637 568.573 477.649 568.423 477.673 568.291C477.697 568.159 477.733 568.027 477.781 567.895C477.829 567.763 477.895 567.625 477.979 567.481C478.063 567.325 478.165 567.15 478.285 566.958L485.434 555.83H478.502C478.309 555.83 478.153 555.734 478.033 555.542C477.925 555.338 477.871 555.014 477.871 554.57C477.871 554.354 477.883 554.168 477.907 554.012C477.931 553.844 477.967 553.712 478.015 553.616C478.075 553.508 478.141 553.436 478.213 553.399C478.297 553.351 478.394 553.327 478.502 553.327H487.793C487.925 553.327 488.039 553.345 488.135 553.381C488.243 553.418 488.333 553.478 488.405 553.562C488.477 553.646 488.531 553.754 488.567 553.886C488.615 554.018 488.639 554.186 488.639 554.39V554.966C488.639 555.134 488.627 555.29 488.603 555.434C488.579 555.578 488.543 555.722 488.495 555.866C488.447 555.998 488.381 556.142 488.297 556.299C488.213 556.455 488.111 556.629 487.991 556.821L480.878 567.949H488.477C488.573 567.949 488.657 567.973 488.729 568.021C488.813 568.057 488.879 568.123 488.927 568.219C488.987 568.315 489.035 568.447 489.071 568.615C489.107 568.771 489.125 568.963 489.125 569.191ZM507.078 570.001C507.078 570.098 507.054 570.182 507.006 570.254C506.97 570.314 506.898 570.368 506.79 570.416C506.682 570.464 506.538 570.5 506.358 570.524C506.19 570.548 505.979 570.56 505.727 570.56C505.451 570.56 505.223 570.548 505.043 570.524C504.875 570.5 504.737 570.464 504.629 570.416C504.533 570.368 504.467 570.314 504.431 570.254C504.395 570.182 504.377 570.098 504.377 570.001V567.859C503.453 568.879 502.54 569.623 501.64 570.092C500.74 570.56 499.827 570.794 498.903 570.794C497.823 570.794 496.91 570.614 496.166 570.254C495.434 569.893 494.839 569.407 494.383 568.795C493.927 568.171 493.597 567.451 493.393 566.634C493.201 565.806 493.105 564.804 493.105 563.627V553.796C493.105 553.7 493.123 553.622 493.159 553.562C493.207 553.49 493.291 553.43 493.411 553.381C493.531 553.321 493.687 553.285 493.879 553.273C494.071 553.249 494.311 553.237 494.599 553.237C494.887 553.237 495.128 553.249 495.32 553.273C495.512 553.285 495.662 553.321 495.77 553.381C495.89 553.43 495.974 553.49 496.022 553.562C496.07 553.622 496.094 553.7 496.094 553.796V563.231C496.094 564.179 496.16 564.942 496.292 565.518C496.436 566.082 496.646 566.568 496.922 566.976C497.21 567.373 497.57 567.685 498.003 567.913C498.435 568.129 498.939 568.237 499.515 568.237C500.259 568.237 500.998 567.973 501.73 567.445C502.474 566.916 503.26 566.142 504.089 565.122V553.796C504.089 553.7 504.107 553.622 504.143 553.562C504.191 553.49 504.275 553.43 504.395 553.381C504.515 553.321 504.665 553.285 504.845 553.273C505.037 553.249 505.283 553.237 505.583 553.237C505.871 553.237 506.112 553.249 506.304 553.273C506.496 553.285 506.646 553.321 506.754 553.381C506.862 553.43 506.94 553.49 506.988 553.562C507.048 553.622 507.078 553.7 507.078 553.796V570.001ZM522.041 554.858C522.041 555.122 522.035 555.344 522.023 555.524C522.011 555.704 521.987 555.848 521.951 555.956C521.915 556.052 521.867 556.13 521.807 556.191C521.759 556.239 521.687 556.263 521.591 556.263C521.495 556.263 521.375 556.239 521.231 556.191C521.099 556.13 520.943 556.076 520.763 556.028C520.595 555.968 520.403 555.914 520.187 555.866C519.971 555.818 519.736 555.794 519.484 555.794C519.184 555.794 518.89 555.854 518.602 555.974C518.314 556.094 518.008 556.293 517.684 556.569C517.372 556.845 517.041 557.211 516.693 557.667C516.345 558.123 515.961 558.681 515.541 559.342V570.001C515.541 570.098 515.517 570.182 515.469 570.254C515.421 570.314 515.343 570.368 515.235 570.416C515.127 570.464 514.977 570.5 514.785 570.524C514.593 570.548 514.346 570.56 514.046 570.56C513.758 570.56 513.518 570.548 513.326 570.524C513.134 570.5 512.978 570.464 512.858 570.416C512.75 570.368 512.672 570.314 512.624 570.254C512.588 570.182 512.57 570.098 512.57 570.001V553.796C512.57 553.7 512.588 553.622 512.624 553.562C512.66 553.49 512.732 553.43 512.84 553.381C512.948 553.321 513.086 553.285 513.254 553.273C513.422 553.249 513.644 553.237 513.92 553.237C514.184 553.237 514.401 553.249 514.569 553.273C514.749 553.285 514.887 553.321 514.983 553.381C515.079 553.43 515.145 553.49 515.181 553.562C515.229 553.622 515.253 553.7 515.253 553.796V556.154C515.697 555.506 516.111 554.978 516.495 554.57C516.891 554.162 517.264 553.844 517.612 553.616C517.96 553.375 518.302 553.213 518.638 553.129C518.986 553.033 519.334 552.985 519.682 552.985C519.838 552.985 520.013 552.997 520.205 553.021C520.409 553.033 520.619 553.063 520.835 553.111C521.051 553.159 521.243 553.213 521.411 553.273C521.591 553.333 521.717 553.393 521.789 553.454C521.861 553.514 521.909 553.574 521.933 553.634C521.957 553.682 521.975 553.748 521.987 553.832C522.011 553.916 522.023 554.042 522.023 554.21C522.035 554.366 522.041 554.582 522.041 554.858ZM538.751 561.196C538.751 561.664 538.631 562.001 538.391 562.205C538.163 562.397 537.899 562.493 537.599 562.493H526.975C526.975 563.393 527.065 564.203 527.245 564.924C527.425 565.644 527.725 566.262 528.145 566.778C528.566 567.295 529.112 567.691 529.784 567.967C530.456 568.243 531.279 568.381 532.251 568.381C533.019 568.381 533.703 568.321 534.304 568.201C534.904 568.069 535.42 567.925 535.852 567.769C536.296 567.613 536.657 567.475 536.933 567.355C537.221 567.222 537.437 567.156 537.581 567.156C537.665 567.156 537.737 567.18 537.797 567.228C537.869 567.265 537.923 567.325 537.959 567.409C537.995 567.493 538.019 567.613 538.031 567.769C538.055 567.913 538.067 568.093 538.067 568.309C538.067 568.465 538.061 568.603 538.049 568.723C538.037 568.831 538.019 568.933 537.995 569.029C537.983 569.113 537.953 569.191 537.905 569.263C537.869 569.335 537.815 569.407 537.743 569.479C537.683 569.539 537.491 569.647 537.167 569.803C536.843 569.947 536.422 570.092 535.906 570.236C535.39 570.38 534.79 570.506 534.106 570.614C533.433 570.734 532.713 570.794 531.945 570.794C530.612 570.794 529.442 570.608 528.434 570.236C527.437 569.863 526.597 569.311 525.913 568.579C525.228 567.847 524.712 566.928 524.364 565.824C524.016 564.72 523.842 563.435 523.842 561.971C523.842 560.578 524.022 559.33 524.382 558.225C524.742 557.109 525.258 556.166 525.931 555.398C526.615 554.618 527.437 554.024 528.398 553.616C529.358 553.195 530.432 552.985 531.621 552.985C532.893 552.985 533.974 553.189 534.862 553.598C535.762 554.006 536.5 554.558 537.077 555.254C537.653 555.938 538.073 556.749 538.337 557.685C538.613 558.609 538.751 559.6 538.751 560.656V561.196ZM535.762 560.314C535.798 558.753 535.45 557.529 534.718 556.641C533.998 555.752 532.923 555.308 531.495 555.308C530.762 555.308 530.12 555.446 529.568 555.722C529.016 555.998 528.554 556.365 528.181 556.821C527.809 557.277 527.521 557.811 527.317 558.423C527.113 559.024 526.999 559.654 526.975 560.314H535.762Z" fill="#2EA3E5"/>
<g filter="url(#filter3_ddd_859_5423)">
<rect x="356" y="7.25098" width="214.126" height="194.498" rx="21.4126" fill="white"/>
</g>
<path d="M416.026 150.188H422.232C422.268 150.329 422.297 150.5 422.321 150.7C422.344 150.901 422.356 151.101 422.356 151.302C422.356 152.115 422.232 152.881 421.985 153.6C421.737 154.319 421.348 154.961 420.818 155.527C420.252 156.128 419.574 156.594 418.784 156.924C417.995 157.254 417.093 157.419 416.079 157.419C415.16 157.419 414.294 157.254 413.48 156.924C412.667 156.594 411.96 156.134 411.359 155.545C410.757 154.956 410.28 154.26 409.926 153.459C409.573 152.645 409.396 151.761 409.396 150.806C409.396 149.852 409.573 148.974 409.926 148.172C410.28 147.359 410.757 146.657 411.359 146.068C411.96 145.479 412.667 145.019 413.48 144.689C414.294 144.359 415.16 144.194 416.079 144.194C417.105 144.194 418.018 144.371 418.82 144.724C419.633 145.078 420.329 145.567 420.906 146.192L419.262 147.801C418.849 147.365 418.39 147.035 417.883 146.811C417.376 146.575 416.769 146.457 416.062 146.457C415.484 146.457 414.936 146.563 414.417 146.775C413.899 146.976 413.445 147.264 413.056 147.642C412.667 148.019 412.355 148.479 412.119 149.021C411.895 149.551 411.783 150.146 411.783 150.806C411.783 151.467 411.895 152.068 412.119 152.61C412.355 153.14 412.667 153.594 413.056 153.971C413.457 154.349 413.916 154.643 414.435 154.855C414.954 155.056 415.508 155.156 416.097 155.156C416.769 155.156 417.335 155.062 417.794 154.873C418.266 154.673 418.667 154.419 418.997 154.113C419.232 153.901 419.433 153.635 419.598 153.317C419.775 152.987 419.91 152.622 420.004 152.221H416.026V150.188ZM428.061 148.19C428.733 148.19 429.346 148.308 429.9 148.543C430.466 148.767 430.949 149.086 431.35 149.498C431.763 149.899 432.081 150.382 432.305 150.948C432.541 151.514 432.658 152.133 432.658 152.804C432.658 153.476 432.541 154.095 432.305 154.661C432.081 155.227 431.763 155.716 431.35 156.128C430.949 156.529 430.466 156.847 429.9 157.083C429.346 157.307 428.733 157.419 428.061 157.419C427.39 157.419 426.771 157.307 426.205 157.083C425.651 156.847 425.168 156.529 424.755 156.128C424.354 155.716 424.036 155.227 423.8 154.661C423.576 154.095 423.464 153.476 423.464 152.804C423.464 152.133 423.576 151.514 423.8 150.948C424.036 150.382 424.354 149.899 424.755 149.498C425.168 149.086 425.651 148.767 426.205 148.543C426.771 148.308 427.39 148.19 428.061 148.19ZM428.061 155.28C428.356 155.28 428.639 155.227 428.91 155.121C429.193 155.003 429.44 154.838 429.653 154.626C429.865 154.413 430.03 154.154 430.148 153.848C430.277 153.541 430.342 153.193 430.342 152.804C430.342 152.415 430.277 152.068 430.148 151.761C430.03 151.455 429.865 151.195 429.653 150.983C429.44 150.771 429.193 150.612 428.91 150.506C428.639 150.388 428.356 150.329 428.061 150.329C427.755 150.329 427.466 150.388 427.195 150.506C426.924 150.612 426.682 150.771 426.47 150.983C426.258 151.195 426.087 151.455 425.957 151.761C425.839 152.068 425.781 152.415 425.781 152.804C425.781 153.193 425.839 153.541 425.957 153.848C426.087 154.154 426.258 154.413 426.47 154.626C426.682 154.838 426.924 155.003 427.195 155.121C427.466 155.227 427.755 155.28 428.061 155.28ZM438.249 148.19C438.92 148.19 439.533 148.308 440.087 148.543C440.653 148.767 441.136 149.086 441.537 149.498C441.95 149.899 442.268 150.382 442.492 150.948C442.728 151.514 442.846 152.133 442.846 152.804C442.846 153.476 442.728 154.095 442.492 154.661C442.268 155.227 441.95 155.716 441.537 156.128C441.136 156.529 440.653 156.847 440.087 157.083C439.533 157.307 438.92 157.419 438.249 157.419C437.577 157.419 436.958 157.307 436.392 157.083C435.838 156.847 435.355 156.529 434.942 156.128C434.541 155.716 434.223 155.227 433.987 154.661C433.764 154.095 433.652 153.476 433.652 152.804C433.652 152.133 433.764 151.514 433.987 150.948C434.223 150.382 434.541 149.899 434.942 149.498C435.355 149.086 435.838 148.767 436.392 148.543C436.958 148.308 437.577 148.19 438.249 148.19ZM438.249 155.28C438.543 155.28 438.826 155.227 439.097 155.121C439.38 155.003 439.628 154.838 439.84 154.626C440.052 154.413 440.217 154.154 440.335 153.848C440.465 153.541 440.529 153.193 440.529 152.804C440.529 152.415 440.465 152.068 440.335 151.761C440.217 151.455 440.052 151.195 439.84 150.983C439.628 150.771 439.38 150.612 439.097 150.506C438.826 150.388 438.543 150.329 438.249 150.329C437.942 150.329 437.653 150.388 437.382 150.506C437.111 150.612 436.869 150.771 436.657 150.983C436.445 151.195 436.274 151.455 436.145 151.761C436.027 152.068 435.968 152.415 435.968 152.804C435.968 153.193 436.027 153.541 436.145 153.848C436.274 154.154 436.445 154.413 436.657 154.626C436.869 154.838 437.111 155.003 437.382 155.121C437.653 155.227 437.942 155.28 438.249 155.28ZM448.33 161.238C447.717 161.238 447.169 161.156 446.685 160.991C446.214 160.837 445.801 160.631 445.448 160.372C445.094 160.124 444.799 159.847 444.564 159.541C444.328 159.234 444.157 158.928 444.051 158.621L446.261 157.737C446.426 158.197 446.697 158.551 447.074 158.798C447.452 159.058 447.87 159.187 448.33 159.187C449.06 159.187 449.638 158.957 450.062 158.498C450.487 158.05 450.699 157.419 450.699 156.606V156.005H450.557C450.286 156.382 449.927 156.682 449.479 156.906C449.043 157.119 448.524 157.225 447.923 157.225C447.404 157.225 446.898 157.119 446.402 156.906C445.919 156.694 445.489 156.394 445.112 156.005C444.735 155.604 444.428 155.127 444.192 154.573C443.957 154.019 443.839 153.4 443.839 152.716C443.839 152.032 443.957 151.414 444.192 150.86C444.428 150.294 444.735 149.816 445.112 149.427C445.489 149.027 445.919 148.72 446.402 148.508C446.898 148.296 447.404 148.19 447.923 148.19C448.524 148.19 449.043 148.302 449.479 148.526C449.927 148.738 450.286 149.033 450.557 149.41H450.699V148.473H452.909V156.517C452.909 157.248 452.797 157.902 452.573 158.48C452.349 159.069 452.037 159.564 451.636 159.965C451.235 160.378 450.752 160.69 450.186 160.902C449.632 161.126 449.013 161.238 448.33 161.238ZM448.418 155.138C448.701 155.138 448.978 155.085 449.249 154.979C449.532 154.873 449.78 154.72 449.992 154.519C450.204 154.307 450.375 154.054 450.504 153.759C450.634 153.453 450.699 153.105 450.699 152.716C450.699 152.327 450.634 151.979 450.504 151.673C450.375 151.366 450.204 151.113 449.992 150.913C449.78 150.7 449.532 150.541 449.249 150.435C448.978 150.329 448.701 150.276 448.418 150.276C448.135 150.276 447.858 150.329 447.587 150.435C447.316 150.541 447.074 150.7 446.862 150.913C446.65 151.125 446.479 151.384 446.349 151.691C446.22 151.985 446.155 152.327 446.155 152.716C446.155 153.105 446.22 153.453 446.349 153.759C446.479 154.054 446.65 154.307 446.862 154.519C447.074 154.72 447.316 154.873 447.587 154.979C447.858 155.085 448.135 155.138 448.418 155.138ZM454.884 157.136V144.477H457.2V157.136H454.884ZM467.301 155.05C466.9 155.757 466.358 156.329 465.674 156.765C465.002 157.201 464.177 157.419 463.199 157.419C462.538 157.419 461.926 157.307 461.36 157.083C460.806 156.847 460.322 156.523 459.91 156.111C459.497 155.698 459.173 155.215 458.937 154.661C458.714 154.095 458.602 153.476 458.602 152.804C458.602 152.18 458.714 151.59 458.937 151.036C459.161 150.471 459.474 149.981 459.875 149.569C460.275 149.144 460.747 148.809 461.289 148.561C461.843 148.313 462.45 148.19 463.11 148.19C463.806 148.19 464.424 148.308 464.967 148.543C465.509 148.767 465.963 149.086 466.328 149.498C466.693 149.899 466.97 150.376 467.159 150.93C467.348 151.484 467.442 152.085 467.442 152.734C467.442 152.816 467.442 152.887 467.442 152.946C467.43 153.017 467.424 153.081 467.424 153.14C467.412 153.199 467.407 153.264 467.407 153.335H460.882C460.93 153.688 461.024 153.995 461.165 154.254C461.319 154.502 461.501 154.714 461.713 154.891C461.937 155.056 462.179 155.18 462.438 155.262C462.698 155.333 462.963 155.368 463.234 155.368C463.764 155.368 464.2 155.25 464.542 155.015C464.896 154.767 465.173 154.461 465.373 154.095L467.301 155.05ZM465.196 151.691C465.185 151.537 465.132 151.366 465.037 151.178C464.955 150.989 464.825 150.812 464.648 150.647C464.483 150.482 464.271 150.347 464.012 150.241C463.764 150.135 463.464 150.082 463.11 150.082C462.615 150.082 462.179 150.223 461.802 150.506C461.425 150.789 461.159 151.184 461.006 151.691H465.196ZM479.047 157.419C477.173 157.419 475.606 156.789 474.344 155.527C473.095 154.266 472.47 152.692 472.47 150.806C472.47 148.921 473.095 147.353 474.344 146.103C475.594 144.83 477.162 144.194 479.047 144.194C480.957 144.194 482.507 144.883 483.698 146.263L482.531 147.394C481.623 146.298 480.462 145.75 479.047 145.75C477.645 145.75 476.472 146.221 475.529 147.164C474.598 148.095 474.132 149.31 474.132 150.806C474.132 152.303 474.598 153.518 475.529 154.449C476.472 155.392 477.645 155.863 479.047 155.863C480.521 155.863 481.8 155.244 482.884 154.007L484.069 155.156C483.468 155.875 482.731 156.435 481.859 156.836C480.986 157.225 480.049 157.419 479.047 157.419ZM487.141 144.477V157.136H485.514V144.477H487.141ZM488.542 152.804C488.542 151.472 488.96 150.37 489.797 149.498C490.646 148.626 491.712 148.19 492.997 148.19C494.282 148.19 495.343 148.626 496.18 149.498C497.028 150.37 497.453 151.472 497.453 152.804C497.453 154.148 497.028 155.25 496.18 156.111C495.343 156.983 494.282 157.419 492.997 157.419C491.712 157.419 490.646 156.983 489.797 156.111C488.96 155.238 488.542 154.136 488.542 152.804ZM490.168 152.804C490.168 153.736 490.439 154.49 490.981 155.068C491.524 155.645 492.196 155.934 492.997 155.934C493.799 155.934 494.471 155.645 495.013 155.068C495.555 154.49 495.826 153.736 495.826 152.804C495.826 151.885 495.555 151.137 495.013 150.559C494.459 149.97 493.787 149.675 492.997 149.675C492.207 149.675 491.535 149.97 490.981 150.559C490.439 151.137 490.168 151.885 490.168 152.804ZM506.447 157.136H504.891V155.934H504.82C504.573 156.358 504.189 156.712 503.671 156.995C503.164 157.278 502.634 157.419 502.08 157.419C501.019 157.419 500.199 157.119 499.622 156.517C499.056 155.904 498.773 155.038 498.773 153.918V148.473H500.4V153.812C500.435 155.227 501.148 155.934 502.539 155.934C503.188 155.934 503.73 155.675 504.166 155.156C504.602 154.626 504.82 153.995 504.82 153.264V148.473H506.447V157.136ZM512.23 155.934C513.032 155.934 513.686 155.645 514.193 155.068C514.723 154.49 514.988 153.736 514.988 152.804C514.988 151.897 514.723 151.148 514.193 150.559C513.674 149.97 513.02 149.675 512.23 149.675C511.452 149.675 510.798 149.97 510.268 150.559C509.737 151.148 509.472 151.897 509.472 152.804C509.472 153.724 509.737 154.472 510.268 155.05C510.798 155.639 511.452 155.934 512.23 155.934ZM511.965 157.419C510.833 157.419 509.861 156.971 509.048 156.075C508.246 155.168 507.845 154.077 507.845 152.804C507.845 151.531 508.246 150.441 509.048 149.533C509.861 148.638 510.833 148.19 511.965 148.19C512.602 148.19 513.179 148.325 513.698 148.596C514.228 148.867 514.635 149.227 514.918 149.675H514.988L514.918 148.473V144.477H516.544V157.136H514.988V155.934H514.918C514.635 156.382 514.228 156.741 513.698 157.012C513.179 157.284 512.602 157.419 511.965 157.419Z" fill="#322323"/>
<path d="M476.642 69.9674H479.752L488.612 61.107L489.037 57.3437C483.96 52.8713 477.828 49.7657 471.219 48.3199C464.609 46.8742 457.741 47.1358 451.261 49.0803C444.78 51.0247 438.902 54.5878 434.181 59.4335C429.459 64.2792 426.05 70.2477 424.274 76.7762C425.262 76.373 426.356 76.3087 427.384 76.5935L445.104 73.667C445.104 73.667 446.009 72.1761 446.472 72.2695C450.27 68.0994 455.518 65.5384 461.143 65.1104C466.767 64.6825 472.342 66.42 476.727 69.9674H476.642Z" fill="#EA4335"/>
<path d="M501.235 76.7764C499.196 69.2809 495.014 62.5435 489.202 57.3906L476.765 69.8274C479.358 71.9439 481.436 74.6222 482.843 77.6597C484.249 80.6972 484.946 84.0147 484.882 87.3613V89.57C487.818 89.57 490.633 90.7362 492.709 92.8121C494.785 94.8879 495.951 97.7034 495.951 100.639C495.951 103.575 494.785 106.39 492.709 108.466C490.633 110.542 487.818 111.708 484.882 111.708H462.744L460.535 113.947V127.224L462.744 129.429H484.882C491.065 129.478 497.099 127.536 502.091 123.889C507.084 120.242 510.77 115.085 512.605 109.181C514.439 103.277 514.324 96.9389 512.276 91.1052C510.228 85.2715 506.357 80.2519 501.235 76.7891V76.7764Z" fill="#4285F4"/>
<path d="M440.577 129.293H462.715V111.572H440.577C439 111.57 437.441 111.229 436.007 110.574L432.897 111.538L423.977 120.399L423.2 123.508C428.203 127.286 434.308 129.319 440.577 129.293V129.293Z" fill="#34A853"/>
<path d="M440.576 71.8024C434.578 71.8375 428.74 73.7454 423.879 77.2596C419.017 80.7737 415.375 85.7186 413.461 91.4034C411.546 97.0883 411.455 103.229 413.201 108.968C414.946 114.707 418.44 119.758 423.195 123.414L436.036 110.574C434.404 109.837 432.975 108.715 431.872 107.304C430.769 105.893 430.024 104.235 429.703 102.473C429.381 100.712 429.492 98.898 430.026 97.1884C430.559 95.4788 431.5 93.9242 432.766 92.658C434.033 91.3918 435.588 90.4518 437.297 89.9187C439.007 89.3857 440.821 89.2754 442.582 89.5975C444.344 89.9195 446.001 90.6642 447.412 91.7676C448.823 92.8711 449.944 94.3003 450.681 95.9327L463.522 83.0881C460.826 79.5656 457.352 76.7141 453.372 74.7563C449.391 72.7986 445.012 71.7876 440.576 71.8024V71.8024Z" fill="#FBBC05"/>
<g filter="url(#filter4_ddd_859_5423)">
<rect x="22" y="464.251" width="214.126" height="194.498" rx="21.4126" fill="white"/>
</g>
<path d="M129.509 510.269C125.656 510.269 121.84 511.028 118.28 512.503C114.72 513.977 111.485 516.139 108.76 518.863C103.258 524.366 100.166 531.83 100.166 539.612C100.166 552.582 108.588 563.586 120.237 567.488C121.704 567.723 122.173 566.813 122.173 566.021V561.062C114.045 562.823 112.314 557.13 112.314 557.13C110.964 553.726 109.057 552.817 109.057 552.817C106.387 550.997 109.262 551.056 109.262 551.056C112.197 551.262 113.752 554.079 113.752 554.079C116.305 558.539 120.618 557.218 122.291 556.514C122.555 554.607 123.318 553.316 124.139 552.582C117.625 551.848 110.788 549.325 110.788 538.145C110.788 534.888 111.903 532.276 113.811 530.193C113.517 529.46 112.49 526.408 114.104 522.446C114.104 522.446 116.569 521.654 122.173 525.44C124.492 524.794 127.015 524.471 129.509 524.471C132.003 524.471 134.527 524.794 136.845 525.44C142.45 521.654 144.914 522.446 144.914 522.446C146.528 526.408 145.501 529.46 145.208 530.193C147.115 532.276 148.23 534.888 148.23 538.145C148.23 549.354 141.364 551.819 134.82 552.553C135.877 553.462 136.845 555.252 136.845 557.981V566.021C136.845 566.813 137.315 567.752 138.811 567.488C150.46 563.556 158.853 552.582 158.853 539.612C158.853 535.759 158.094 531.943 156.619 528.383C155.144 524.823 152.983 521.588 150.258 518.863C147.533 516.139 144.299 513.977 140.738 512.503C137.178 511.028 133.363 510.269 129.509 510.269V510.269Z" fill="black"/>
<g clip-path="url(#clip2_859_5423)">
<path fill-rule="evenodd" clip-rule="evenodd" d="M120.773 610.102H120.729C120.749 610.102 120.762 610.124 120.782 610.126H120.795L120.773 610.104V610.102ZM120.782 610.126C120.577 610.128 120.062 610.236 119.519 610.236C117.802 610.236 117.208 609.444 117.208 608.41V601.519H120.707C120.905 601.519 121.059 601.343 121.059 601.101V597.36C121.059 597.162 120.883 596.985 120.707 596.985H117.208V592.342C117.208 592.166 117.098 592.056 116.9 592.056H112.146C111.948 592.056 111.838 592.166 111.838 592.342V597.118C111.838 597.118 109.439 597.712 109.285 597.734C109.109 597.778 108.999 597.932 108.999 598.108V601.101C108.999 601.343 109.175 601.519 109.373 601.519H111.816V608.737C111.816 614.107 115.557 614.657 118.11 614.657C119.276 614.657 120.685 614.283 120.905 614.173C121.037 614.129 121.103 613.975 121.103 613.821V610.52C121.106 610.426 121.075 610.335 121.016 610.262C120.957 610.189 120.874 610.14 120.782 610.124V610.126ZM172.931 605.282C172.931 601.299 171.324 600.771 169.629 600.947C168.309 601.035 167.253 601.695 167.253 601.695V609.442C167.253 609.442 168.331 610.19 169.938 610.234C172.204 610.3 172.931 609.486 172.931 605.282ZM178.278 604.93C178.278 612.479 175.836 614.635 171.566 614.635C167.957 614.635 166.02 612.809 166.02 612.809C166.02 612.809 165.932 613.821 165.822 613.953C165.756 614.085 165.646 614.129 165.514 614.129H162.257C162.037 614.129 161.839 613.953 161.839 613.755L161.883 589.305C161.883 589.107 162.059 588.931 162.257 588.931H166.945C167.143 588.931 167.319 589.107 167.319 589.305V597.602C167.319 597.602 169.123 596.435 171.764 596.435L171.742 596.391C174.383 596.391 178.278 597.382 178.278 604.93V604.93ZM159.088 596.985H154.466C154.224 596.985 154.092 597.162 154.092 597.404V609.376C154.092 609.376 152.882 610.234 151.231 610.234C149.581 610.234 149.097 609.486 149.097 607.835V597.382C149.097 597.184 148.92 597.008 148.722 597.008H144.013C143.815 597.008 143.639 597.184 143.639 597.382V608.627C143.639 613.469 146.346 614.679 150.065 614.679C153.124 614.679 155.611 612.985 155.611 612.985C155.611 612.985 155.721 613.843 155.787 613.975C155.831 614.085 155.985 614.173 156.139 614.173H159.088C159.33 614.173 159.462 613.997 159.462 613.799L159.506 597.36C159.506 597.162 159.33 596.985 159.088 596.985V596.985ZM106.93 596.963H102.243C102.045 596.963 101.869 597.162 101.869 597.404V613.557C101.869 613.997 102.155 614.151 102.529 614.151H106.754C107.194 614.151 107.304 613.953 107.304 613.557V597.338C107.304 597.14 107.128 596.963 106.93 596.963V596.963ZM104.619 589.525C102.925 589.525 101.582 590.867 101.582 592.562C101.582 594.257 102.925 595.599 104.619 595.599C106.27 595.599 107.612 594.257 107.612 592.562C107.612 590.867 106.27 589.525 104.619 589.525ZM140.91 588.975H136.266C136.068 588.975 135.892 589.151 135.892 589.349V598.35H128.608V589.349C128.608 589.151 128.432 588.975 128.233 588.975H123.546C123.348 588.975 123.172 589.151 123.172 589.349V613.799C123.172 613.997 123.37 614.173 123.546 614.173H128.233C128.432 614.173 128.608 613.997 128.608 613.799V603.346H135.892L135.848 613.799C135.848 613.997 136.024 614.173 136.222 614.173H140.91C141.108 614.173 141.284 613.997 141.284 613.799V589.349C141.284 589.151 141.108 588.975 140.91 588.975V588.975ZM99.3817 599.802V612.435C99.3817 612.523 99.3597 612.677 99.2497 612.721C99.2497 612.721 96.4987 614.679 91.9652 614.679C86.4854 614.679 79.9932 612.963 79.9932 601.651C79.9932 590.339 85.6711 588.006 91.217 588.028C96.0146 588.028 97.9512 589.107 98.2593 589.305C98.3474 589.415 98.3914 589.503 98.3914 589.613L97.4671 593.53C97.4671 593.728 97.269 593.97 97.0269 593.904C96.2347 593.662 95.0462 593.178 92.2513 593.178C89.0162 593.178 85.539 594.103 85.539 601.387C85.539 608.671 88.8402 609.53 91.217 609.53C93.2416 609.53 93.9679 609.288 93.9679 609.288V604.226H90.7328C90.4907 604.226 90.3147 604.05 90.3147 603.852V599.802C90.3147 599.604 90.4907 599.428 90.7328 599.428H98.9636C99.2057 599.428 99.3817 599.604 99.3817 599.802Z" fill="black"/>
</g>
<defs>
<filter id="filter0_ddd_859_5423" x="167.587" y="229.113" width="256.951" height="237.323" filterUnits="userSpaceOnUse" color-interpolation-filters="sRGB">
<feFlood flood-opacity="0" result="BackgroundImageFix"/>
<feColorMatrix in="SourceAlpha" type="matrix" values="0 0 0 0 0 0 0 0 0 0 0 0 0 0 0 0 0 0 127 0" result="hardAlpha"/>
<feOffset dy="14.2751"/>
<feGaussianBlur stdDeviation="10.7063"/>
<feComposite in2="hardAlpha" operator="out"/>
<feColorMatrix type="matrix" values="0 0 0 0 0 0 0 0 0 0 0 0 0 0 0 0 0 0 0.2 0"/>
<feBlend mode="normal" in2="BackgroundImageFix" result="effect1_dropShadow_859_5423"/>
<feColorMatrix in="SourceAlpha" type="matrix" values="0 0 0 0 0 0 0 0 0 0 0 0 0 0 0 0 0 0 127 0" result="hardAlpha"/>
<feOffset dy="14.2751"/>
<feGaussianBlur stdDeviation="10.7063"/>
<feComposite in2="hardAlpha" operator="out"/>
<feColorMatrix type="matrix" values="0 0 0 0 0 0 0 0 0 0 0 0 0 0 0 0 0 0 0.2 0"/>
<feBlend mode="normal" in2="effect1_dropShadow_859_5423" result="effect2_dropShadow_859_5423"/>
<feColorMatrix in="SourceAlpha" type="matrix" values="0 0 0 0 0 0 0 0 0 0 0 0 0 0 0 0 0 0 127 0" result="hardAlpha"/>
<feOffset dy="14.2751"/>
<feGaussianBlur stdDeviation="10.7063"/>
<feComposite in2="hardAlpha" operator="out"/>
<feColorMatrix type="matrix" values="0 0 0 0 0 0 0 0 0 0 0 0 0 0 0 0 0 0 0.2 0"/>
<feBlend mode="normal" in2="effect2_dropShadow_859_5423" result="effect3_dropShadow_859_5423"/>
<feBlend mode="normal" in="SourceGraphic" in2="effect3_dropShadow_859_5423" result="shape"/>
</filter>
<filter id="filter1_ddd_859_5423" x="0.58736" y="0.11343" width="256.951" height="237.323" filterUnits="userSpaceOnUse" color-interpolation-filters="sRGB">
<feFlood flood-opacity="0" result="BackgroundImageFix"/>
<feColorMatrix in="SourceAlpha" type="matrix" values="0 0 0 0 0 0 0 0 0 0 0 0 0 0 0 0 0 0 127 0" result="hardAlpha"/>
<feOffset dy="14.2751"/>
<feGaussianBlur stdDeviation="10.7063"/>
<feComposite in2="hardAlpha" operator="out"/>
<feColorMatrix type="matrix" values="0 0 0 0 0 0 0 0 0 0 0 0 0 0 0 0 0 0 0.2 0"/>
<feBlend mode="normal" in2="BackgroundImageFix" result="effect1_dropShadow_859_5423"/>
<feColorMatrix in="SourceAlpha" type="matrix" values="0 0 0 0 0 0 0 0 0 0 0 0 0 0 0 0 0 0 127 0" result="hardAlpha"/>
<feOffset dy="14.2751"/>
<feGaussianBlur stdDeviation="10.7063"/>
<feComposite in2="hardAlpha" operator="out"/>
<feColorMatrix type="matrix" values="0 0 0 0 0 0 0 0 0 0 0 0 0 0 0 0 0 0 0.2 0"/>
<feBlend mode="normal" in2="effect1_dropShadow_859_5423" result="effect2_dropShadow_859_5423"/>
<feColorMatrix in="SourceAlpha" type="matrix" values="0 0 0 0 0 0 0 0 0 0 0 0 0 0 0 0 0 0 127 0" result="hardAlpha"/>
<feOffset dy="14.2751"/>
<feGaussianBlur stdDeviation="10.7063"/>
<feComposite in2="hardAlpha" operator="out"/>
<feColorMatrix type="matrix" values="0 0 0 0 0 0 0 0 0 0 0 0 0 0 0 0 0 0 0.2 0"/>
<feBlend mode="normal" in2="effect2_dropShadow_859_5423" result="effect3_dropShadow_859_5423"/>
<feBlend mode="normal" in="SourceGraphic" in2="effect3_dropShadow_859_5423" result="shape"/>
</filter>
<filter id="filter2_ddd_859_5423" x="334.587" y="457.113" width="256.951" height="237.323" filterUnits="userSpaceOnUse" color-interpolation-filters="sRGB">
<feFlood flood-opacity="0" result="BackgroundImageFix"/>
<feColorMatrix in="SourceAlpha" type="matrix" values="0 0 0 0 0 0 0 0 0 0 0 0 0 0 0 0 0 0 127 0" result="hardAlpha"/>
<feOffset dy="14.2751"/>
<feGaussianBlur stdDeviation="10.7063"/>
<feComposite in2="hardAlpha" operator="out"/>
<feColorMatrix type="matrix" values="0 0 0 0 0 0 0 0 0 0 0 0 0 0 0 0 0 0 0.2 0"/>
<feBlend mode="normal" in2="BackgroundImageFix" result="effect1_dropShadow_859_5423"/>
<feColorMatrix in="SourceAlpha" type="matrix" values="0 0 0 0 0 0 0 0 0 0 0 0 0 0 0 0 0 0 127 0" result="hardAlpha"/>
<feOffset dy="14.2751"/>
<feGaussianBlur stdDeviation="10.7063"/>
<feComposite in2="hardAlpha" operator="out"/>
<feColorMatrix type="matrix" values="0 0 0 0 0 0 0 0 0 0 0 0 0 0 0 0 0 0 0.2 0"/>
<feBlend mode="normal" in2="effect1_dropShadow_859_5423" result="effect2_dropShadow_859_5423"/>
<feColorMatrix in="SourceAlpha" type="matrix" values="0 0 0 0 0 0 0 0 0 0 0 0 0 0 0 0 0 0 127 0" result="hardAlpha"/>
<feOffset dy="14.2751"/>
<feGaussianBlur stdDeviation="10.7063"/>
<feComposite in2="hardAlpha" operator="out"/>
<feColorMatrix type="matrix" values="0 0 0 0 0 0 0 0 0 0 0 0 0 0 0 0 0 0 0.2 0"/>
<feBlend mode="normal" in2="effect2_dropShadow_859_5423" result="effect3_dropShadow_859_5423"/>
<feBlend mode="normal" in="SourceGraphic" in2="effect3_dropShadow_859_5423" result="shape"/>
</filter>
<filter id="filter3_ddd_859_5423" x="334.587" y="0.11343" width="256.951" height="237.323" filterUnits="userSpaceOnUse" color-interpolation-filters="sRGB">
<feFlood flood-opacity="0" result="BackgroundImageFix"/>
<feColorMatrix in="SourceAlpha" type="matrix" values="0 0 0 0 0 0 0 0 0 0 0 0 0 0 0 0 0 0 127 0" result="hardAlpha"/>
<feOffset dy="14.2751"/>
<feGaussianBlur stdDeviation="10.7063"/>
<feComposite in2="hardAlpha" operator="out"/>
<feColorMatrix type="matrix" values="0 0 0 0 0 0 0 0 0 0 0 0 0 0 0 0 0 0 0.2 0"/>
<feBlend mode="normal" in2="BackgroundImageFix" result="effect1_dropShadow_859_5423"/>
<feColorMatrix in="SourceAlpha" type="matrix" values="0 0 0 0 0 0 0 0 0 0 0 0 0 0 0 0 0 0 127 0" result="hardAlpha"/>
<feOffset dy="14.2751"/>
<feGaussianBlur stdDeviation="10.7063"/>
<feComposite in2="hardAlpha" operator="out"/>
<feColorMatrix type="matrix" values="0 0 0 0 0 0 0 0 0 0 0 0 0 0 0 0 0 0 0.2 0"/>
<feBlend mode="normal" in2="effect1_dropShadow_859_5423" result="effect2_dropShadow_859_5423"/>
<feColorMatrix in="SourceAlpha" type="matrix" values="0 0 0 0 0 0 0 0 0 0 0 0 0 0 0 0 0 0 127 0" result="hardAlpha"/>
<feOffset dy="14.2751"/>
<feGaussianBlur stdDeviation="10.7063"/>
<feComposite in2="hardAlpha" operator="out"/>
<feColorMatrix type="matrix" values="0 0 0 0 0 0 0 0 0 0 0 0 0 0 0 0 0 0 0.2 0"/>
<feBlend mode="normal" in2="effect2_dropShadow_859_5423" result="effect3_dropShadow_859_5423"/>
<feBlend mode="normal" in="SourceGraphic" in2="effect3_dropShadow_859_5423" result="shape"/>
</filter>
<filter id="filter4_ddd_859_5423" x="0.58736" y="457.113" width="256.951" height="237.323" filterUnits="userSpaceOnUse" color-interpolation-filters="sRGB">
<feFlood flood-opacity="0" result="BackgroundImageFix"/>
<feColorMatrix in="SourceAlpha" type="matrix" values="0 0 0 0 0 0 0 0 0 0 0 0 0 0 0 0 0 0 127 0" result="hardAlpha"/>
<feOffset dy="14.2751"/>
<feGaussianBlur stdDeviation="10.7063"/>
<feComposite in2="hardAlpha" operator="out"/>
<feColorMatrix type="matrix" values="0 0 0 0 0 0 0 0 0 0 0 0 0 0 0 0 0 0 0.2 0"/>
<feBlend mode="normal" in2="BackgroundImageFix" result="effect1_dropShadow_859_5423"/>
<feColorMatrix in="SourceAlpha" type="matrix" values="0 0 0 0 0 0 0 0 0 0 0 0 0 0 0 0 0 0 127 0" result="hardAlpha"/>
<feOffset dy="14.2751"/>
<feGaussianBlur stdDeviation="10.7063"/>
<feComposite in2="hardAlpha" operator="out"/>
<feColorMatrix type="matrix" values="0 0 0 0 0 0 0 0 0 0 0 0 0 0 0 0 0 0 0.2 0"/>
<feBlend mode="normal" in2="effect1_dropShadow_859_5423" result="effect2_dropShadow_859_5423"/>
<feColorMatrix in="SourceAlpha" type="matrix" values="0 0 0 0 0 0 0 0 0 0 0 0 0 0 0 0 0 0 127 0" result="hardAlpha"/>
<feOffset dy="14.2751"/>
<feGaussianBlur stdDeviation="10.7063"/>
<feComposite in2="hardAlpha" operator="out"/>
<feColorMatrix type="matrix" values="0 0 0 0 0 0 0 0 0 0 0 0 0 0 0 0 0 0 0.2 0"/>
<feBlend mode="normal" in2="effect2_dropShadow_859_5423" result="effect3_dropShadow_859_5423"/>
<feBlend mode="normal" in="SourceGraphic" in2="effect3_dropShadow_859_5423" result="shape"/>
</filter>
<clipPath id="clip0_859_5423">
<rect width="107.063" height="80.2974" fill="white" transform="translate(242.531 293.352)"/>
</clipPath>
<clipPath id="clip1_859_5423">
<rect width="107.063" height="63.987" fill="white" transform="translate(75.5312 72.3809)"/>
</clipPath>
<clipPath id="clip2_859_5423">
<rect width="99.0335" height="35.2119" fill="white" transform="translate(79.9932 583.626)"/>
</clipPath>
</defs>
</svg>
