<svg width="32" height="32" viewBox="0 0 32 32" fill="none" xmlns="http://www.w3.org/2000/svg">
<path d="M15.9978 12.9987C14.3451 12.9987 12.9965 14.3474 12.9965 16C12.9965 17.6526 14.3451 19.0013 15.9978 19.0013C17.6504 19.0013 18.999 17.6526 18.999 16C18.999 14.3474 17.6504 12.9987 15.9978 12.9987ZM24.9994 16C24.9994 14.7572 25.0106 13.5256 24.9408 12.285C24.871 10.844 24.5423 9.56515 23.4886 8.51144C22.4326 7.45548 21.156 7.12901 19.715 7.05921C18.4722 6.98941 17.2406 7.00067 16 7.00067C14.7572 7.00067 13.5256 6.98941 12.285 7.05921C10.844 7.12901 9.56516 7.45773 8.51144 8.51144C7.45548 9.5674 7.12901 10.844 7.05921 12.285C6.98941 13.5278 7.00067 14.7594 7.00067 16C7.00067 17.2406 6.98941 18.4744 7.05921 19.715C7.12901 21.156 7.45773 22.4348 8.51144 23.4886C9.56741 24.5445 10.844 24.871 12.285 24.9408C13.5278 25.0106 14.7594 24.9993 16 24.9993C17.2429 24.9993 18.4744 25.0106 19.715 24.9408C21.156 24.871 22.4349 24.5423 23.4886 23.4886C24.5445 22.4326 24.871 21.156 24.9408 19.715C25.0129 18.4744 24.9994 17.2428 24.9994 16ZM15.9978 20.6179C13.4423 20.6179 11.3799 18.5555 11.3799 16C11.3799 13.4445 13.4423 11.3821 15.9978 11.3821C18.5532 11.3821 20.6156 13.4445 20.6156 16C20.6156 18.5555 18.5532 20.6179 15.9978 20.6179ZM20.8048 12.2715C20.2081 12.2715 19.7263 11.7897 19.7263 11.193C19.7263 10.5963 20.2081 10.1145 20.8048 10.1145C21.4014 10.1145 21.8832 10.5963 21.8832 11.193C21.8834 11.3347 21.8556 11.475 21.8015 11.6059C21.7474 11.7369 21.6679 11.8558 21.5678 11.956C21.4676 12.0562 21.3486 12.1356 21.2177 12.1897C21.0868 12.2439 20.9464 12.2717 20.8048 12.2715Z" fill="#0E2C66"/>
<rect x="0.5" y="0.5" width="31" height="31" rx="7.5" stroke="#0E2C66"/>
</svg>
