<svg width="82" height="109" viewBox="0 0 82 109" fill="none" xmlns="http://www.w3.org/2000/svg">
<g clip-path="url(#clip0_1270_2430)">
<path d="M70.142 0H39.4043C39.4043 3.68001 40.8662 7.2093 43.4683 9.81146C46.0705 12.4136 49.5998 13.8755 53.2798 13.8755H58.942V19.3425C58.947 26.9988 65.1523 33.2043 72.8085 33.2093V2.6665C72.8085 1.19425 71.615 0 70.142 0Z" fill="#2684FF"/>
<path d="M54.9328 15.3154H24.1953C24.2001 22.9717 30.4053 29.1772 38.0618 29.1822H43.7241V34.6667C43.7338 42.3229 49.9433 48.5242 57.5996 48.5242V17.9824C57.5996 16.5097 56.4056 15.3157 54.9328 15.3157V15.3154Z" fill="url(#paint0_linear_1270_2430)"/>
<path d="M39.7153 30.6223H8.97754C8.97754 38.2856 15.19 44.4978 22.853 44.4978H28.533V49.9646C28.538 57.6138 34.7325 63.8166 42.382 63.8311V33.2891C42.382 31.8163 41.188 30.6223 39.7153 30.6223Z" fill="url(#paint1_linear_1270_2430)"/>
</g>
<path d="M18.576 75.072V99.792C18.576 102.544 17.728 104.752 16.032 106.416C14.336 108.048 12.096 108.864 9.312 108.864C6.496 108.864 4.24 108.032 2.544 106.368C0.848 104.672 0 102.368 0 99.456H4.368C4.4 101.088 4.816 102.416 5.616 103.44C6.448 104.464 7.68 104.976 9.312 104.976C10.944 104.976 12.16 104.496 12.96 103.536C13.76 102.544 14.16 101.296 14.16 99.792V75.072H18.576Z" fill="#15161A"/>
<path d="M29.4371 77.952C28.6051 77.952 27.9011 77.664 27.3251 77.088C26.7491 76.512 26.4611 75.808 26.4611 74.976C26.4611 74.144 26.7491 73.44 27.3251 72.864C27.9011 72.288 28.6051 72 29.4371 72C30.2371 72 30.9091 72.288 31.4531 72.864C32.0291 73.44 32.3171 74.144 32.3171 74.976C32.3171 75.808 32.0291 76.512 31.4531 77.088C30.9091 77.664 30.2371 77.952 29.4371 77.952ZM31.5491 82.224V108.528H27.1811V82.224H31.5491Z" fill="#15161A"/>
<path d="M43.3616 86.496C44.1296 84.992 45.2176 83.824 46.6256 82.992C48.0656 82.16 49.8096 81.744 51.8576 81.744V86.256H50.7056C45.8096 86.256 43.3616 88.912 43.3616 94.224V108.528H38.9936V82.224H43.3616V86.496Z" fill="#15161A"/>
<path d="M55.2679 95.28C55.2679 92.592 55.8119 90.24 56.8999 88.224C57.9879 86.176 59.4759 84.592 61.3639 83.472C63.2839 82.352 65.4119 81.792 67.7479 81.792C70.0519 81.792 72.0519 82.288 73.7479 83.28C75.4439 84.272 76.7079 85.52 77.5399 87.024V82.224H81.9559V108.528H77.5399V103.632C76.6759 105.168 75.3799 106.448 73.6519 107.472C71.9559 108.464 69.9719 108.96 67.6999 108.96C65.3639 108.96 63.2519 108.384 61.3639 107.232C59.4759 106.08 57.9879 104.464 56.8999 102.384C55.8119 100.304 55.2679 97.936 55.2679 95.28ZM77.5399 95.328C77.5399 93.344 77.1399 91.616 76.3399 90.144C75.5399 88.672 74.4519 87.552 73.0759 86.784C71.7319 85.984 70.2439 85.584 68.6119 85.584C66.9799 85.584 65.4919 85.968 64.1479 86.736C62.8039 87.504 61.7319 88.624 60.9319 90.096C60.1319 91.568 59.7319 93.296 59.7319 95.28C59.7319 97.296 60.1319 99.056 60.9319 100.56C61.7319 102.032 62.8039 103.168 64.1479 103.968C65.4919 104.736 66.9799 105.12 68.6119 105.12C70.2439 105.12 71.7319 104.736 73.0759 103.968C74.4519 103.168 75.5399 102.032 76.3399 100.56C77.1399 99.056 77.5399 97.312 77.5399 95.328Z" fill="#15161A"/>
<defs>
<linearGradient id="paint0_linear_1270_2430" x1="56.9418" y1="15.3689" x2="43.946" y2="28.9295" gradientUnits="userSpaceOnUse">
<stop offset="0.18" stop-color="#0052CC"/>
<stop offset="1" stop-color="#2684FF"/>
</linearGradient>
<linearGradient id="paint1_linear_1270_2430" x1="42.6042" y1="30.7734" x2="27.5712" y2="45.5639" gradientUnits="userSpaceOnUse">
<stop offset="0.18" stop-color="#0052CC"/>
<stop offset="1" stop-color="#2684FF"/>
</linearGradient>
<clipPath id="clip0_1270_2430">
<rect width="64" height="64" fill="white" transform="translate(8.97754)"/>
</clipPath>
</defs>
</svg>
