<svg width="34" height="32" viewBox="0 0 34 32" fill="none" xmlns="http://www.w3.org/2000/svg">
<path d="M11.2748 25V12.8554H7.23816V25H11.2748ZM9.25699 11.1963C10.6646 11.1963 11.5408 10.2637 11.5408 9.09835C11.5146 7.90668 10.6647 7 9.2837 7C7.90294 7 7 7.90669 7 9.09835C7 10.2638 7.87597 11.1963 9.23064 11.1963H9.25686H9.25699ZM13.509 25H17.5456V18.2179C17.5456 17.8549 17.5719 17.4923 17.6785 17.2328C17.9703 16.5076 18.6345 15.7565 19.7495 15.7565C21.2102 15.7565 21.7946 16.8702 21.7946 18.5028V24.9999H25.8309V18.0363C25.8309 14.306 23.8395 12.5703 21.1836 12.5703C19.0061 12.5703 18.05 13.7875 17.5188 14.6165H17.5457V12.8552H13.5091C13.5621 13.9948 13.5091 24.9997 13.5091 24.9997L13.509 25Z" fill="#0E2C66"/>
<rect x="0.5" y="0.5" width="32.4771" height="31" rx="7.5" stroke="#0E2C66"/>
</svg>
