<svg width="211" height="69" viewBox="0 0 211 69" fill="none" xmlns="http://www.w3.org/2000/svg">
<path fill-rule="evenodd" clip-rule="evenodd" d="M19.1569 2.38755C24.2613 1.12982 29.6856 0 32.9318 0C36.1779 0 41.6022 1.12982 46.7066 2.38755C51.9287 3.6666 57.1931 5.18014 60.2886 6.09679C61.5829 6.48413 62.7303 7.19449 63.5991 8.14625C64.4679 9.09802 65.0229 10.2526 65.2002 11.4773C67.7815 29.0495 62.4722 42.4338 55.4536 51.7499H48.2215C47.572 51.7499 47.0454 52.2765 47.0454 52.9261C47.0454 53.5756 47.572 54.1022 48.2215 54.1022H53.5762C52.903 54.9059 52.2038 55.6903 51.4798 56.4544H45.8693C45.2197 56.4544 44.6931 56.981 44.6931 57.6306C44.6931 58.2801 45.2197 58.8067 45.8693 58.8067H49.1036C48.2299 59.6182 47.3261 60.4028 46.3937 61.159H43.517C42.8674 61.159 42.3409 61.6856 42.3409 62.3351C42.3409 62.9101 42.7535 63.3888 43.2988 63.491C42.7935 63.8445 42.2812 64.1901 41.7622 64.5279C40.2054 65.5417 38.556 66.4331 36.8318 67.1926C35.5146 67.7554 34.0985 68.2158 32.9318 68.2158C31.765 68.2158 30.3537 67.7554 29.0317 67.1926C27.3076 66.4332 25.6581 65.5417 24.1014 64.5279C19.5992 61.5982 15.6077 58.0728 12.26 54.0696C4.36583 44.7112 -2.14054 30.565 0.663365 11.4773C0.840666 10.2526 1.39559 9.09802 2.2644 8.14625C3.1332 7.19449 4.28064 6.48413 5.5749 6.09679C10.0686 4.7615 14.5973 3.52473 19.1569 2.38755ZM36.9448 6.56091C35.9491 6.51277 34.9407 6.48869 33.9195 6.48869C32.0879 6.48869 30.2663 6.55837 28.4546 6.69773C26.6629 6.83709 24.9408 7.06604 23.2884 7.38458C21.6559 7.70311 20.1329 8.13115 18.7194 8.66868C17.3058 9.1863 16.0815 9.83333 15.0462 10.6098C14.0309 11.3663 13.2246 12.2622 12.6273 13.2974C12.05 14.3127 11.7613 15.4874 11.7613 16.8212V32.111H23.6421V26.0787H19.5256V18.9713C19.5256 17.737 19.9437 16.7316 20.7799 15.9552C21.616 15.1788 22.711 14.5716 24.0648 14.1336L24.1489 14.107C24.2372 13.9047 24.337 13.7045 24.4484 13.5065C24.986 12.5508 25.7325 11.6749 26.6882 10.8785C27.6637 10.0822 28.8184 9.36548 30.1522 8.7284C31.506 8.09133 32.9992 7.5538 34.6317 7.11581C35.3802 6.90837 36.1513 6.7234 36.9448 6.56091ZM31.4662 26.0787V32.111H48.1342V39.3975C48.1342 40.592 47.7261 41.5775 46.9098 42.3539C46.1135 43.1303 45.0484 43.7475 43.7145 44.2054C42.4005 44.6434 40.8875 44.952 39.1754 45.1312C38.6747 45.1783 38.1688 45.2184 37.6578 45.2516C38.3583 45.4536 39.1115 45.6325 39.9174 45.7881C41.6693 46.1067 43.6104 46.2659 45.7406 46.2659C47.9505 46.2659 49.9314 46.0967 51.6833 45.7583C53.0093 45.4871 54.1813 45.1531 55.1994 44.7564C55.6655 43.7956 55.8985 42.726 55.8985 41.5476V26.0787H31.4662ZM35.9713 51.9094C35.5171 51.8071 35.0705 51.6978 34.6317 51.5815C32.9992 51.1236 31.506 50.5861 30.1522 49.9689C28.8184 49.3319 27.6637 48.6152 26.6882 47.8188C25.7325 47.0225 24.986 46.1564 24.4484 45.2207C24.2622 44.8897 24.1083 44.5527 23.9866 44.2097C22.6688 43.7737 21.5999 43.1751 20.7799 42.4136C19.9437 41.6372 19.5256 40.6318 19.5256 39.3975L11.7613 41.5476C11.9007 42.9014 12.2889 44.0959 12.926 45.1312C13.563 46.1664 14.3992 47.0722 15.4344 47.8487C16.4697 48.6052 17.6642 49.2522 19.018 49.7898C20.3917 50.3074 21.8749 50.7255 23.4675 51.044C25.0602 51.3625 26.7425 51.5915 28.5143 51.7308C30.2862 51.8702 32.0879 51.9399 33.9195 51.9399C34.6035 51.9399 35.2874 51.9297 35.9713 51.9094ZM38.5215 13.203C38.9677 13.0952 39.433 12.9973 39.9174 12.9092C41.6693 12.5708 43.6104 12.4015 45.7406 12.4015C47.9505 12.4015 49.9314 12.5807 51.6833 12.9391C52.9496 13.1837 54.0756 13.4959 55.061 13.8758C55.5008 14.7612 55.7799 15.7431 55.8985 16.8212L48.1342 18.9713C48.1342 17.7768 47.7261 16.8013 46.9098 16.0448C46.1135 15.2684 45.0484 14.6611 43.7145 14.2232C42.4005 13.7653 40.8875 13.4467 39.1754 13.2675C38.9584 13.2446 38.7404 13.2231 38.5215 13.203Z" fill="white"/>
<path d="M83.6252 48.815C83.6252 44.9727 84.6554 42.0113 86.716 39.9309C88.5077 38.1192 90.7873 37.2133 93.5546 37.2133C97.2575 37.2133 99.9651 38.4278 101.677 40.8566C102.623 42.2203 103.131 43.5891 103.2 44.9627H98.6014C98.3027 43.9076 97.9195 43.1113 97.4516 42.5737C96.6155 41.6181 95.3762 41.1403 93.7337 41.1403C92.0614 41.1403 90.7425 41.8172 89.7769 43.171C88.8113 44.5148 88.3286 46.421 88.3286 48.8897C88.3286 51.3584 88.8362 53.2099 89.8516 54.4442C90.8769 55.6686 92.1759 56.2807 93.7487 56.2807C95.3613 56.2807 96.5906 55.7532 97.4367 54.698C97.9046 54.1306 98.2928 53.2795 98.6014 52.1448H103.155C102.757 54.5437 101.737 56.4948 100.094 57.9979C98.462 59.5009 96.3666 60.2525 93.8084 60.2525C90.6429 60.2525 88.1544 59.2372 86.3427 57.2065C84.531 55.1659 83.6252 52.3687 83.6252 48.815Z" fill="white"/>
<path d="M116.415 56.3554C118.236 56.3554 119.68 55.6835 120.745 54.3397C121.82 52.9958 122.357 51.0846 122.357 48.606C122.357 46.1374 121.82 44.2311 120.745 42.8873C119.68 41.5335 118.236 40.8566 116.415 40.8566C114.593 40.8566 113.14 41.5285 112.055 42.8724C110.97 44.2162 110.427 46.1274 110.427 48.606C110.427 51.0846 110.97 52.9958 112.055 54.3397C113.14 55.6835 114.593 56.3554 116.415 56.3554ZM126.956 48.606C126.956 52.5579 125.846 55.5839 123.626 57.6843C121.964 59.3964 119.56 60.2525 116.415 60.2525C113.269 60.2525 110.865 59.3964 109.203 57.6843C106.973 55.5839 105.858 52.5579 105.858 48.606C105.858 44.5745 106.973 41.5484 109.203 39.5277C110.865 37.8156 113.269 36.9595 116.415 36.9595C119.56 36.9595 121.964 37.8156 123.626 39.5277C125.846 41.5484 126.956 44.5745 126.956 48.606Z" fill="white"/>
<path d="M145.068 37.6314H151.682V59.6403H147.397V44.7537C147.397 44.3257 147.402 43.7284 147.412 42.9619C147.422 42.1855 147.427 41.5883 147.427 41.1702L143.261 59.6403H138.797L134.661 41.1702C134.661 41.5883 134.666 42.1855 134.676 42.9619C134.686 43.7284 134.691 44.3257 134.691 44.7537V59.6403H130.405V37.6314H137.095L141.096 54.9369L145.068 37.6314Z" fill="white"/>
<path d="M168.346 44.6343C168.346 43.4895 168.042 42.6733 167.435 42.1855C166.838 41.6978 165.997 41.4539 164.912 41.4539H160.626V47.9341H164.912C165.997 47.9341 166.838 47.6703 167.435 47.1427C168.042 46.6152 168.346 45.779 168.346 44.6343ZM172.9 44.6044C172.9 47.2025 172.243 49.039 170.929 50.1141C169.615 51.1891 167.739 51.7267 165.3 51.7267H160.626V59.6403H156.057V37.6314H165.643C167.853 37.6314 169.615 38.1988 170.929 39.3336C172.243 40.4684 172.9 42.2253 172.9 44.6044Z" fill="white"/>
<path d="M176.349 37.6314H180.948V55.6835H191.848V59.6403H176.349V37.6314Z" fill="white"/>
<path d="M204.793 37.6314H210.005L202.643 51.3683V59.6403H198.044V51.3683L190.429 37.6314H195.85L200.419 47.2174L204.793 37.6314Z" fill="white"/>
<path d="M89.0214 26.9333C89.1881 28.1361 89.5156 29.0352 90.0038 29.6306C90.897 30.7143 92.4272 31.2561 94.5945 31.2561C95.8925 31.2561 96.9464 31.1132 97.7562 30.8274C99.2924 30.2796 100.06 29.2614 100.06 27.7729C100.06 26.9036 99.6794 26.2308 98.9173 25.7544C98.1551 25.29 96.9583 24.8792 95.3269 24.5219L92.5403 23.8967C89.8014 23.2775 87.908 22.6047 86.86 21.8782C85.0857 20.6636 84.1985 18.7642 84.1985 16.1801C84.1985 13.8222 85.0559 11.8633 86.7707 10.3033C88.4855 8.74332 91.0042 7.96332 94.3266 7.96332C97.1012 7.96332 99.465 8.70164 101.418 10.1783C103.383 11.643 104.413 13.7746 104.508 16.5731H99.2209C99.1256 14.9893 98.435 13.8639 97.1489 13.197C96.2915 12.7564 95.2257 12.5361 93.9515 12.5361C92.5344 12.5361 91.4031 12.8219 90.5576 13.3935C89.7121 13.9651 89.2893 14.763 89.2893 15.7871C89.2893 16.7279 89.7061 17.4305 90.5397 17.8949C91.0756 18.2045 92.2188 18.5677 93.9693 18.9845L98.5064 20.0741C100.495 20.5505 101.996 21.1876 103.008 21.9854C104.58 23.2239 105.366 25.0161 105.366 27.362C105.366 29.7675 104.443 31.7681 102.597 33.3639C100.763 34.9477 98.167 35.7396 94.8089 35.7396C91.3793 35.7396 88.682 34.9596 86.7171 33.3996C84.7523 31.8277 83.7698 29.6723 83.7698 26.9333H89.0214Z" fill="white"/>
<path d="M126.524 8.73141H134.437V35.0608H129.311V17.2518C129.311 16.7398 129.317 16.0253 129.329 15.1083C129.34 14.1795 129.346 13.465 129.346 12.9648L124.363 35.0608H119.022L114.074 12.9648C114.074 13.465 114.08 14.1795 114.092 15.1083C114.104 16.0253 114.11 16.7398 114.11 17.2518V35.0608H108.983V8.73141H116.986L121.773 29.4341L126.524 8.73141Z" fill="white"/>
<path d="M146.379 25.1114H153.059L149.773 14.7511L146.379 25.1114ZM146.718 8.73141H152.934L162.259 35.0608H156.292L154.596 29.6485H144.896L143.074 35.0608H137.322L146.718 8.73141Z" fill="white"/>
<path d="M170.753 13.3042V20.3778H176.987C178.225 20.3778 179.154 20.2349 179.773 19.9491C180.869 19.4489 181.417 18.4605 181.417 16.9839C181.417 15.3882 180.887 14.3164 179.827 13.7686C179.231 13.459 178.338 13.3042 177.147 13.3042H170.753ZM178.291 8.73141C180.136 8.76713 181.553 8.99339 182.542 9.41019C183.542 9.82698 184.388 10.4403 185.078 11.25C185.65 11.9169 186.102 12.6552 186.436 13.465C186.769 14.2748 186.936 15.1977 186.936 16.2337C186.936 17.4841 186.62 18.7166 185.989 19.9312C185.358 21.134 184.316 21.9854 182.863 22.4856C184.078 22.9738 184.935 23.6705 185.436 24.5755C185.948 25.4686 186.204 26.8381 186.204 28.6839V30.4523C186.204 31.655 186.251 32.4707 186.347 32.8994C186.489 33.5782 186.823 34.0784 187.347 34.3999V35.0608H181.291C181.125 34.4773 181.006 34.0069 180.934 33.6497C180.791 32.9113 180.714 32.1552 180.702 31.3811L180.666 28.934C180.642 27.2549 180.333 26.1355 179.737 25.5758C179.154 25.0161 178.052 24.7363 176.433 24.7363H170.753V35.0608H165.376V8.73141H178.291Z" fill="white"/>
<path d="M210.452 8.73141V13.3935H202.575V35.0608H197.038V13.3935H189.125V8.73141H210.452Z" fill="white"/>
</svg>
