<svg width="300" height="300" viewBox="0 0 446 432" fill="none" xmlns="http://www.w3.org/2000/svg">
<path d="M222.692 431.923C345.681 431.923 445.383 374.36 445.383 303.352C445.383 232.344 345.681 174.78 222.692 174.78C99.7024 174.78 0 232.344 0 303.352C0 374.36 99.7024 431.923 222.692 431.923Z" fill="#F0F0F0"/>
<path d="M350.583 347.964C335.98 339.533 335.98 325.865 350.583 317.435C365.186 309.004 388.862 309.004 403.465 317.435C418.068 325.865 418.068 339.533 403.465 347.964C388.862 356.394 365.186 356.394 350.583 347.964Z" fill="#E0E0E0"/>
<path d="M53.5727 349.135L15.1609 326.962C12.9965 325.714 12.9965 323.682 15.1609 322.434L238.59 193.437C239.804 192.822 241.146 192.501 242.507 192.501C243.869 192.501 245.211 192.822 246.425 193.437L284.846 215.611C287.011 216.859 287.011 218.891 284.846 220.139L61.4176 349.135C60.2016 349.751 58.8579 350.071 57.4951 350.071C56.1323 350.071 54.7886 349.751 53.5727 349.135Z" fill="#E0E0E0"/>
<path d="M191.641 309.609L224.665 290.516C228.068 288.55 229.769 285.979 229.769 283.399C229.769 280.819 229.769 278.806 229.769 278.806L195.516 259.486C194.56 258.868 193.763 258.031 193.191 257.046C192.619 256.06 192.289 254.953 192.227 253.815V213.088L134.572 246.415V287.123C134.638 288.26 134.97 289.365 135.542 290.35C136.113 291.335 136.907 292.172 137.861 292.794L167.01 309.58C173.796 313.541 184.836 313.541 191.641 309.609Z" fill="#0E2C66"/>
<g opacity="0.6">
<path opacity="0.6" d="M191.641 309.609L224.665 290.516C228.068 288.55 229.769 285.979 229.769 283.399C229.769 280.819 229.769 278.806 229.769 278.806L195.516 259.486C194.56 258.868 193.763 258.031 193.191 257.046C192.619 256.06 192.289 254.953 192.227 253.815V213.088L134.572 246.415V287.123C134.638 288.26 134.97 289.365 135.542 290.35C136.113 291.335 136.907 292.172 137.861 292.794L167.01 309.58C173.796 313.541 184.836 313.541 191.641 309.609Z" fill="black"/>
</g>
<path opacity="0.3" d="M148.401 294.335V298.909L137.834 292.813C136.881 292.192 136.087 291.354 135.517 290.369C134.947 289.384 134.618 288.278 134.554 287.142V246.415L145.537 240.073C145.764 242.861 146.01 245.744 146.246 248.579L138.524 253.021V284.826C138.585 285.964 138.915 287.071 139.487 288.057C140.059 289.043 140.856 289.879 141.813 290.497L148.401 294.335Z" fill="black"/>
<path d="M138.523 284.836C138.588 285.973 138.92 287.079 139.491 288.064C140.063 289.049 140.858 289.886 141.812 290.507L166.973 305.006C173.778 308.928 184.818 308.938 191.632 305.006L224.713 285.913C231.528 281.982 231.528 275.611 224.713 271.679L199.534 257.18C198.582 256.558 197.789 255.72 197.219 254.735C196.649 253.75 196.319 252.645 196.254 251.509V219.695L138.599 253.022L138.523 284.836Z" fill="#0E2C66"/>
<path opacity="0.3" d="M138.523 284.836C138.588 285.973 138.92 287.079 139.491 288.064C140.063 289.049 140.858 289.886 141.812 290.507L166.973 305.006C173.778 308.928 184.818 308.938 191.632 305.006L224.713 285.913C231.528 281.982 231.528 275.611 224.713 271.679L199.534 257.18C198.582 256.558 197.789 255.72 197.219 254.735C196.649 253.75 196.319 252.645 196.254 251.509V219.695L138.599 253.022L138.523 284.836Z" fill="black"/>
<path opacity="0.5" d="M206.197 261.065L199.495 257.199C198.543 256.577 197.75 255.739 197.18 254.754C196.611 253.769 196.28 252.664 196.216 251.528V219.695L138.56 253.022V284.836C138.625 285.973 138.957 287.079 139.528 288.064C140.1 289.049 140.895 289.886 141.85 290.507L148.466 294.288L206.197 261.065Z" fill="black"/>
<path d="M229.78 278.815V283.408C229.78 285.989 228.069 288.55 224.676 290.526L191.595 309.609C187.975 311.541 183.932 312.545 179.828 312.529V307.955C183.932 307.97 187.975 306.966 191.595 305.034L224.676 285.932C228.069 283.976 229.78 281.395 229.78 278.815Z" fill="#0E2C66"/>
<path opacity="0.5" d="M229.78 278.815V283.408C229.78 285.989 228.069 288.55 224.676 290.526L191.595 309.609C187.975 311.541 183.932 312.545 179.828 312.529V307.955C183.932 307.97 187.975 306.966 191.595 305.034L224.676 285.932C228.069 283.976 229.78 281.395 229.78 278.815Z" fill="black"/>
<path d="M45.8964 324.372C47.1428 324.974 48.5132 325.275 49.8972 325.251C51.2811 325.226 52.64 324.877 53.8642 324.231L276.924 195.451C278.12 194.671 279.116 193.62 279.83 192.384C280.545 191.147 280.958 189.76 281.036 188.334V7.88212C280.993 6.49496 280.623 5.13752 279.956 3.92042C279.29 2.70332 278.345 1.661 277.198 0.878405C275.954 0.275723 274.584 -0.0246906 273.201 0.00158681C271.818 0.0278642 270.461 0.38009 269.24 1.02963L46.18 129.847C44.9881 130.632 43.9986 131.688 43.2923 132.928C42.586 134.168 42.1829 135.557 42.1157 136.983V317.406C42.1579 318.782 42.5218 320.129 43.1784 321.339C43.8349 322.548 44.7658 323.587 45.8964 324.372Z" fill="#0E2C66"/>
<path d="M53.893 324.221L276.953 195.442C278.151 194.663 279.147 193.613 279.862 192.376C280.577 191.139 280.989 189.751 281.065 188.325V7.88223C281.065 5.26411 279.222 4.19607 276.953 5.50986L53.893 134.289C52.6964 135.069 51.7005 136.12 50.9861 137.356C50.2718 138.593 49.8591 139.98 49.7815 141.406V321.849C49.7815 324.467 51.6246 325.535 53.893 324.221Z" fill="#0E2C66"/>
<path opacity="0.5" d="M53.893 324.221L276.953 195.442C278.151 194.663 279.147 193.613 279.862 192.376C280.577 191.139 280.989 189.751 281.065 188.325V7.88223C281.065 5.26411 279.222 4.19607 276.953 5.50986L53.893 134.289C52.6964 135.069 51.7005 136.12 50.9861 137.356C50.2718 138.593 49.8591 139.98 49.7815 141.406V321.849C49.7815 324.467 51.6246 325.535 53.893 324.221Z" fill="black"/>
<path d="M53.2876 328.909C52.1179 329.42 50.8514 329.671 49.5754 329.645C48.2994 329.619 47.0442 329.316 45.8964 328.758C44.7633 327.971 43.8309 326.929 43.1742 325.716C42.5175 324.503 42.155 323.152 42.1157 321.773V305.346L49.8189 309.807V326.234C49.7716 328.626 51.2933 329.713 53.2876 328.909Z" fill="#0E2C66"/>
<path opacity="0.5" d="M53.2876 328.909C52.1179 329.42 50.8514 329.671 49.5754 329.645C48.2994 329.619 47.0442 329.316 45.8964 328.758C44.7633 327.971 43.8309 326.929 43.1742 325.716C42.5175 324.503 42.155 323.152 42.1157 321.773V305.346L49.8189 309.807V326.234C49.7716 328.626 51.2933 329.713 53.2876 328.909Z" fill="black"/>
<path d="M49.7708 309.807V326.234C49.7708 328.853 51.6611 329.911 53.8822 328.607L276.942 199.827C278.134 199.051 279.126 198.006 279.84 196.777C280.554 195.547 280.97 194.167 281.054 192.748V176.245L49.7708 309.807Z" fill="#0E2C66"/>
<path opacity="0.3" d="M49.7815 309.77V326.234C49.7815 328.853 51.6718 329.911 53.893 328.607L276.953 199.827C278.143 199.05 279.133 198.005 279.845 196.775C280.558 195.546 280.972 194.167 281.055 192.748V176.245L49.7815 309.77Z" fill="black"/>
<path d="M57.4844 289.155V143.968C57.5284 143.112 57.7739 142.28 58.201 141.537C58.628 140.795 59.2245 140.164 59.9418 139.696L270.847 17.8915C272.208 17.107 273.314 17.7403 273.314 19.3093V164.572C273.268 165.429 273.021 166.262 272.592 167.004C272.164 167.746 271.566 168.377 270.847 168.845L59.9513 290.62C58.5902 291.405 57.4844 290.762 57.4844 289.155Z" fill="#0E2C66"/>
<path d="M57.4844 289.155V143.968C57.5284 143.112 57.7739 142.28 58.201 141.537C58.628 140.795 59.2245 140.164 59.9418 139.696L270.847 17.8915C272.208 17.107 273.314 17.7403 273.314 19.3093V164.572C273.268 165.429 273.021 166.262 272.592 167.004C272.164 167.746 271.566 168.377 270.847 168.845L59.9513 290.62C58.5902 291.405 57.4844 290.762 57.4844 289.155Z" fill="#263238"/>
<path d="M165.412 248.258C164.289 248.988 163.355 249.973 162.685 251.132C162.015 252.292 161.628 253.593 161.556 254.931C161.556 257.388 163.285 258.39 165.412 257.161C166.536 256.43 167.471 255.444 168.141 254.282C168.811 253.121 169.198 251.818 169.268 250.479C169.268 248.021 167.539 247.029 165.412 248.258Z" fill="#0E2C66"/>
<path opacity="0.7" d="M50.9909 137.342C50.2584 138.573 49.8397 139.966 49.7716 141.397V309.807L42.1157 305.346V136.983C42.1653 135.547 42.5818 134.148 43.3255 132.918L50.9909 137.342Z" fill="black"/>
<path opacity="0.3" d="M281.016 7.20149C280.723 5.08431 279.013 4.36598 276.943 5.50963L53.8826 134.289C52.6732 135.045 51.6749 136.096 50.9809 137.342L43.2683 132.89C43.967 131.644 44.9681 130.594 46.1794 129.837L269.24 1.06733C270.462 0.417702 271.821 0.0654592 273.205 0.0391841C274.59 0.012909 275.961 0.313342 277.207 0.916107C278.255 1.63005 279.138 2.56066 279.795 3.64502C280.452 4.72939 280.868 5.94221 281.016 7.20149Z" fill="black"/>
<path d="M293.054 29.4131C292.722 29.2468 292.352 29.1739 291.982 29.2022C291.612 29.2306 291.257 29.359 290.955 29.5738L80.4847 151.16C79.6543 151.71 78.9648 152.447 78.4722 153.312C77.9796 154.178 77.6977 155.147 77.6492 156.142V300.441C77.6197 300.928 77.7165 301.414 77.9301 301.853C78.1437 302.292 78.4669 302.668 78.8685 302.945C79.3316 303.201 81.808 304.637 82.5452 305.034C82.806 305.167 83.0975 305.228 83.3897 305.212C83.682 305.195 83.9646 305.101 84.2087 304.94L294.632 183.353C295.462 182.804 296.152 182.066 296.645 181.201C297.137 180.336 297.419 179.366 297.467 178.372V33.3261C297.51 32.9596 297.449 32.5885 297.292 32.2546C297.135 31.9207 296.888 31.6371 296.579 31.4358C296.106 31.1239 293.583 29.725 293.054 29.4131Z" fill="#0E2C66"/>
<path d="M84.1614 153.202L294.641 31.6627C296.229 30.7176 297.477 31.4926 297.477 33.3262V178.372C297.429 179.367 297.147 180.336 296.654 181.201C296.161 182.067 295.472 182.804 294.641 183.353L84.1614 304.94C82.5736 305.885 81.3259 304.363 81.3259 302.53V158.183C81.3758 157.189 81.6584 156.22 82.1509 155.355C82.6434 154.49 83.332 153.753 84.1614 153.202Z" fill="#FAFAFA"/>
<path d="M295.927 32.2106C296.484 32.2106 296.57 32.91 296.57 33.3259V178.372C296.519 179.204 296.274 180.014 295.856 180.736C295.438 181.458 294.857 182.072 294.159 182.53L83.7078 304.117C83.5665 304.209 83.4034 304.261 83.2352 304.268C82.7059 304.268 82.29 303.456 82.29 302.529V158.183C82.3356 157.35 82.5725 156.539 82.9823 155.813C83.3921 155.087 83.9638 154.465 84.6529 153.996L295.114 32.4752C295.357 32.3181 295.638 32.2269 295.927 32.2106ZM295.927 31.2654C295.471 31.2848 295.029 31.4215 294.641 31.6624L84.1614 153.202C83.332 153.752 82.6434 154.49 82.1509 155.355C81.6584 156.22 81.3758 157.189 81.3259 158.183V302.529C81.3259 303.985 82.1388 305.214 83.2163 305.214C83.55 305.207 83.8761 305.113 84.1614 304.939L294.632 183.353C295.462 182.803 296.152 182.066 296.644 181.201C297.137 180.335 297.419 179.366 297.467 178.372V33.3259C297.467 32.0215 296.825 31.2654 295.88 31.2654H295.927Z" fill="#E0E0E0"/>
<path d="M78.8116 302.946C79.1235 303.106 81.3635 304.382 82.3465 304.949C81.9935 304.657 81.714 304.285 81.5302 303.865C81.3464 303.445 81.2634 302.988 81.2879 302.53V167.607L77.6018 165.452V300.441C77.5712 300.927 77.6665 301.413 77.8784 301.852C78.0903 302.29 78.4117 302.667 78.8116 302.946Z" fill="#F0F0F0"/>
<path d="M297.515 33.2976C297.515 31.4829 296.22 30.7456 294.679 31.6625L84.1614 153.202C83.332 153.752 82.6434 154.49 82.1509 155.355C81.6584 156.22 81.3758 157.189 81.3259 158.183V167.635L297.515 42.7493V33.2976Z" fill="#0E2C66"/>
<g opacity="0.4">
<path opacity="0.4" d="M294.642 31.6625L84.1619 153.193C83.3172 153.725 82.6213 154.463 82.1393 155.338L78.4814 153.211C78.9626 152.367 79.6526 151.661 80.4852 151.16L290.956 29.5737C291.257 29.3574 291.612 29.2273 291.981 29.1974C292.351 29.1674 292.722 29.2387 293.054 29.4036C293.564 29.725 295.956 31.0765 296.57 31.4074C296.252 31.2895 295.91 31.2511 295.574 31.2956C295.238 31.3401 294.918 31.4661 294.642 31.6625Z" fill="white"/>
</g>
<path opacity="0.15" d="M77.6028 165.461V156.094C77.6416 155.073 77.9445 154.08 78.4818 153.211L82.149 155.329C81.6194 156.182 81.3229 157.16 81.2889 158.164V167.616L77.6028 165.461Z" fill="black"/>
<path d="M253.127 142.106L127.069 214.884C126.456 215.282 125.946 215.819 125.58 216.451C125.213 217.083 125.002 217.793 124.962 218.523V254.666C125.002 255.396 125.213 256.106 125.58 256.738C125.946 257.37 126.456 257.907 127.069 258.305L130.746 260.422C131.4 260.753 132.122 260.925 132.854 260.925C133.586 260.925 134.308 260.753 134.962 260.422L261 187.644C261.613 187.244 262.124 186.706 262.49 186.072C262.856 185.438 263.068 184.727 263.108 183.996V147.843C263.068 147.113 262.856 146.403 262.49 145.771C262.123 145.139 261.613 144.602 261 144.204L257.314 142.087C256.663 141.762 255.945 141.594 255.218 141.597C254.491 141.6 253.774 141.775 253.127 142.106Z" fill="#0E2C66"/>
<path opacity="0.5" d="M263.108 147.522C262.957 146.435 262.078 146.038 261.019 146.652L134.962 219.43C134.34 219.816 133.829 220.357 133.478 220.999L125.586 216.443C125.94 215.811 126.447 215.278 127.06 214.893L253.127 142.115C253.779 141.784 254.499 141.611 255.23 141.611C255.961 141.611 256.682 141.784 257.333 142.115L261.019 144.232C261.581 144.601 262.058 145.084 262.419 145.652C262.779 146.219 263.014 146.856 263.108 147.522Z" fill="white"/>
<path d="M134.602 260.602C133.985 260.845 133.324 260.956 132.661 260.926C131.998 260.897 131.349 260.729 130.756 260.432L127.069 258.315C126.457 257.916 125.948 257.379 125.582 256.746C125.216 256.114 125.003 255.405 124.962 254.676V218.532C124.99 217.795 125.205 217.076 125.585 216.444L133.478 220.999C133.094 221.624 132.879 222.337 132.854 223.069V259.222C132.854 260.422 133.61 260.98 134.602 260.602Z" fill="#263238"/>
<path d="M134.962 219.43L261.019 146.652C262.182 145.981 263.127 146.52 263.127 147.862V184.015C263.087 184.746 262.875 185.457 262.509 186.091C262.143 186.725 261.633 187.263 261.019 187.663L134.981 260.441C133.818 261.112 132.873 260.564 132.873 259.222V223.079C132.911 222.349 133.12 221.639 133.483 221.006C133.846 220.372 134.352 219.832 134.962 219.43Z" fill="#0E2C66"/>
<path d="M219.707 161.406L127.08 214.893C126.466 215.278 125.959 215.811 125.605 216.444L133.498 220.999C133.849 220.357 134.36 219.817 134.982 219.43L227.608 165.953L219.707 161.406Z" fill="#455A64"/>
<path d="M227.588 165.953L134.961 219.43C134.348 219.83 133.838 220.369 133.472 221.003C133.106 221.637 132.894 222.348 132.854 223.079V259.213C132.854 260.555 133.799 261.103 134.961 260.432L227.588 206.954V165.953Z" fill="#37474F"/>
<path d="M156.322 215.026L204.12 187.436C206.095 186.292 207.702 187.105 207.702 189.251C207.613 190.456 207.242 191.623 206.618 192.658C205.994 193.692 205.135 194.565 204.11 195.205L156.322 222.804C154.347 223.948 152.731 223.135 152.731 220.99C152.82 219.784 153.191 218.615 153.815 217.579C154.439 216.543 155.298 215.669 156.322 215.026Z" fill="#0E2C66"/>
<path d="M166.115 224.165C166.124 224.155 166.134 224.147 166.147 224.142C166.159 224.136 166.172 224.133 166.186 224.133C166.199 224.133 166.212 224.136 166.224 224.142C166.237 224.147 166.248 224.155 166.256 224.165C166.299 224.23 166.319 224.306 166.313 224.383V229.761C166.314 230.28 166.27 230.799 166.181 231.311C166.103 231.779 165.97 232.235 165.784 232.672C165.614 233.072 165.392 233.447 165.122 233.787C164.856 234.103 164.536 234.368 164.177 234.572C163.896 234.755 163.568 234.853 163.232 234.855C163.104 234.845 162.979 234.809 162.865 234.749C162.751 234.688 162.651 234.606 162.57 234.505C162.363 234.227 162.227 233.903 162.173 233.56C162.083 233.103 162.042 232.637 162.05 232.171V226.783C162.05 226.689 162.069 226.596 162.107 226.509C162.13 226.431 162.181 226.364 162.249 226.32L162.844 225.971C162.864 225.953 162.889 225.943 162.915 225.943C162.942 225.943 162.967 225.953 162.986 225.971C163.03 226.034 163.05 226.111 163.043 226.188V231.5C163.036 231.792 163.064 232.084 163.128 232.369C163.154 232.552 163.233 232.723 163.355 232.861C163.397 232.912 163.451 232.952 163.512 232.978C163.572 233.004 163.638 233.016 163.705 233.012C163.866 233.001 164.022 232.949 164.158 232.861C164.326 232.76 164.479 232.636 164.612 232.492C164.759 232.322 164.88 232.131 164.971 231.925C165.078 231.683 165.157 231.429 165.207 231.169C165.262 230.857 165.288 230.541 165.283 230.224V224.903C165.286 224.808 165.308 224.714 165.349 224.628C165.372 224.551 165.423 224.483 165.491 224.439L166.115 224.165Z" fill="#FAFAFA"/>
<path d="M169.819 229.251C169.824 229.181 169.808 229.112 169.772 229.052C169.75 229.028 169.722 229.009 169.69 228.997C169.659 228.986 169.625 228.982 169.592 228.986C169.476 228.97 169.359 228.97 169.243 228.986L168.694 229.09C168.518 229.134 168.333 229.134 168.156 229.09C168.017 229.045 167.897 228.956 167.815 228.835C167.723 228.681 167.662 228.511 167.636 228.334C167.544 227.828 167.544 227.309 167.636 226.803C167.707 226.513 167.808 226.231 167.938 225.962C168.068 225.693 168.226 225.44 168.411 225.205C168.59 224.982 168.808 224.793 169.054 224.648C169.252 224.527 169.475 224.449 169.706 224.421C169.873 224.404 170.042 224.44 170.188 224.525C170.327 224.609 170.435 224.735 170.5 224.884C170.576 225.06 170.618 225.25 170.623 225.442C170.632 225.537 170.613 225.633 170.566 225.716C170.543 225.794 170.492 225.861 170.424 225.905L169.857 226.236C169.831 226.251 169.802 226.258 169.772 226.258C169.742 226.258 169.713 226.251 169.687 226.236L169.564 226.141C169.515 226.103 169.456 226.08 169.394 226.075C169.272 226.089 169.156 226.131 169.054 226.198C168.905 226.287 168.774 226.403 168.666 226.538C168.552 226.687 168.492 226.87 168.496 227.058C168.483 227.13 168.483 227.204 168.496 227.275C168.514 227.302 168.538 227.324 168.566 227.341C168.594 227.357 168.625 227.367 168.657 227.37C168.76 227.387 168.865 227.387 168.969 227.37L169.498 227.275C169.942 227.19 170.245 227.275 170.443 227.521C170.652 227.871 170.747 228.277 170.717 228.684C170.715 228.965 170.677 229.244 170.604 229.515C170.529 229.81 170.421 230.096 170.282 230.366C170.144 230.646 169.969 230.906 169.763 231.141C169.567 231.371 169.333 231.566 169.073 231.718C168.865 231.851 168.628 231.932 168.383 231.954C168.205 231.96 168.03 231.911 167.882 231.812C167.736 231.713 167.624 231.571 167.56 231.406C167.484 231.227 167.445 231.033 167.447 230.839C167.438 230.741 167.458 230.642 167.504 230.555C167.527 230.477 167.577 230.41 167.645 230.366L168.212 230.035C168.288 230.035 168.345 229.988 168.383 230.035L168.505 230.168C168.531 230.196 168.561 230.219 168.595 230.235C168.629 230.251 168.666 230.26 168.704 230.262C168.837 230.263 168.967 230.22 169.073 230.139C169.243 230.042 169.397 229.918 169.526 229.771C169.591 229.693 169.645 229.607 169.687 229.515C169.754 229.44 169.799 229.349 169.819 229.251Z" fill="#FAFAFA"/>
<path d="M171.749 226.689C171.747 226.198 171.788 225.708 171.872 225.224C171.951 224.769 172.074 224.323 172.241 223.892C172.38 223.505 172.57 223.14 172.808 222.805C173.006 222.517 173.264 222.275 173.564 222.096C173.783 221.949 174.05 221.891 174.31 221.935C174.541 221.989 174.744 222.127 174.878 222.323C175.055 222.579 175.181 222.868 175.246 223.173C175.337 223.57 175.381 223.976 175.379 224.383V224.969C175.382 225.068 175.359 225.166 175.312 225.253C175.289 225.331 175.239 225.398 175.171 225.442L172.713 226.869C172.707 227.035 172.73 227.201 172.779 227.36C172.816 227.467 172.881 227.562 172.968 227.635C173.046 227.696 173.144 227.726 173.242 227.72C173.357 227.706 173.466 227.667 173.564 227.606C173.707 227.529 173.835 227.426 173.942 227.304C174.039 227.195 174.121 227.074 174.188 226.945C174.228 226.87 174.272 226.797 174.32 226.727C174.361 226.679 174.408 226.638 174.462 226.604L175.048 226.264C175.068 226.248 175.093 226.239 175.119 226.239C175.144 226.239 175.169 226.248 175.189 226.264C175.214 226.294 175.232 226.329 175.242 226.366C175.252 226.404 175.253 226.443 175.246 226.481C175.236 226.666 175.198 226.847 175.133 227.02C175.051 227.282 174.944 227.536 174.811 227.776C174.664 228.053 174.486 228.313 174.282 228.551C174.079 228.795 173.836 229.003 173.564 229.166C173.34 229.312 173.073 229.375 172.808 229.345C172.575 229.289 172.373 229.148 172.241 228.948C172.055 228.662 171.929 228.34 171.872 228.003C171.786 227.571 171.745 227.13 171.749 226.689ZM173.564 223.674C173.418 223.753 173.293 223.862 173.195 223.996C173.09 224.128 173.004 224.274 172.94 224.43C172.874 224.587 172.82 224.748 172.779 224.912C172.746 225.062 172.724 225.213 172.713 225.366L174.377 224.421C174.367 224.291 174.348 224.161 174.32 224.033C174.305 223.919 174.26 223.811 174.188 223.721C174.159 223.681 174.123 223.646 174.081 223.62C174.038 223.594 173.991 223.577 173.942 223.57C173.808 223.559 173.673 223.596 173.564 223.674Z" fill="#FAFAFA"/>
<path d="M178.345 221.037C178.059 221.2 177.833 221.453 177.702 221.755C177.555 222.154 177.488 222.578 177.504 223.003V226.415C177.505 226.512 177.486 226.609 177.447 226.699C177.424 226.776 177.374 226.843 177.305 226.888L176.748 227.209C176.739 227.219 176.728 227.227 176.716 227.233C176.704 227.238 176.69 227.241 176.677 227.241C176.663 227.241 176.65 227.238 176.638 227.233C176.626 227.227 176.615 227.219 176.606 227.209C176.564 227.145 176.544 227.068 176.549 226.992V220.876C176.55 220.779 176.569 220.683 176.606 220.593C176.632 220.516 176.682 220.45 176.748 220.404L177.305 220.082C177.325 220.064 177.35 220.054 177.376 220.054C177.403 220.054 177.428 220.064 177.447 220.082C177.491 220.142 177.511 220.216 177.504 220.29V220.593C177.617 220.339 177.756 220.098 177.92 219.874C178.069 219.667 178.263 219.496 178.487 219.373L178.827 219.175C178.845 219.158 178.869 219.148 178.893 219.148C178.918 219.148 178.942 219.158 178.959 219.175C179.005 219.238 179.028 219.315 179.026 219.392V220.252C179.024 220.351 179.001 220.447 178.959 220.536C178.936 220.611 178.889 220.677 178.827 220.725L178.345 221.037Z" fill="#FAFAFA"/>
<path d="M185.395 220.583C185.404 220.573 185.415 220.565 185.427 220.56C185.439 220.554 185.453 220.551 185.466 220.551C185.48 220.551 185.493 220.554 185.505 220.56C185.517 220.565 185.528 220.573 185.537 220.583C185.579 220.647 185.599 220.724 185.594 220.801V221.746C185.593 221.843 185.574 221.939 185.537 222.029C185.505 222.099 185.456 222.161 185.395 222.209L182.163 224.099C182.144 224.117 182.118 224.127 182.092 224.127C182.066 224.127 182.04 224.117 182.021 224.099C181.979 224.038 181.959 223.965 181.964 223.891V215.385C181.965 215.287 181.984 215.191 182.021 215.101C182.047 215.027 182.097 214.964 182.163 214.922L182.758 214.572C182.777 214.554 182.803 214.544 182.829 214.544C182.855 214.544 182.881 214.554 182.9 214.572C182.942 214.633 182.962 214.706 182.957 214.78V221.973L185.395 220.583Z" fill="#FAFAFA"/>
<path d="M188.298 213.589C188.511 213.442 188.768 213.372 189.026 213.39C189.247 213.408 189.453 213.509 189.602 213.674C189.779 213.876 189.908 214.115 189.98 214.373C190.081 214.708 190.139 215.054 190.151 215.404C190.151 215.479 190.151 215.583 190.151 215.706V216.434C190.151 216.547 190.151 216.651 190.151 216.736C190.132 217.147 190.075 217.555 189.98 217.956C189.893 218.346 189.766 218.725 189.602 219.09C189.453 219.429 189.259 219.747 189.026 220.035C188.827 220.296 188.58 220.518 188.298 220.687C188.079 220.829 187.821 220.899 187.561 220.886C187.343 220.867 187.14 220.765 186.994 220.602C186.813 220.407 186.683 220.17 186.616 219.912C186.515 219.578 186.458 219.231 186.446 218.882C186.446 218.806 186.446 218.712 186.446 218.589V217.861C186.446 217.738 186.446 217.634 186.446 217.559C186.457 217.145 186.51 216.733 186.606 216.33C186.698 215.937 186.828 215.554 186.994 215.186C187.144 214.849 187.334 214.532 187.561 214.241C187.761 213.977 188.012 213.756 188.298 213.589ZM189.187 216.027C189.186 215.818 189.151 215.611 189.083 215.413C189.047 215.293 188.975 215.187 188.875 215.111C188.794 215.057 188.697 215.033 188.601 215.045C188.493 215.065 188.39 215.107 188.298 215.167C188.187 215.228 188.085 215.305 187.996 215.394C187.887 215.507 187.795 215.634 187.722 215.772C187.627 215.944 187.557 216.129 187.514 216.32C187.452 216.562 187.414 216.809 187.4 217.058C187.4 217.133 187.4 217.218 187.4 217.322V217.993C187.4 218.097 187.4 218.182 187.4 218.239C187.409 218.448 187.447 218.655 187.514 218.854C187.548 218.974 187.621 219.081 187.722 219.156C187.761 219.184 187.806 219.203 187.853 219.213C187.9 219.223 187.949 219.223 187.996 219.213C188.103 219.195 188.205 219.156 188.298 219.099C188.408 219.036 188.509 218.96 188.601 218.872C188.706 218.757 188.798 218.63 188.875 218.494C188.966 218.321 189.035 218.137 189.083 217.946C189.144 217.705 189.179 217.458 189.187 217.209C189.192 217.121 189.192 217.032 189.187 216.944V216.283C189.192 216.198 189.192 216.112 189.187 216.027Z" fill="#FAFAFA"/>
<path d="M193.043 219.118C193.163 219.045 193.272 218.952 193.364 218.844C193.478 218.711 193.576 218.565 193.657 218.41C193.751 218.22 193.824 218.02 193.874 217.814C193.932 217.582 193.961 217.344 193.959 217.105V216.623C193.959 216.718 193.865 216.831 193.799 216.963C193.734 217.102 193.658 217.234 193.572 217.36C193.473 217.493 193.366 217.62 193.25 217.738C193.132 217.863 192.995 217.968 192.844 218.05C192.747 218.117 192.637 218.163 192.522 218.185C192.407 218.208 192.288 218.207 192.173 218.183C191.963 218.117 191.782 217.98 191.663 217.795C191.509 217.551 191.397 217.283 191.332 217.001C191.251 216.644 191.207 216.28 191.199 215.914C191.199 215.791 191.199 215.64 191.199 215.461C191.199 215.281 191.199 215.13 191.199 214.997C191.211 214.582 191.256 214.168 191.332 213.759C191.409 213.357 191.52 212.962 191.663 212.578C191.796 212.244 191.967 211.927 192.173 211.633C192.347 211.372 192.576 211.153 192.844 210.99C192.97 210.914 193.107 210.86 193.25 210.829C193.357 210.81 193.466 210.81 193.572 210.829C193.656 210.853 193.733 210.895 193.799 210.952C193.859 210.998 193.913 211.052 193.959 211.113V210.81C193.96 210.713 193.979 210.617 194.016 210.527C194.042 210.453 194.092 210.39 194.158 210.347L194.715 210.016C194.735 209.999 194.76 209.989 194.786 209.989C194.813 209.989 194.838 209.999 194.857 210.016C194.903 210.08 194.926 210.156 194.923 210.234V216.377C194.949 217.298 194.778 218.213 194.422 219.062C194.143 219.729 193.66 220.292 193.043 220.669C192.832 220.799 192.591 220.874 192.343 220.886C192.147 220.898 191.952 220.848 191.785 220.744C191.626 220.625 191.496 220.469 191.407 220.29C191.315 220.075 191.264 219.844 191.256 219.61C191.247 219.512 191.267 219.413 191.313 219.326C191.336 219.248 191.386 219.181 191.455 219.137L191.956 218.854C191.967 218.841 191.981 218.832 191.996 218.825C192.012 218.818 192.029 218.815 192.045 218.815C192.062 218.815 192.079 218.818 192.094 218.825C192.11 218.832 192.124 218.841 192.135 218.854C192.182 218.903 192.223 218.957 192.258 219.014C192.316 219.116 192.411 219.19 192.523 219.222C192.636 219.307 192.806 219.213 193.043 219.118ZM192.154 214.534C192.154 214.786 192.154 215.032 192.154 215.272C192.127 215.649 192.234 216.024 192.457 216.33C192.541 216.403 192.648 216.443 192.759 216.443C192.87 216.443 192.977 216.403 193.061 216.33C193.336 216.152 193.55 215.895 193.676 215.593C193.848 215.199 193.944 214.775 193.959 214.345C193.959 214.204 193.959 214.033 193.959 213.835C193.959 213.636 193.959 213.466 193.959 213.343C193.979 213.005 193.878 212.67 193.676 212.398C193.592 212.321 193.482 212.278 193.369 212.278C193.255 212.278 193.145 212.321 193.061 212.398C192.792 212.576 192.582 212.829 192.457 213.126C192.262 213.57 192.16 214.049 192.154 214.534Z" fill="#FAFAFA"/>
<path d="M197.127 206.141C197.145 206.126 197.169 206.117 197.193 206.117C197.217 206.117 197.24 206.126 197.259 206.141C197.308 206.202 197.332 206.28 197.325 206.359V207.389C197.326 207.487 197.303 207.584 197.259 207.672C197.232 207.743 197.187 207.806 197.127 207.852L196.493 208.221C196.484 208.231 196.474 208.239 196.461 208.244C196.449 208.25 196.436 208.253 196.422 208.253C196.409 208.253 196.396 208.25 196.383 208.244C196.371 208.239 196.36 208.231 196.351 208.221C196.327 208.192 196.308 208.159 196.297 208.123C196.285 208.088 196.282 208.05 196.285 208.013V206.982C196.285 206.884 196.307 206.787 196.351 206.699C196.378 206.625 196.428 206.562 196.493 206.519L197.127 206.141ZM197.287 215.016C197.288 215.111 197.268 215.204 197.231 215.29C197.2 215.365 197.152 215.43 197.089 215.479L196.522 215.801C196.514 215.811 196.504 215.819 196.492 215.824C196.481 215.83 196.468 215.832 196.455 215.832C196.443 215.832 196.43 215.83 196.419 215.824C196.407 215.819 196.397 215.811 196.389 215.801C196.34 215.74 196.316 215.662 196.323 215.583V209.468C196.323 209.37 196.345 209.273 196.389 209.185C196.416 209.111 196.462 209.046 196.522 208.996L197.089 208.674C197.108 208.656 197.133 208.646 197.16 208.646C197.186 208.646 197.211 208.656 197.231 208.674C197.273 208.735 197.293 208.808 197.287 208.882V215.016Z" fill="#FAFAFA"/>
<path d="M202.259 212.133C202.259 212.231 202.239 212.327 202.202 212.417C202.176 212.491 202.126 212.554 202.061 212.597L201.493 212.927C201.476 212.945 201.452 212.954 201.427 212.954C201.403 212.954 201.379 212.945 201.361 212.927C201.312 212.866 201.288 212.788 201.295 212.71V209.383C201.324 208.99 201.252 208.597 201.087 208.239C200.955 208.003 200.747 207.965 200.454 208.135C200.162 208.332 199.945 208.622 199.839 208.958C199.682 209.404 199.605 209.874 199.613 210.347V213.684C199.612 213.781 199.593 213.877 199.556 213.967C199.533 214.045 199.482 214.112 199.414 214.156L198.856 214.477C198.848 214.488 198.837 214.496 198.824 214.501C198.812 214.507 198.799 214.509 198.786 214.509C198.772 214.509 198.759 214.507 198.747 214.501C198.734 214.496 198.724 214.488 198.715 214.477C198.671 214.417 198.651 214.343 198.658 214.27V208.154C198.657 208.057 198.676 207.96 198.715 207.871C198.738 207.793 198.788 207.726 198.856 207.682L199.414 207.36C199.423 207.35 199.434 207.342 199.446 207.337C199.458 207.331 199.472 207.328 199.485 207.328C199.498 207.328 199.512 207.331 199.524 207.337C199.536 207.342 199.547 207.35 199.556 207.36C199.598 207.425 199.618 207.501 199.613 207.578V207.871C199.737 207.583 199.889 207.307 200.066 207.048C200.222 206.81 200.433 206.612 200.681 206.472C200.896 206.315 201.163 206.247 201.427 206.283C201.532 206.309 201.63 206.357 201.714 206.424C201.799 206.491 201.869 206.575 201.919 206.67C202.056 206.926 202.146 207.205 202.183 207.493C202.234 207.869 202.259 208.248 202.259 208.627V212.133Z" fill="#FAFAFA"/>
<path d="M249.932 184.62L240.755 189.913L242.182 177.039C241.076 176.453 240.376 175.026 240.376 172.975C240.376 169.317 242.607 165.073 245.348 163.523C248.089 161.973 250.31 163.618 250.31 167.304C250.253 169.473 249.635 171.59 248.514 173.448L249.932 184.62Z" fill="#455A64"/>
<path d="M249.942 184.62L241.861 179.96L240.755 189.922L249.942 184.62Z" fill="#37474F"/>
<path d="M245.331 163.495C243.332 164.845 241.841 166.825 241.096 169.119L248.497 173.391C249.617 171.533 250.236 169.416 250.293 167.247C250.312 163.59 248.09 161.917 245.331 163.495Z" fill="#37474F"/>
<path d="M200.717 120.631C197.57 118.817 193.231 119.072 188.43 121.841C178.846 127.38 171.077 140.83 171.077 151.898C171.077 157.455 173.043 161.349 176.199 163.145L182.315 166.699C185.453 168.514 189.791 168.249 194.602 165.48C204.186 159.95 211.955 146.491 211.955 135.423C211.955 129.894 210.008 125.972 206.87 124.204" fill="#0E2C66"/>
<path d="M194.593 125.404C185.009 130.943 177.24 144.402 177.24 155.461C177.24 166.519 185.009 171.018 194.593 165.48C204.177 159.941 211.956 146.491 211.947 135.423C211.937 124.355 204.168 119.875 194.593 125.404Z" fill="#0E2C66"/>
<path d="M204.167 149.96V151.227C201.871 155.325 198.577 158.778 194.592 161.265C190.859 163.41 187.484 163.646 185.008 162.276V159.667C185.135 156.953 185.91 154.309 187.268 151.956C188.626 149.603 190.528 147.609 192.815 146.142L195.339 144.686C197.569 143.401 199.743 143.231 201.445 144.223C203.146 145.216 204.167 147.304 204.167 149.96Z" fill="#0E2C66"/>
<path opacity="0.4" d="M200.719 120.632L206.862 124.205C203.724 122.38 199.386 122.636 194.575 125.405C188.299 129.034 182.798 136.057 179.755 143.581L173.602 140.017C176.654 132.456 182.108 125.471 188.422 121.842C193.242 119.082 197.581 118.817 200.719 120.632Z" fill="white"/>
<path opacity="0.2" d="M182.099 166.558L176.21 163.145C173.054 161.35 171.088 157.474 171.088 151.898L177.241 155.471C177.279 160.858 179.093 164.696 182.099 166.558Z" fill="black"/>
<path opacity="0.1" d="M173.62 140.017L179.773 143.58C178.196 147.347 177.349 151.378 177.278 155.461L171.125 151.888C171.2 147.809 172.047 143.781 173.62 140.017Z" fill="black"/>
<path d="M192.401 144.091C191.814 144.097 191.237 143.947 190.728 143.656C190.114 143.247 189.622 142.68 189.304 142.014C188.987 141.349 188.855 140.61 188.922 139.876C189.002 138.153 189.494 136.476 190.356 134.983C191.217 133.489 192.424 132.224 193.875 131.293C194.458 130.828 195.167 130.55 195.911 130.494C196.655 130.439 197.398 130.609 198.043 130.983C198.689 131.356 199.206 131.916 199.528 132.589C199.85 133.261 199.962 134.016 199.848 134.753C199.767 136.474 199.275 138.152 198.413 139.645C197.551 141.137 196.346 142.403 194.896 143.335C194.146 143.803 193.284 144.064 192.401 144.091Z" fill="white"/>
<path d="M201.445 144.214C199.743 143.221 197.569 143.392 195.339 144.677L192.815 146.133C190.527 147.601 188.624 149.596 187.266 151.951C185.908 154.306 185.133 156.952 185.008 159.667V162.285C187.484 163.656 190.859 163.42 194.592 161.274C198.577 158.787 201.871 155.335 204.167 151.236V149.97C204.167 147.305 203.184 145.216 201.445 144.214Z" fill="white"/>
<path d="M395.754 307.727C395.754 307.727 397.011 296.688 402.502 288.115C407.994 279.542 415.536 274.202 422.578 273.645C429.619 273.087 435.309 279.571 427.776 284.041C420.243 288.512 406.86 293.03 400.697 309.665L395.754 307.727Z" fill="#0E2C66"/>
<path opacity="0.1" d="M395.754 307.727C395.754 307.727 397.011 296.688 402.502 288.115C407.994 279.542 415.536 274.202 422.578 273.645C429.619 273.087 435.309 279.571 427.776 284.041C420.243 288.512 406.86 293.03 400.697 309.665L395.754 307.727Z" fill="black"/>
<path d="M397.824 304.854H397.749C397.656 304.816 397.582 304.743 397.543 304.651C397.504 304.559 397.503 304.455 397.541 304.363C404.97 286.073 419.109 278.427 425.555 276.953C425.604 276.941 425.654 276.94 425.703 276.948C425.752 276.956 425.799 276.974 425.841 277C425.883 277.027 425.92 277.061 425.949 277.102C425.977 277.142 425.998 277.188 426.009 277.236C426.02 277.285 426.022 277.335 426.014 277.384C426.005 277.433 425.988 277.48 425.961 277.522C425.935 277.564 425.901 277.6 425.86 277.629C425.82 277.658 425.774 277.679 425.726 277.69C419.412 279.145 405.546 286.65 398.24 304.656C398.204 304.731 398.143 304.792 398.067 304.828C397.991 304.864 397.906 304.873 397.824 304.854Z" fill="white"/>
<path d="M435.423 305.071C434.789 306.508 433.221 307.264 431.765 307.85C430.309 308.436 428.721 309.069 427.928 310.431C426.34 313.171 428.948 317.047 427.247 319.703C426.846 320.237 426.342 320.685 425.764 321.02C425.185 321.355 424.545 321.569 423.882 321.65C422.795 321.848 421.689 321.848 420.593 321.943C420.068 321.936 419.544 321.895 419.024 321.82C417.497 321.479 415.9 321.648 414.478 322.302C412.294 323.531 411.642 326.281 410.3 328.408C409.48 329.66 408.399 330.72 407.132 331.516C405.865 332.312 404.44 332.825 402.956 333.02C402.011 333.143 400.121 333.323 399.175 332.765C399.101 332.729 399.032 332.684 398.968 332.633C398.826 332.481 398.656 332.283 398.58 332.179C398.575 332.157 398.575 332.134 398.58 332.113C398.193 330.686 398.826 329.211 398.854 327.737V327.472C398.788 325.761 398.741 324.06 398.703 322.359C398.621 319.208 398.589 316.057 398.608 312.907C398.608 310.865 398.382 308.635 399.251 306.716C400.196 304.599 402.578 304.552 403.476 302.482C403.835 301.65 404.024 300.771 404.374 299.93C404.914 298.707 405.78 297.655 406.877 296.89C407.973 296.126 409.259 295.676 410.593 295.591C414.742 295.383 418.457 298.739 422.606 298.427C423.674 298.342 424.723 298.011 425.782 297.822C429.137 297.189 433.022 298.143 434.912 300.988C435.327 301.574 435.591 302.253 435.68 302.966C435.769 303.678 435.681 304.401 435.423 305.071Z" fill="#0E2C66"/>
<path d="M398.164 325.563C398.075 325.536 397.999 325.476 397.953 325.395C397.907 325.314 397.895 325.218 397.918 325.128C403.646 303.635 426.273 300.553 431.595 300.913C431.642 300.915 431.687 300.927 431.73 300.947C431.772 300.968 431.809 300.996 431.84 301.032C431.871 301.067 431.894 301.108 431.909 301.152C431.924 301.197 431.929 301.244 431.926 301.291C431.916 301.382 431.871 301.467 431.801 301.527C431.73 301.587 431.64 301.617 431.547 301.612C426.358 301.243 404.204 304.277 398.599 325.317C398.572 325.406 398.512 325.482 398.431 325.528C398.35 325.573 398.254 325.586 398.164 325.563Z" fill="white"/>
<path d="M423.333 314.674C423.262 314.664 423.195 314.631 423.144 314.58C421.052 312.767 418.586 311.438 415.921 310.688C413.256 309.938 410.459 309.786 407.729 310.242C407.636 310.25 407.545 310.224 407.471 310.168C407.398 310.112 407.348 310.03 407.332 309.939C407.318 309.847 407.341 309.752 407.395 309.676C407.45 309.6 407.532 309.549 407.625 309.533C410.472 309.059 413.39 309.221 416.168 310.006C418.946 310.792 421.515 312.183 423.692 314.079C423.726 314.112 423.752 314.151 423.771 314.194C423.789 314.237 423.798 314.283 423.798 314.329C423.798 314.376 423.789 314.422 423.771 314.465C423.752 314.508 423.726 314.547 423.692 314.58C423.65 314.631 423.592 314.667 423.528 314.684C423.464 314.701 423.396 314.698 423.333 314.674Z" fill="white"/>
<path d="M343.738 48.1363L346.743 49.2894V42.6732C346.743 37.4181 350.931 36.161 355.477 38.7886C360.033 41.4161 363.719 47.796 363.719 53.0512V53.9964C364.352 53.8028 365.022 53.7549 365.676 53.8564C366.331 53.9579 366.954 54.2061 367.499 54.5824C369.226 55.708 370.662 57.2251 371.692 59.0103C372.722 60.7955 373.316 62.7984 373.426 64.8564V65.2911L377.622 67.7108C378.758 68.4519 379.702 69.4498 380.381 70.6238C381.059 71.7979 381.451 73.115 381.526 74.4688C381.526 76.964 379.777 77.9753 377.622 76.7277L343.738 57.1532C342.602 56.4139 341.657 55.4161 340.98 54.2416C340.303 53.0671 339.914 51.749 339.844 50.3953C339.844 47.9095 341.573 46.8981 343.738 48.1363Z" fill="#E6E6E6"/>
<path d="M383.992 42.9003L389.446 46.0477C389.416 45.8094 389.4 45.5696 389.398 45.3294V43.751C389.398 40.9154 391.364 39.8001 393.803 41.2084C394.851 41.85 395.747 42.711 396.43 43.7321C396.827 40.1971 399.606 38.8833 402.971 40.8209C404.894 42.0721 406.495 43.7586 407.644 45.744C408.794 47.7293 409.459 49.9575 409.587 52.248V54.611C409.611 55.5551 409.421 56.4924 409.03 57.352L413.566 59.9606C414.273 60.4295 414.861 61.0578 415.281 61.7948C415.701 62.5318 415.943 63.3571 415.986 64.2044C415.986 65.764 414.89 66.3972 413.538 65.6222L383.992 48.6091C383.277 48.1435 382.683 47.5155 382.258 46.7763C381.832 46.037 381.588 45.2077 381.544 44.3559C381.544 42.7585 382.64 42.1253 383.992 42.9003Z" fill="#E6E6E6"/>
<path d="M362.878 186.348C358.909 193.059 355.09 198.891 352.406 201.689C347.312 204.052 335.346 207.7 330.667 208.305C329.845 208.409 329.013 208.215 328.323 207.757C326.48 206.547 325.053 206.348 323.115 205.677C321.593 205.157 320.951 204.43 320.667 204.732C320.374 205.075 320.227 205.52 320.257 205.97C320.287 206.42 320.492 206.841 320.828 207.142C321.555 207.833 322.361 208.436 323.229 208.938C321.153 209.453 318.988 209.492 316.896 209.051C312.841 207.983 310.932 209.93 313.673 214.335C314.618 215.904 318.512 218.428 326.338 217.747C329.13 217.597 331.911 217.281 334.665 216.802C342.17 215.195 350.516 213.645 355.648 212.076C357.557 211.325 359.266 210.141 360.638 208.617C369.268 198.777 372.132 191.764 375.912 185.394L375.591 174.997C369.466 174.789 366.196 180.734 362.878 186.348Z" fill="#FFA8A7"/>
<path d="M376.641 174.79C374.865 174.54 373.055 174.781 371.406 175.485C369.756 176.19 368.331 177.332 367.284 178.788C363.087 184.166 355.658 197.077 355.658 197.077C355.658 197.077 358.088 203.551 364.647 204.638L375.186 190.404C375.186 190.404 380.176 180.517 376.641 174.79Z" fill="#455A64"/>
<path d="M399.428 319.911H392.557V332.161H399.428V319.911Z" fill="#FFA8A7"/>
<path d="M375.61 319.259L368.748 319.504L368.398 306.537L375.61 306.291V319.259Z" fill="#FFA8A7"/>
<path d="M400.392 213.872C400.392 220.696 399.39 275.677 399.39 275.677C399.542 277.643 401.281 281.272 400.931 288.824C400.411 299.079 399.721 326.035 399.721 326.035C398.542 326.639 397.24 326.966 395.915 326.993C394.591 327.019 393.277 326.743 392.075 326.187C392.075 326.187 386.498 288.38 385.269 278.257C384.192 269.382 381.432 240.006 381.432 240.006L377.718 274.732C378.505 278.458 378.791 282.272 378.568 286.074C378.247 290.8 376.035 315.261 376.035 315.261C374.848 315.961 373.517 316.382 372.143 316.492C370.769 316.601 369.388 316.397 368.105 315.894C368.105 315.894 364.192 279.032 364.117 274.703C364.022 269.788 366.404 213.815 366.404 213.815L400.392 213.872Z" fill="#37474F"/>
<path d="M392.558 328.625V327.605C391.896 327.898 390.374 333.966 387.643 336.555C385.478 338.616 382.53 340.988 381.773 343.285C381.017 345.582 385.885 346.99 387.917 346.621C390.261 346.187 394.344 344.457 395.365 342.841C396.386 341.225 396.868 338.881 397.699 337.709C398.531 336.537 400.45 335.232 400.894 333.871C401.033 332.598 400.901 331.309 400.507 330.09C400.185 328.824 399.845 327.435 399.429 327.557V328.332C398.46 329.128 397.242 329.556 395.989 329.542C394.987 329.627 392.548 329.419 392.558 328.625Z" fill="#263238"/>
<path d="M368.673 317.293C368.313 317.293 368.02 317.832 367.236 318.72C366.069 319.947 364.705 320.97 363.2 321.745C360.629 323.087 355.639 325.147 353.361 326.215C351.943 326.877 352.009 328.654 353.474 329.665C354.939 330.677 358.465 331.404 362.699 330.421C365.005 329.883 368.011 327.662 369.92 327.784C371.829 327.907 375.374 327.869 376.782 326.839C378.19 325.809 377.623 323.673 377.226 321.83C376.792 319.807 376.281 316.66 375.61 316.802V317.51C374.788 318.815 370.525 319.344 368.71 318.389L368.673 317.293Z" fill="#263238"/>
<path d="M381.432 240.006C377.857 238.836 374.59 236.882 371.867 234.288C371.867 234.288 373.757 237.889 379.201 241.244L378.029 272.255L381.432 240.006Z" fill="#263238"/>
<path d="M396.555 175.791C396.555 175.791 402.226 177.096 401.82 187.341L400.638 203.645V228.125C395.591 233.853 373.228 233.437 365.525 227.672C365.525 227.672 366.395 198.702 366.915 187.549C367.283 179.629 369.107 175.64 376.896 174.771L386.47 175.186L396.555 175.791Z" fill="#0E2C66"/>
<path d="M389.334 154.506C389.367 155.878 389.128 157.242 388.631 158.521C388.133 159.8 387.388 160.968 386.437 161.957C385.487 162.946 384.349 163.738 383.091 164.285C381.834 164.833 380.48 165.127 379.108 165.149C373.437 165.149 370.11 160.253 368.881 154.506C366.613 143.986 373.456 143.854 379.108 143.854C381.876 143.911 384.509 145.065 386.426 147.063C388.344 149.06 389.39 151.738 389.334 154.506Z" fill="#263238"/>
<path d="M394.551 158.806C394.551 158.806 392.982 166.481 392.349 167.748C391.95 168.51 391.273 169.089 390.458 169.364L390.572 163.967L394.551 158.806Z" fill="#263238"/>
<path d="M392.576 147.814C392.576 147.814 393.701 147.531 394.902 149.402C395.922 151 396.159 154.591 394.552 158.854L391.594 159.213L392.576 147.814Z" fill="#263238"/>
<path d="M393.664 149.374L397.293 149.44C397.318 149.205 397.294 148.968 397.223 148.743C397.152 148.518 397.035 148.311 396.879 148.133C396.724 147.956 396.534 147.812 396.32 147.712C396.107 147.611 395.875 147.556 395.639 147.55C395.143 147.557 394.667 147.747 394.302 148.084C393.938 148.42 393.71 148.88 393.664 149.374Z" fill="#263238"/>
<path d="M394.106 148.514L396.791 145.933C396.636 145.751 396.445 145.603 396.23 145.498C396.015 145.393 395.781 145.334 395.542 145.324C395.303 145.314 395.065 145.354 394.842 145.441C394.619 145.528 394.417 145.66 394.248 145.829C393.892 146.178 393.68 146.647 393.654 147.144C393.627 147.641 393.789 148.13 394.106 148.514Z" fill="#263238"/>
<path d="M390.704 159.166C391.3 159.534 392.141 158.353 392.878 157.549C393.615 156.746 395.903 156.009 397.094 158.617C398.284 161.226 396.252 163.806 394.551 164.657C391.498 166.169 390.534 163.967 390.534 163.967L390.279 176.122C385.988 182.738 376.253 182.53 379.759 175.801V172.105C378.317 172.345 376.852 172.421 375.392 172.332C373.011 171.954 371.517 169.997 370.789 167.313C369.636 163.003 369.192 159.525 370.175 151.047C371.253 141.765 381.631 141.661 387.188 145.376C392.746 149.09 390.704 159.166 390.704 159.166Z" fill="#FFA8A7"/>
<path d="M377.775 149.601C380.252 149.355 382.7 148.844 385.185 148.655C385.721 148.59 386.265 148.616 386.792 148.731C388.683 149.251 388.456 151.463 388.758 153.003C389.278 155.669 389.703 160.177 390.705 160.196C391.008 160.196 392.142 158.239 392.879 157.54C393.284 156.937 393.513 156.234 393.541 155.508C393.73 154.411 393.824 153.287 393.909 152.171C393.985 151.226 394.079 150.281 394.079 149.336C394.123 148.268 394.037 147.198 393.824 146.151C393.587 145.259 393.133 144.441 392.501 143.769L392.312 143.561C391.066 142.258 389.554 141.24 387.879 140.574C385.469 139.671 382.942 139.121 380.374 138.939C377.811 138.757 375.259 138.442 372.728 137.994C372.583 137.952 372.429 137.952 372.284 137.994C372.181 138.051 372.095 138.132 372.032 138.231C371.969 138.331 371.932 138.444 371.925 138.561C371.821 139.148 371.886 139.753 372.112 140.305C372.337 140.857 372.715 141.334 373.201 141.68C371.49 141.812 369.524 140.924 367.879 140.47C367.746 140.414 367.603 140.385 367.459 140.385C367.314 140.385 367.171 140.414 367.038 140.47C366.873 140.586 366.756 140.757 366.707 140.952C366.588 141.396 366.571 141.862 366.66 142.313C366.811 143.681 367.319 144.985 368.134 146.094C369.408 147.753 371.208 148.929 373.238 149.43C374.733 149.719 376.263 149.776 377.775 149.601Z" fill="#263238"/>
<path d="M379.77 172.105C379.77 172.105 385.081 170.99 386.934 169.96C388.037 169.356 388.933 168.434 389.505 167.313C389.226 168.439 388.728 169.499 388.04 170.432C386.688 172.247 379.77 173.57 379.77 173.57V172.105Z" fill="#F28F8F"/>
<path d="M381.045 157.776C381.034 158.068 381.14 158.352 381.338 158.566C381.537 158.78 381.812 158.907 382.103 158.92C382.335 158.939 382.567 158.887 382.769 158.772C382.97 158.657 383.133 158.484 383.235 158.275C383.336 158.066 383.372 157.832 383.338 157.602C383.304 157.372 383.202 157.158 383.044 156.987C382.886 156.817 382.681 156.698 382.454 156.646C382.227 156.595 381.991 156.613 381.775 156.698C381.558 156.783 381.373 156.932 381.243 157.124C381.113 157.317 381.044 157.544 381.045 157.776Z" fill="#263238"/>
<path d="M382.747 153.192L385.025 154.506C385.19 154.182 385.228 153.808 385.13 153.458C385.032 153.107 384.805 152.807 384.495 152.616C384.344 152.531 384.177 152.479 384.005 152.462C383.833 152.445 383.659 152.465 383.494 152.519C383.33 152.573 383.178 152.661 383.05 152.777C382.921 152.893 382.818 153.034 382.747 153.192Z" fill="#263238"/>
<path d="M380.241 165.441L377.812 166.387C377.861 166.553 377.944 166.708 378.055 166.841C378.166 166.975 378.303 167.084 378.459 167.162C378.614 167.24 378.783 167.285 378.957 167.295C379.13 167.304 379.303 167.278 379.466 167.218C379.797 167.076 380.061 166.813 380.205 166.483C380.349 166.153 380.362 165.781 380.241 165.441Z" fill="#F28F8F"/>
<path d="M371.271 154.166L373.35 152.502C373.257 152.357 373.134 152.233 372.99 152.138C372.846 152.044 372.683 151.981 372.513 151.953C372.343 151.925 372.169 151.934 372.002 151.978C371.835 152.022 371.679 152.101 371.545 152.209C371.267 152.445 371.086 152.774 371.035 153.135C370.985 153.496 371.069 153.863 371.271 154.166Z" fill="#263238"/>
<path d="M372.19 157.465C372.206 157.671 372.282 157.869 372.409 158.033C372.536 158.197 372.708 158.321 372.904 158.389C373.1 158.457 373.312 158.466 373.513 158.416C373.714 158.365 373.897 158.258 374.038 158.105C374.179 157.953 374.272 157.763 374.307 157.559C374.342 157.354 374.316 157.144 374.234 156.954C374.151 156.763 374.014 156.601 373.841 156.487C373.668 156.373 373.465 156.312 373.258 156.312C373.111 156.316 372.968 156.35 372.835 156.411C372.702 156.472 372.582 156.558 372.483 156.665C372.384 156.773 372.307 156.898 372.256 157.036C372.206 157.173 372.183 157.319 372.19 157.465Z" fill="#263238"/>
<path d="M377.887 156.576L377.764 163.296L373.946 162.426L377.887 156.576Z" fill="#F28F8F"/>
<path d="M287.209 212.861L293.135 209.439L295.479 206.594L289.562 210.016L287.209 212.861Z" fill="#0E2C66"/>
<path opacity="0.4" d="M287.209 212.861L293.135 209.439L295.479 206.594L289.562 210.016L287.209 212.861Z" fill="black"/>
<path d="M303.324 222.161L309.25 218.74L314.193 214.364L308.276 217.776L303.324 222.161Z" fill="#0E2C66"/>
<path opacity="0.4" d="M303.324 222.161L309.25 218.74L314.193 214.364L308.276 217.776L303.324 222.161Z" fill="black"/>
<path d="M353.664 233.967C355.065 235.845 355.913 238.078 356.112 240.413C354.717 238.531 353.869 236.3 353.664 233.967ZM367.435 234.146C365.441 220.583 358.153 207.171 349.477 202.152C345.309 199.742 341.452 199.657 338.362 201.462L332.785 204.676L332.473 204.865C332.225 205.002 331.985 205.153 331.755 205.319C331.297 205.634 330.867 205.988 330.469 206.377L330.28 206.557C330.11 206.727 329.931 206.925 329.77 207.115C329.609 207.304 329.364 207.597 329.174 207.852C328.773 208.38 328.41 208.936 328.088 209.515C327.917 209.808 327.757 210.12 327.605 210.46L278.901 182.351L272.984 185.763V189.544L273.485 189.827L273.958 190.101V190.858L273.012 191.415V193.608L280.167 208.731L287.237 212.823L289.591 209.988L295.829 213.721L299.411 219.855L303.362 222.133L308.305 217.748L314.373 221.254L316.415 229.676L326.613 235.574C327.117 237.717 327.748 239.828 328.503 241.897C328.57 242.105 328.655 242.322 328.74 242.558C332.123 251.443 337.501 259.052 343.569 262.558C344.297 262.99 345.059 263.359 345.847 263.664C346.264 263.83 346.69 263.972 347.123 264.089C347.501 264.19 347.879 264.275 348.257 264.345C349.451 264.562 350.674 264.562 351.868 264.345L352.36 264.222C352.595 264.174 352.825 264.108 353.049 264.023L353.579 263.815C353.766 263.748 353.947 263.662 354.118 263.56C354.292 263.485 354.463 263.399 354.628 263.305L354.874 263.154C354.918 263.139 354.96 263.117 354.997 263.088C356.348 262.312 359.675 260.384 360.583 259.874C365.082 257.265 367.993 250.668 367.993 241.339C367.985 238.931 367.799 236.527 367.435 234.146Z" fill="#0E2C66"/>
<path d="M351.933 245.412C349.589 244.061 347.699 240.053 347.699 236.462C347.699 232.87 349.589 231.046 351.933 232.388C354.277 233.73 356.158 237.747 356.158 241.348C356.158 244.949 354.267 246.764 351.933 245.412ZM361.508 237.558C359.523 224.004 352.235 210.583 343.549 205.573C339.523 203.248 335.799 203.078 332.774 204.676L332.462 204.865C332.214 205.001 331.974 205.153 331.744 205.318C331.286 205.634 330.856 205.988 330.459 206.377L330.27 206.556C330.099 206.727 329.92 206.925 329.759 207.114C329.599 207.303 329.353 207.596 329.164 207.851C328.763 208.379 328.399 208.935 328.077 209.515C327.907 209.808 327.746 210.12 327.595 210.46C326.714 212.287 326.078 214.222 325.704 216.216L272.973 185.763V189.543L273.474 189.827L273.947 190.101V190.857L273.002 191.415V193.608L280.157 208.73L287.227 212.823L289.58 209.987L295.818 213.721L299.4 219.855L303.351 222.133L308.294 217.747L314.362 221.254L316.404 229.675L326.612 235.573C327.116 237.717 327.747 239.828 328.502 241.896C328.568 242.104 328.653 242.322 328.738 242.558C332.122 251.443 337.5 259.051 343.568 262.558C344.295 262.989 345.057 263.359 345.846 263.664C346.263 263.829 346.689 263.971 347.122 264.089C347.5 264.19 347.878 264.275 348.256 264.344C349.45 264.562 350.673 264.562 351.867 264.344L352.358 264.221C352.593 264.174 352.824 264.108 353.048 264.023L353.578 263.815C353.765 263.747 353.945 263.662 354.116 263.56C354.291 263.484 354.461 263.399 354.627 263.304L354.872 263.153C354.917 263.139 354.959 263.116 354.995 263.087C359.305 260.365 362.075 253.862 362.075 244.76C362.059 242.349 361.869 239.942 361.508 237.558Z" fill="#0E2C66"/>
<path opacity="0.4" d="M356.158 241.339C356.158 244.94 354.268 246.764 351.933 245.413C349.599 244.061 347.699 240.063 347.699 236.462C347.699 232.861 349.589 231.037 351.933 232.388C352.608 232.799 353.196 233.339 353.663 233.976C353.866 236.31 354.714 238.542 356.111 240.422C356.146 240.727 356.161 241.033 356.158 241.339Z" fill="black"/>
<path opacity="0.4" d="M367.974 241.33C367.974 250.658 365.063 257.256 360.564 259.864C359.619 260.375 356.33 262.303 354.978 263.078C359.288 260.356 362.058 253.853 362.058 244.751C362.047 242.344 361.864 239.94 361.509 237.558C359.524 224.005 352.237 210.583 343.551 205.574C339.525 203.249 335.801 203.079 332.776 204.676L338.353 201.462C341.443 199.657 345.3 199.742 349.468 202.152C358.154 207.171 365.441 220.583 367.426 234.146C367.786 236.524 367.969 238.925 367.974 241.33Z" fill="white"/>
<path d="M362.057 244.732C362.057 253.834 359.288 260.337 354.978 263.059C356.329 262.284 359.656 260.356 360.564 259.845C365.063 257.237 367.974 250.64 367.974 241.311C367.974 240.97 367.974 240.621 367.974 240.271L362.057 243.693C362.048 244.061 362.057 244.401 362.057 244.732Z" fill="#0E2C66"/>
<path opacity="0.1" d="M362.057 244.732C362.057 253.834 359.288 260.337 354.978 263.059C356.329 262.284 359.656 260.356 360.564 259.845C365.063 257.237 367.974 250.64 367.974 241.311C367.974 240.97 367.974 240.621 367.974 240.271L362.057 243.693C362.048 244.061 362.057 244.401 362.057 244.732Z" fill="black"/>
<path opacity="0.15" d="M325.933 220.082V222.001L272.984 191.434L273.958 190.867V190.073L325.933 220.082Z" fill="black"/>
<path opacity="0.15" d="M325.933 220.876V222.001L272.984 191.434L273.958 190.867V190.857L325.933 220.876Z" fill="black"/>
<path opacity="0.15" d="M348.956 259.855C346.949 259.802 344.992 259.219 343.285 258.163C334.655 253.182 327.633 238.361 327.633 225.129C327.633 217.407 329.967 211.641 334.041 209.288C336.877 207.643 340.232 207.851 343.757 209.883C352.377 214.864 359.4 229.732 359.4 242.964C359.4 250.677 357.065 256.452 352.992 258.796C351.763 259.498 350.371 259.863 348.956 259.855ZM338.134 209.146C336.874 209.139 335.635 209.465 334.542 210.091C330.828 212.237 328.606 217.861 328.606 225.12C328.606 238.049 335.412 252.529 343.786 257.331C346.99 259.221 350.024 259.391 352.548 257.936C356.262 255.79 358.483 250.176 358.483 242.917C358.483 229.978 351.678 215.507 343.313 210.696C341.75 209.745 339.963 209.223 338.134 209.184V209.146Z" fill="black"/>
<path opacity="0.4" d="M327.558 210.441C326.676 212.268 326.041 214.204 325.667 216.197L272.936 185.744L278.853 182.332L327.558 210.441Z" fill="white"/>
<path d="M396.092 213.4C398.851 208.173 402.008 196.434 403.577 190.508C405.808 182.096 402.197 176.803 398.095 176.585C395.534 176.982 387.094 207.672 387.094 207.672C386.148 208.419 373.322 214.931 369.201 216.566C368.465 216.845 367.651 216.845 366.914 216.566C364.939 215.848 363.587 215.98 361.65 215.791C360.128 215.64 359.362 215.101 359.164 215.422C358.984 215.821 358.96 216.273 359.099 216.688C359.237 217.104 359.527 217.451 359.91 217.662C360.745 218.148 361.633 218.535 362.557 218.815C360.9 219.318 359.174 219.551 357.444 219.505C353.474 219.42 352.047 221.141 355.128 225.176C357.018 227.691 360.147 228.485 367.132 226.074C369.135 225.375 371.857 224.023 374.4 223.106C379.636 221.216 381.016 220.989 385.005 219.638C390.818 217.672 394.863 215.725 396.092 213.4Z" fill="#FFA8A7"/>
<path d="M396.556 175.792C398.966 176.122 401.282 176.661 402.709 178.627C404.136 180.593 405.28 183.353 403.881 190.867C402.81 196.151 401.376 201.356 399.59 206.443C399.59 206.443 393.976 208.844 388.012 202.757L392.114 186.897C392.114 186.897 392.775 176.585 396.556 175.792Z" fill="#455A64"/>
</svg>
