<svg width="607" height="375" viewBox="0 0 607 375" fill="none" xmlns="http://www.w3.org/2000/svg">
<path d="M593.281 243.278L581.321 243.533L575.25 243.633C573.217 243.679 571.175 243.633 569.142 243.688H568.741V243.278L568.686 233.05V232.594H569.142L581.211 232.648C585.241 232.648 589.261 232.749 593.281 232.794H593.536V233.05C593.536 234.782 593.463 236.504 593.418 238.209L593.281 243.278ZM593.281 243.278L593.153 238.127C593.108 236.432 593.053 234.754 593.035 233.077L593.281 233.332C589.261 233.378 585.241 233.478 581.211 233.478L569.142 233.533L569.598 233.077V243.278L569.188 242.876C571.175 242.876 573.162 242.876 575.159 242.922L581.093 243.077L593.281 243.278Z" fill="#EBEBEB"/>
<path d="M579.816 256.139L567.856 256.395L561.776 256.495C559.752 256.495 557.711 256.495 555.678 256.55H555.277V256.139V245.939V245.483H555.732L567.802 245.547C571.822 245.547 575.851 245.647 579.871 245.693H580.126V245.939C580.126 247.671 580.053 249.394 580.008 251.098L579.816 256.139ZM579.816 256.139L579.689 250.989C579.643 249.293 579.589 247.616 579.57 245.939L579.816 246.194C575.796 246.24 571.767 246.34 567.747 246.34L555.678 246.394L556.134 245.939V256.139L555.723 255.738C557.711 255.738 559.698 255.738 561.694 255.784L567.683 255.893L579.816 256.139Z" fill="#EBEBEB"/>
<path d="M606.745 256.139L594.785 256.395L588.714 256.495C586.681 256.495 584.639 256.495 582.606 256.55H582.205V256.139L582.15 245.939V245.483H582.606L594.676 245.547C598.705 245.547 602.725 245.647 606.745 245.693H607V245.939C607 247.671 606.918 249.394 606.882 251.098L606.745 256.139ZM606.745 256.139L606.617 250.989C606.617 249.293 606.517 247.616 606.499 245.939L606.745 246.194C602.725 246.24 598.705 246.34 594.676 246.34L582.606 246.394L583.062 245.939V256.139L582.652 255.738C584.648 255.738 586.626 255.738 588.623 255.784L594.621 255.893L606.745 256.139Z" fill="#EBEBEB"/>
<path d="M249.085 121.9L237.125 122.155L231.054 122.255C229.021 122.255 226.979 122.255 224.946 122.255H224.545V121.845L224.49 111.644V111.188H224.946L237.015 111.243C241.045 111.243 245.065 111.343 249.085 111.389H249.34V111.635C249.34 113.367 249.258 115.081 249.212 116.786L249.085 121.9ZM249.085 121.9L248.957 116.74C248.957 115.044 248.857 113.367 248.839 111.699L249.085 111.945C245.065 111.945 241.045 112.091 237.015 112.091L224.946 112.155L225.402 111.699L225.356 121.9L224.946 121.489C226.933 121.489 228.921 121.489 230.917 121.544L236.915 121.644L249.085 121.9Z" fill="#EBEBEB"/>
<path d="M235.602 134.762L223.642 135.017L217.562 135.118C215.538 135.118 213.496 135.118 211.464 135.163H211.062V134.753L210.99 124.571V124.115H211.445L223.515 124.169C227.535 124.169 231.564 124.27 235.584 124.315H235.839V124.571C235.839 126.303 235.766 128.016 235.721 129.721L235.602 134.762ZM235.602 134.762L235.475 129.602C235.429 127.907 235.374 126.23 235.356 124.561L235.602 124.808C231.582 124.853 227.553 124.953 223.533 124.953L211.464 125.017L211.919 124.561L211.901 134.762L211.491 134.352C213.478 134.352 215.465 134.352 217.462 134.407L223.451 134.507L235.602 134.762Z" fill="#EBEBEB"/>
<path d="M262.549 134.762L250.589 135.017L244.518 135.118C242.485 135.118 240.452 135.118 238.41 135.163H238.009V134.753L237.954 124.571V124.115H238.41L250.479 124.169C254.508 124.169 258.529 124.27 262.549 124.315H262.804V124.571C262.804 126.303 262.722 128.016 262.685 129.721L262.549 134.762ZM262.549 134.762L262.421 129.602C262.421 127.907 262.321 126.23 262.303 124.561L262.549 124.808C258.529 124.853 254.508 124.953 250.479 124.953L238.41 125.017L238.866 124.561L238.82 134.762L238.41 134.352C240.406 134.352 242.384 134.352 244.381 134.407L250.379 134.507L262.549 134.762Z" fill="#EBEBEB"/>
<path d="M52.2646 189.394L40.3046 189.649L34.2244 189.749C32.2006 189.749 30.1587 189.749 28.1259 189.795H27.7612V189.384V179.184V178.728H28.217L40.2864 178.783C44.3065 178.783 48.3357 178.883 52.3558 178.929H52.611V179.175C52.611 180.907 52.5381 182.62 52.4925 184.325L52.2646 189.394ZM52.2646 189.394L52.137 184.234C52.137 182.538 52.0367 180.861 52.0185 179.193L52.2646 179.439C48.2445 179.485 44.2153 179.585 40.1952 179.585L28.1259 179.649L28.5817 179.193L28.5361 189.394L28.1259 188.983C30.1131 188.983 32.1004 188.983 34.0967 189.038L40.0858 189.138L52.2646 189.394Z" fill="#EBEBEB"/>
<path d="M452.432 121.891L440.472 122.146L434.401 122.246C432.368 122.292 430.326 122.246 428.293 122.292H427.892V121.882L427.837 111.681V111.225H428.293L440.363 111.28C444.392 111.28 448.412 111.389 452.432 111.435H452.687V111.681C452.687 113.413 452.614 115.136 452.569 116.831L452.432 121.891ZM452.432 121.891L452.304 116.74C452.259 115.036 452.204 113.358 452.186 111.69L452.432 111.936C448.412 111.982 444.392 112.082 440.363 112.091L428.293 112.146L428.749 111.69L428.703 121.891L428.293 121.48C430.28 121.48 432.268 121.48 434.264 121.535L440.262 121.635L452.432 121.891Z" fill="#EBEBEB"/>
<path d="M591.886 22.8195L579.926 23.0748L573.846 23.175C571.822 23.175 569.78 23.175 567.747 23.2297H567.346V22.8195V12.6189V12.1631H567.802L579.871 12.2178C583.891 12.2178 587.921 12.3272 591.941 12.3727H592.196V12.6189C592.196 14.3509 592.123 16.0738 592.077 17.7693L591.886 22.8195ZM591.886 22.8195L591.758 17.6691C591.713 15.9644 591.658 14.2871 591.64 12.6189L591.886 12.865C587.866 12.865 583.837 13.0109 579.817 13.02L567.747 13.0747L568.203 12.6189L568.158 22.8195L567.747 22.4093C569.735 22.4093 571.722 22.4093 573.718 22.464L579.707 22.5643L591.886 22.8195Z" fill="#EBEBEB"/>
<path d="M605.35 35.6818L593.39 35.937L587.319 36.0373C585.286 36.0829 583.244 36.0373 581.211 36.092H580.81V35.6818L580.755 25.4812V25.0254H581.211L593.281 25.0801C597.31 25.0801 601.33 25.1895 605.35 25.2351H605.605V25.4812C605.605 27.2132 605.523 28.9361 605.478 30.6316L605.35 35.6818ZM605.35 35.6818L605.222 30.5314C605.222 28.8267 605.122 27.1494 605.104 25.4812L605.35 25.7273C601.33 25.7729 597.31 25.8732 593.281 25.8823L581.211 25.937L581.667 25.4812V35.6818L581.257 35.2716C583.244 35.2716 585.231 35.2716 587.228 35.3263L593.226 35.4266L605.35 35.6818Z" fill="#EBEBEB"/>
<path d="M25.3363 22.8288L13.3672 23.084L7.29606 23.1843C5.27235 23.1843 3.2304 23.1843 1.19757 23.239H0.787354V22.8288V12.6282V12.1724H1.25226L13.3216 12.2362C17.3417 12.2362 21.3618 12.3364 25.391 12.382H25.6371V12.6282C25.6371 14.3602 25.5551 16.0831 25.5186 17.7877L25.3363 22.8288ZM25.3363 22.8288L25.1996 17.6783C25.1996 15.9828 25.0993 14.2964 25.0811 12.6282L25.3363 12.8743C21.3071 12.929 17.287 13.0201 13.2669 13.0293L1.19757 13.0839L1.65336 12.6282L1.59866 22.8288L1.19757 22.4733C3.18482 22.4733 5.16296 22.4733 7.15933 22.4733L13.1576 22.5735L25.3363 22.8288Z" fill="#EBEBEB"/>
<path d="M592.597 129.876L597.966 121.225L595.314 119.584C594.934 119.345 594.629 119.006 594.431 118.603C594.233 118.201 594.15 117.752 594.192 117.305C594.22 116.798 594.22 116.29 594.192 115.783C594.179 115.335 594.291 114.893 594.514 114.505C594.738 114.117 595.065 113.799 595.459 113.586L598.194 112.109L593.381 103.139L590.646 104.607C590.25 104.819 589.804 104.915 589.356 104.886C588.908 104.857 588.477 104.704 588.112 104.443C587.702 104.16 587.264 103.887 586.818 103.641C586.423 103.43 586.095 103.114 585.87 102.727C585.644 102.341 585.531 101.9 585.541 101.453L585.642 98.3352L575.468 98.0161L575.377 101.143C575.358 101.591 575.215 102.025 574.964 102.397C574.713 102.769 574.364 103.064 573.955 103.249L573.29 103.586C573.062 103.704 572.843 103.832 572.633 103.96C572.254 104.195 571.817 104.319 571.371 104.319C570.925 104.319 570.487 104.195 570.108 103.96L567.437 102.31L562.068 110.961L564.73 112.601C565.108 112.842 565.412 113.182 565.61 113.584C565.808 113.986 565.891 114.434 565.851 114.88C565.806 115.387 565.787 115.895 565.796 116.403C565.81 116.848 565.699 117.289 565.477 117.675C565.255 118.061 564.93 118.378 564.538 118.591L561.804 120.067L566.617 129.046L569.352 127.57C569.747 127.362 570.192 127.267 570.637 127.296C571.083 127.325 571.512 127.477 571.877 127.734C572.291 128.021 572.72 128.285 573.162 128.527C573.56 128.736 573.891 129.053 574.116 129.442C574.342 129.83 574.454 130.275 574.438 130.724L574.347 133.841L584.52 134.16L584.621 131.034C584.638 130.588 584.78 130.155 585.03 129.785C585.279 129.415 585.627 129.121 586.034 128.937L586.708 128.6L587.365 128.226C587.745 127.991 588.184 127.867 588.632 127.867C589.079 127.867 589.518 127.991 589.899 128.226L592.597 129.876ZM583.983 123.495C582.529 124.274 580.876 124.605 579.235 124.445C577.593 124.286 576.035 123.643 574.759 122.598C573.482 121.553 572.544 120.153 572.063 118.575C571.582 116.997 571.58 115.312 572.057 113.733C572.533 112.154 573.468 110.752 574.741 109.703C576.015 108.655 577.571 108.008 579.212 107.844C580.854 107.68 582.507 108.006 583.963 108.782C585.419 109.557 586.612 110.747 587.392 112.2C588.426 114.145 588.648 116.42 588.009 118.528C587.37 120.637 585.922 122.406 583.983 123.449V123.495Z" fill="#EBEBEB"/>
<path d="M105.437 310.443L101.873 304.262L99.977 305.356C99.7042 305.512 99.3932 305.589 99.0791 305.578C98.765 305.566 98.4604 305.468 98.1994 305.292C97.9051 305.1 97.6008 304.924 97.2879 304.764C97.0115 304.62 96.7802 304.402 96.6194 304.135C96.4586 303.868 96.3745 303.562 96.3763 303.25V301.072H89.2021V303.241C89.2039 303.553 89.1198 303.859 88.959 304.126C88.7981 304.393 88.5669 304.61 88.2905 304.755C87.9715 304.919 87.6615 305.092 87.3789 305.283C87.1132 305.468 86.8 305.572 86.4767 305.583C86.1535 305.594 85.8338 305.512 85.5558 305.347L83.6688 304.253L80.1045 310.434L82.0006 311.528C82.2709 311.686 82.4916 311.917 82.6382 312.194C82.7847 312.471 82.8512 312.783 82.8301 313.096C82.8301 313.269 82.8301 313.451 82.8301 313.624C82.8301 313.798 82.8301 313.971 82.8301 314.153C82.8514 314.463 82.7859 314.774 82.641 315.049C82.4961 315.324 82.2776 315.554 82.0097 315.712L80.1045 316.815L83.6688 322.995L85.5649 321.901C85.8429 321.736 86.1626 321.654 86.4858 321.666C86.8091 321.677 87.1223 321.781 87.3881 321.965C87.6824 322.157 87.9867 322.334 88.2996 322.494C88.5746 322.637 88.805 322.853 88.9657 323.119C89.1264 323.384 89.2113 323.688 89.2112 323.998V326.186H96.3489V323.998C96.3478 323.688 96.4323 323.383 96.5931 323.118C96.754 322.852 96.9849 322.637 97.2605 322.494C97.5705 322.33 97.8804 322.157 98.1721 321.965C98.433 321.79 98.7377 321.691 99.0518 321.68C99.3659 321.669 99.6769 321.745 99.9497 321.901L101.846 322.995L105.41 316.815L103.514 315.721C103.244 315.562 103.023 315.332 102.876 315.055C102.73 314.778 102.663 314.466 102.684 314.153C102.684 313.98 102.684 313.798 102.684 313.624C102.684 313.451 102.684 313.269 102.684 313.096C102.663 312.783 102.73 312.471 102.876 312.194C103.023 311.917 103.244 311.686 103.514 311.528L105.437 310.443ZM98.6188 313.633C98.6188 314.789 98.2761 315.919 97.634 316.88C96.9919 317.841 96.0793 318.59 95.0116 319.032C93.9439 319.474 92.769 319.59 91.6356 319.364C90.5021 319.139 89.4609 318.582 88.6437 317.765C87.8265 316.948 87.27 315.907 87.0445 314.773C86.8191 313.64 86.9348 312.465 87.3771 311.397C87.8193 310.33 88.5683 309.417 89.5292 308.775C90.4901 308.133 91.6198 307.79 92.7755 307.79C94.3252 307.79 95.8115 308.406 96.9073 309.502C98.0031 310.597 98.6188 312.084 98.6188 313.633Z" fill="#EBEBEB"/>
<path d="M44.0784 240.551C38.5826 240.549 33.2098 242.177 28.6393 245.229C24.0689 248.281 20.5062 252.62 18.4018 257.697C16.2974 262.774 15.7459 268.361 16.817 273.751C17.888 279.142 20.5336 284.093 24.419 287.98C28.3045 291.867 33.2553 294.514 38.6453 295.587C44.0353 296.66 49.6225 296.11 54.7001 294.007C59.7777 291.905 64.1176 288.343 67.1711 283.774C70.2246 279.204 71.8544 273.832 71.8544 268.336C71.8556 264.688 71.138 261.075 69.7427 257.704C68.3473 254.333 66.3016 251.27 63.7222 248.69C61.1428 246.11 58.0804 244.063 54.7099 242.666C51.3394 241.27 47.7268 240.551 44.0784 240.551ZM44.0784 281.299C41.5124 281.299 39.0041 280.538 36.8707 279.112C34.7373 277.687 33.0746 275.66 32.0931 273.289C31.1116 270.918 30.8552 268.31 31.3565 265.793C31.8577 263.277 33.0941 260.965 34.9091 259.152C36.7242 257.338 39.0364 256.103 41.5533 255.604C44.0702 255.104 46.6787 255.362 49.0488 256.345C51.419 257.329 53.4443 258.993 54.8685 261.127C56.2928 263.262 57.052 265.77 57.0502 268.336C57.0478 271.775 55.6801 275.072 53.2477 277.503C50.8152 279.934 47.5172 281.299 44.0784 281.299Z" fill="#EBEBEB"/>
<path d="M49.4203 241.709H38.7366L39.3291 234.143H48.8278L49.4203 241.709Z" fill="#EBEBEB"/>
<path d="M29.0829 245.301L21.5349 252.858L16.6033 247.097L23.3216 240.378L29.0829 245.301Z" fill="#EBEBEB"/>
<path d="M17.2509 262.229V272.913L9.69385 272.32V262.822L17.2509 262.229Z" fill="#EBEBEB"/>
<path d="M20.8515 282.557L28.4085 290.114L22.6473 295.037L15.929 288.318L20.8515 282.557Z" fill="#EBEBEB"/>
<path d="M37.7705 294.389H48.4543L47.8709 301.955H38.363L37.7705 294.389Z" fill="#EBEBEB"/>
<path d="M58.1079 290.789L65.6649 283.241L70.5875 289.002L63.8691 295.721L58.1079 290.789Z" fill="#EBEBEB"/>
<path d="M69.9404 273.87V263.186L77.4975 263.779V273.277L69.9404 273.87Z" fill="#EBEBEB"/>
<path d="M66.3395 253.541L58.7825 245.984L64.5528 241.053L71.2712 247.771L66.3395 253.541Z" fill="#EBEBEB"/>
<path d="M47.6975 73.5219C47.6975 72.3825 47.8525 69.3469 47.8525 68.0524C47.8525 62.51 45.8744 60.0031 40.7148 59.8482C38.2809 59.7023 36.8406 58.262 36.8406 56.2018C36.8406 54.1417 38.2809 52.7105 40.7148 52.5555C45.8744 52.3549 47.8161 49.9301 47.8161 44.3512C47.8161 43.0659 47.6611 40.0303 47.6611 38.8817C47.6611 31.5161 50.7696 26.8124 62.5381 24.2326C64.89 23.6947 66.7132 25.1442 66.7132 27.3411C66.736 28.0178 66.5424 28.6842 66.1604 29.2432C65.7784 29.8023 65.228 30.2249 64.5892 30.4496C57.2236 32.7285 56.157 35.0804 56.157 40.2491C56.157 41.7623 56.312 44.2692 56.312 45.8645C56.312 51.7807 53.4314 54.6704 48.4177 56.2656C53.5043 57.9338 56.312 60.7415 56.312 66.6668C56.312 68.253 56.157 70.7598 56.157 72.2822C56.157 77.4417 57.2236 79.7936 64.5892 82.0726C65.228 82.2973 65.7784 82.7199 66.1604 83.2789C66.5424 83.838 66.736 84.5044 66.7132 85.1811C66.7132 87.3871 64.89 88.8274 62.5381 88.2987C50.806 85.6825 47.6975 80.9696 47.6975 73.5219Z" fill="#EBEBEB"/>
<path d="M92.1827 38.8817C92.1827 40.0212 92.0277 43.0568 92.0277 44.3512C92.0277 49.9757 94.0788 52.4005 99.2383 52.6284C101.59 52.7834 103.031 54.2237 103.031 56.2748C103.031 58.3258 101.59 59.7661 99.2383 59.9211C94.0788 60.0761 92.0277 62.5829 92.0277 68.1254C92.0277 69.4107 92.1827 72.4463 92.1827 73.5949C92.1827 81.0334 89.0651 85.7463 77.2965 88.3261C74.9446 88.8548 73.1306 87.4145 73.1306 85.2084C73.1067 84.5214 73.3086 83.8455 73.7053 83.2841C74.1021 82.7227 74.6719 82.3068 75.3275 82.0999C82.6202 79.821 83.6776 77.4691 83.6776 72.3095C83.6776 70.7872 83.5226 68.2803 83.5226 66.6942C83.5226 60.7689 86.4123 57.8883 91.4169 56.293C86.3303 54.6248 83.5226 51.808 83.5226 45.8918C83.5226 44.2965 83.6776 41.7897 83.6776 40.2764C83.6776 35.1078 82.611 32.7559 75.3275 30.4769C74.6719 30.2701 74.1021 29.8542 73.7053 29.2928C73.3086 28.7314 73.1067 28.0555 73.1306 27.3684C73.1306 25.1715 74.9537 23.7221 77.2965 24.2599C89.0651 26.7759 92.1827 31.4797 92.1827 38.8817Z" fill="#EBEBEB"/>
<path d="M8.36279 373.661L82.2649 373.442L156.167 373.36L303.971 373.205L451.776 373.36L525.678 373.442L599.58 373.661L525.678 373.889L451.776 373.971L303.971 374.117L156.167 373.962L82.2649 373.889L8.36279 373.661Z" fill="#263238"/>
<path d="M554.557 355.411H53.3857V373.661H554.557V355.411Z" fill="#C7C7C7"/>
<path d="M502.77 89.4468H105.173V355.411H502.77V89.4468Z" fill="#DBDBDB"/>
<path d="M499.889 92.6919H108.063V352.165H499.889V92.6919Z" fill="#263238"/>
<path d="M482.532 109.365H125.41V335.484H482.532V109.365Z" fill="#455A64"/>
<path d="M201.983 118.07H125.41V335.492H201.983V118.07Z" fill="#37474F"/>
<path d="M133.605 118.07H125.41V335.492H133.605V118.07Z" fill="#455A64"/>
<path d="M201.992 192.429H133.605V195.665H201.992V192.429Z" fill="#0E2C66"/>
<path d="M167.817 128.864H141.226V130.313H167.817V128.864Z" fill="white"/>
<path d="M137.826 129.128H139.54L138.683 130.04L137.826 129.128Z" fill="white"/>
<path d="M146.887 134.233H143.359V135.682H146.887V134.233Z" fill="white"/>
<path d="M141.226 135.81V134.096L142.138 134.953L141.226 135.81Z" fill="white"/>
<path d="M146.887 139.603H143.359V141.052H146.887V139.603Z" fill="white"/>
<path d="M140.825 139.867H142.539L141.682 140.778L140.825 139.867Z" fill="white"/>
<path d="M146.887 144.971H143.359V146.421H146.887V144.971Z" fill="white"/>
<path d="M140.825 145.235H142.539L141.682 146.156L140.825 145.235Z" fill="white"/>
<path d="M149.029 150.341H145.501V151.79H149.029V150.341Z" fill="white"/>
<path d="M143.359 151.917V150.204L144.28 151.061L143.359 151.917Z" fill="white"/>
<path d="M151.172 155.719H147.644V157.168H151.172V155.719Z" fill="white"/>
<path d="M145.501 157.296V155.582L146.422 156.439L145.501 157.296Z" fill="white"/>
<path d="M151.172 209.412H147.644V210.861H151.172V209.412Z" fill="white"/>
<path d="M145.501 210.988V209.274L146.422 210.131L145.501 210.988Z" fill="white"/>
<path d="M153.314 161.079H149.786V162.529H153.314V161.079Z" fill="white"/>
<path d="M147.644 162.656V160.942L148.565 161.799L147.644 162.656Z" fill="white"/>
<path d="M153.314 204.042H149.786V205.491H153.314V204.042Z" fill="white"/>
<path d="M147.644 205.619V203.905L148.565 204.762L147.644 205.619Z" fill="white"/>
<path d="M155.456 166.448H151.928V167.898H155.456V166.448Z" fill="white"/>
<path d="M149.786 168.026V166.312L150.707 167.169L149.786 168.026Z" fill="white"/>
<path d="M155.456 198.664H151.928V200.113H155.456V198.664Z" fill="white"/>
<path d="M149.786 200.25V198.536L150.707 199.393L149.786 200.25Z" fill="white"/>
<path d="M157.598 171.827H154.07V173.276H157.598V171.827Z" fill="white"/>
<path d="M151.928 173.404V171.69L152.849 172.547L151.928 173.404Z" fill="white"/>
<path d="M157.999 177.187H154.471V178.636H157.999V177.187Z" fill="white"/>
<path d="M151.928 177.451H153.642L152.785 178.372L151.928 177.451Z" fill="white"/>
<path d="M157.999 182.556H154.471V184.005H157.999V182.556Z" fill="white"/>
<path d="M151.928 182.82H153.642L152.785 183.741L151.928 182.82Z" fill="white"/>
<path d="M157.999 187.925H154.471V189.375H157.999V187.925Z" fill="white"/>
<path d="M151.928 188.189H153.642L152.785 189.11L151.928 188.189Z" fill="white"/>
<path d="M157.999 193.294H154.471V194.744H157.999V193.294Z" fill="white"/>
<path d="M151.928 193.559H153.642L152.785 194.48L151.928 193.559Z" fill="white"/>
<path d="M146.887 214.78H143.359V216.23H146.887V214.78Z" fill="white"/>
<path d="M141.226 216.358V214.644L142.138 215.501L141.226 216.358Z" fill="white"/>
<path d="M146.887 220.15H143.359V221.599H146.887V220.15Z" fill="white"/>
<path d="M140.825 220.414H142.539L141.682 221.335L140.825 220.414Z" fill="white"/>
<path d="M146.887 225.519H143.359V226.968H146.887V225.519Z" fill="white"/>
<path d="M140.825 225.783H142.539L141.682 226.704L140.825 225.783Z" fill="white"/>
<path d="M149.029 230.888H145.501V232.338H149.029V230.888Z" fill="white"/>
<path d="M143.359 232.475V230.761L144.28 231.618L143.359 232.475Z" fill="white"/>
<path d="M151.172 236.267H147.644V237.716H151.172V236.267Z" fill="white"/>
<path d="M145.501 237.843V236.129L146.422 236.986L145.501 237.843Z" fill="white"/>
<path d="M151.172 241.636H147.644V243.086H151.172V241.636Z" fill="white"/>
<path d="M145.501 243.222V241.508L146.422 242.365L145.501 243.222Z" fill="white"/>
<path d="M151.573 247.005H148.045V248.454H151.573V247.005Z" fill="white"/>
<path d="M145.501 247.269H147.215L146.358 248.19L145.501 247.269Z" fill="white"/>
<path d="M151.573 252.374H148.045V253.823H151.573V252.374Z" fill="white"/>
<path d="M145.501 252.639H147.215L146.358 253.559L145.501 252.639Z" fill="white"/>
<path d="M151.573 257.744H148.045V259.193H151.573V257.744Z" fill="white"/>
<path d="M145.501 258.008H147.215L146.358 258.929L145.501 258.008Z" fill="white"/>
<path d="M151.573 263.112H148.045V264.562H151.573V263.112Z" fill="white"/>
<path d="M145.501 263.377H147.215L146.358 264.298L145.501 263.377Z" fill="white"/>
<path d="M482.532 109.365H125.41V118.062H482.532V109.365Z" fill="#0E2C66"/>
<path d="M133.605 113.722C133.605 114.049 133.508 114.368 133.327 114.639C133.146 114.91 132.888 115.122 132.587 115.247C132.285 115.371 131.953 115.404 131.633 115.341C131.313 115.277 131.019 115.12 130.788 114.889C130.558 114.658 130.401 114.364 130.337 114.044C130.273 113.724 130.306 113.392 130.431 113.091C130.556 112.789 130.767 112.532 131.038 112.35C131.31 112.169 131.629 112.072 131.955 112.072C132.393 112.072 132.812 112.246 133.122 112.556C133.431 112.865 133.605 113.285 133.605 113.722Z" fill="#C7C7C7"/>
<path d="M140.324 113.722C140.324 114.049 140.227 114.368 140.046 114.639C139.864 114.91 139.607 115.122 139.305 115.247C139.004 115.371 138.672 115.404 138.352 115.341C138.032 115.277 137.738 115.12 137.507 114.889C137.276 114.658 137.119 114.364 137.055 114.044C136.992 113.724 137.024 113.392 137.149 113.091C137.274 112.789 137.486 112.532 137.757 112.35C138.028 112.169 138.347 112.072 138.674 112.072C139.111 112.072 139.531 112.246 139.84 112.556C140.15 112.865 140.324 113.285 140.324 113.722Z" fill="white"/>
<path d="M147.051 113.722C147.051 114.049 146.954 114.368 146.773 114.639C146.592 114.91 146.334 115.122 146.033 115.247C145.731 115.371 145.399 115.404 145.079 115.341C144.759 115.277 144.465 115.12 144.234 114.889C144.004 114.658 143.847 114.364 143.783 114.044C143.719 113.724 143.752 113.392 143.877 113.091C144.002 112.789 144.213 112.532 144.485 112.35C144.756 112.169 145.075 112.072 145.401 112.072C145.839 112.072 146.258 112.246 146.568 112.556C146.877 112.865 147.051 113.285 147.051 113.722Z" fill="#455A64"/>
<path d="M226.423 156.731H219.978V158.308H226.423V156.731Z" fill="#EBEBEB"/>
<path d="M376.834 156.731H234.016V158.308H376.834V156.731Z" fill="#EBEBEB"/>
<path d="M393.033 156.731H380.8V158.308H393.033V156.731Z" fill="#0E2C66"/>
<path d="M441.684 194.087H400.38V195.664H441.684V194.087Z" fill="#EBEBEB"/>
<path d="M456.333 156.731H395.695V158.308H456.333V156.731Z" fill="#A6A6A6"/>
<path d="M226.423 164.197H219.978V165.774H226.423V164.197Z" fill="#EBEBEB"/>
<path d="M288.802 164.197H240.297V165.774H288.802V164.197Z" fill="#A6A6A6"/>
<path d="M397.482 194.087H379.131V195.664H397.482V194.087Z" fill="#A6A6A6"/>
<path d="M280.343 186.612H234.016V188.189H280.343V186.612Z" fill="#A6A6A6"/>
<path d="M272.795 171.671H240.297V173.248H272.795V171.671Z" fill="#0E2C66"/>
<path d="M450.554 179.138H388.985V180.715H450.554V179.138Z" fill="#A6A6A6"/>
<path d="M376.843 215.811H315.275V217.388H376.843V215.811Z" fill="#A6A6A6"/>
<path d="M397.217 171.671H276.405V173.248H397.217V171.671Z" fill="#A6A6A6"/>
<path d="M374.929 194.087H234.016V195.664H374.929V194.087Z" fill="#0E2C66"/>
<path d="M391.675 164.197H291.847V165.774H391.675V164.197Z" fill="#EBEBEB"/>
<path d="M423.279 171.671H402.386V173.248H423.279V171.671Z" fill="#EBEBEB"/>
<path d="M226.423 171.671H219.978V173.248H226.423V171.671Z" fill="#EBEBEB"/>
<path d="M226.423 179.138H219.978V180.715H226.423V179.138Z" fill="#A6A6A6"/>
<path d="M272.093 179.138H234.016V180.715H272.093V179.138Z" fill="#EBEBEB"/>
<path d="M278.374 201.553H240.297V203.13H278.374V201.553Z" fill="#EBEBEB"/>
<path d="M433.38 209.028H380.216V210.605H433.38V209.028Z" fill="#0E2C66"/>
<path d="M376.889 209.028H274.737V210.605H376.889V209.028Z" fill="#EBEBEB"/>
<path d="M268.921 209.028H240.297V210.605H268.921V209.028Z" fill="#A6A6A6"/>
<path d="M393.033 186.612H282.968V188.189H393.033V186.612Z" fill="#EBEBEB"/>
<path d="M461.365 186.612H395.695V188.189H461.365V186.612Z" fill="#0E2C66"/>
<path d="M385.986 179.138H275.967V180.715H385.986V179.138Z" fill="#0E2C66"/>
<path d="M226.423 186.612H219.978V188.189H226.423V186.612Z" fill="#EBEBEB"/>
<path d="M226.423 194.087H219.978V195.664H226.423V194.087Z" fill="#EBEBEB"/>
<path d="M226.423 201.553H219.978V203.13H226.423V201.553Z" fill="#A6A6A6"/>
<path d="M226.423 209.028H219.978V210.605H226.423V209.028Z" fill="#EBEBEB"/>
<path d="M226.423 215.811H219.978V217.388H226.423V215.811Z" fill="#EBEBEB"/>
<path d="M309.559 215.811H234.016V217.388H309.559V215.811Z" fill="#EBEBEB"/>
<path d="M226.423 223.286H219.978V224.863H226.423V223.286Z" fill="#EBEBEB"/>
<path d="M288.802 223.286H240.297V224.863H288.802V223.286Z" fill="#A6A6A6"/>
<path d="M280.343 245.692H234.016V247.269H280.343V245.692Z" fill="#A6A6A6"/>
<path d="M272.795 230.751H240.297V232.328H272.795V230.751Z" fill="#0E2C66"/>
<path d="M347.226 260.643H314.728V262.22H347.226V260.643Z" fill="#0E2C66"/>
<path d="M272.795 275.583H240.297V277.16H272.795V275.583Z" fill="#0E2C66"/>
<path d="M397.217 230.751H276.405V232.328H397.217V230.751Z" fill="#A6A6A6"/>
<path d="M374.929 253.167H234.016V254.745H374.929V253.167Z" fill="#0E2C66"/>
<path d="M391.675 223.286H291.847V224.863H391.675V223.286Z" fill="#EBEBEB"/>
<path d="M412.805 238.227H391.948V239.804H412.805V238.227Z" fill="#EBEBEB"/>
<path d="M226.423 230.751H219.978V232.328H226.423V230.751Z" fill="#EBEBEB"/>
<path d="M226.423 238.227H219.978V239.804H226.423V238.227Z" fill="#A6A6A6"/>
<path d="M272.093 238.227H234.016V239.804H272.093V238.227Z" fill="#EBEBEB"/>
<path d="M393.033 245.692H282.968V247.269H393.033V245.692Z" fill="#EBEBEB"/>
<path d="M385.986 238.227H275.967V239.804H385.986V238.227Z" fill="#0E2C66"/>
<path d="M226.423 245.692H219.978V247.269H226.423V245.692Z" fill="#EBEBEB"/>
<path d="M226.423 260.643H219.978V262.22H226.423V260.643Z" fill="#EBEBEB"/>
<path d="M309.559 260.643H234.016V262.22H309.559V260.643Z" fill="#EBEBEB"/>
<path d="M226.423 268.108H219.978V269.685H226.423V268.108Z" fill="#EBEBEB"/>
<path d="M288.802 268.108H240.297V269.685H288.802V268.108Z" fill="#A6A6A6"/>
<path d="M280.343 290.524H234.016V292.101H280.343V290.524Z" fill="#A6A6A6"/>
<path d="M397.217 275.583H276.405V277.16H397.217V275.583Z" fill="#A6A6A6"/>
<path d="M412.805 283.049H391.948V284.626H412.805V283.049Z" fill="#EBEBEB"/>
<path d="M226.423 275.583H219.978V277.16H226.423V275.583Z" fill="#EBEBEB"/>
<path d="M226.423 283.049H219.978V284.626H226.423V283.049Z" fill="#A6A6A6"/>
<path d="M272.093 283.049H234.016V284.626H272.093V283.049Z" fill="#EBEBEB"/>
<path d="M393.033 290.524H282.968V292.101H393.033V290.524Z" fill="#EBEBEB"/>
<path d="M385.986 283.049H275.967V284.626H385.986V283.049Z" fill="#0E2C66"/>
<path d="M226.423 290.524H219.978V292.101H226.423V290.524Z" fill="#EBEBEB"/>
<path d="M223.952 142.291C224.006 142.342 224.049 142.404 224.078 142.472C224.108 142.54 224.123 142.614 224.123 142.688C224.123 142.762 224.108 142.835 224.078 142.904C224.049 142.972 224.006 143.033 223.952 143.084C223.903 143.136 223.843 143.177 223.778 143.205C223.712 143.233 223.641 143.248 223.57 143.248C223.417 143.25 223.269 143.191 223.159 143.084L220.671 140.568C220.671 140.568 220.671 140.568 220.671 140.514C220.667 140.489 220.667 140.465 220.671 140.441C220.671 140.441 220.671 140.395 220.671 140.386C220.671 140.377 220.671 140.386 220.671 140.34V140.277C220.671 140.277 220.671 140.277 220.671 140.222C220.671 140.167 220.671 140.222 220.671 140.176V140.067C220.671 140.067 220.671 140.021 220.671 139.994C220.684 139.966 220.699 139.938 220.716 139.912C220.716 139.912 220.716 139.912 220.762 139.857L223.251 137.332C223.357 137.23 223.499 137.173 223.647 137.173C223.795 137.173 223.937 137.23 224.044 137.332C224.097 137.383 224.14 137.445 224.17 137.513C224.199 137.581 224.214 137.655 224.214 137.729C224.214 137.803 224.199 137.876 224.17 137.945C224.14 138.013 224.097 138.074 224.044 138.125L221.947 140.24L223.952 142.291Z" fill="#0E2C66"/>
<path d="M226.204 142.574L228.374 137.424C228.398 137.364 228.435 137.309 228.481 137.263C228.527 137.217 228.582 137.181 228.642 137.157C228.702 137.132 228.767 137.12 228.832 137.12C228.897 137.121 228.961 137.134 229.021 137.159C229.079 137.184 229.131 137.22 229.175 137.265C229.218 137.31 229.253 137.364 229.275 137.422C229.298 137.481 229.309 137.543 229.308 137.606C229.306 137.669 229.293 137.731 229.267 137.788L227.097 142.957C227.06 143.044 226.997 143.118 226.918 143.17C226.838 143.222 226.746 143.249 226.651 143.249C226.591 143.262 226.528 143.262 226.468 143.249C226.404 143.225 226.345 143.188 226.296 143.14C226.247 143.093 226.209 143.035 226.184 142.971C226.159 142.907 226.148 142.839 226.151 142.77C226.155 142.702 226.173 142.635 226.204 142.574Z" fill="#0E2C66"/>
<path d="M233.542 140.496C233.542 140.496 233.542 140.541 233.488 140.559L230.999 143.075C230.946 143.128 230.884 143.169 230.815 143.197C230.746 143.226 230.672 143.24 230.598 143.239C230.488 143.237 230.382 143.202 230.292 143.14C230.202 143.077 230.131 142.99 230.09 142.889C230.048 142.787 230.037 142.676 230.058 142.568C230.078 142.461 230.13 142.361 230.206 142.282L232.303 140.167L230.206 138.053C230.152 138.001 230.109 137.94 230.08 137.872C230.051 137.804 230.036 137.73 230.036 137.656C230.036 137.582 230.051 137.508 230.08 137.44C230.109 137.372 230.152 137.311 230.206 137.259C230.313 137.157 230.455 137.101 230.602 137.101C230.75 137.101 230.892 137.157 230.999 137.259L233.488 139.785C233.488 139.785 233.488 139.785 233.542 139.839C233.597 139.894 233.542 139.839 233.542 139.839C233.559 139.866 233.574 139.893 233.588 139.921C233.585 139.949 233.585 139.976 233.588 140.003V140.058C233.588 140.058 233.588 140.058 233.588 140.104V140.222C233.587 140.249 233.587 140.277 233.588 140.304L233.542 140.496Z" fill="#0E2C66"/>
<path d="M116.413 158.035H69.9309V97.3232H104.972L116.413 108.764V158.035Z" fill="#0E2C66"/>
<path opacity="0.6" d="M116.413 158.035H69.9309V97.3232H104.972L116.413 108.764V158.035Z" fill="white"/>
<path d="M116.413 108.764H104.972V97.3232L116.413 108.764Z" fill="#0E2C66"/>
<path d="M80.6785 118.718C80.6803 119.403 80.8852 120.073 81.2674 120.641C81.6495 121.21 82.1917 121.652 82.8253 121.913C83.459 122.173 84.1557 122.24 84.8273 122.105C85.4989 121.969 86.1152 121.638 86.5984 121.152C87.0816 120.666 87.4099 120.048 87.5417 119.376C87.6736 118.704 87.6032 118.007 87.3394 117.375C87.0755 116.743 86.6301 116.203 86.0594 115.824C85.4888 115.445 84.8185 115.243 84.1334 115.245C83.6782 115.245 83.2274 115.335 82.8071 115.51C82.3867 115.685 82.005 115.941 81.684 116.263C81.3629 116.586 81.1088 116.969 80.9362 117.391C80.7637 117.812 80.6761 118.263 80.6785 118.718Z" fill="#0E2C66"/>
<path d="M86.0203 134.115H109.53L97.7797 119.767L86.0203 134.115Z" fill="#0E2C66"/>
<path d="M76.8044 134.115H96.2121L86.5128 124.771L76.8044 134.115Z" fill="#0E2C66"/>
<path opacity="0.1" d="M76.8044 134.115H96.2121L86.5128 124.771L76.8044 134.115Z" fill="black"/>
<path d="M109.521 111.152H76.8044V134.115H109.521V111.152Z" stroke="#0E2C66" stroke-width="2.22692" stroke-miterlimit="10"/>
<path d="M92.0278 136.594H58.6365V150.414H92.0278V136.594Z" fill="#455A64"/>
<path d="M68.4452 140.359V147.06H67.1507V144.197H64.1061V147.06H62.8025V140.359H64.1061V143.094H67.1507V140.359H68.4452Z" fill="white"/>
<path d="M74.8444 141.499H72.7022V147.06H71.4169V141.499H69.2747V140.359H74.8444V141.499Z" fill="white"/>
<path d="M81.1434 147.06V142.62L79.4114 145.929H78.7095L76.9866 142.62V147.06H75.6921V140.359H77.0869L79.065 144.17L81.0705 140.359H82.4561V147.06H81.1434Z" fill="white"/>
<path d="M83.8418 147.06V140.359H85.1909V145.92H88.6094V147.06H83.8418Z" fill="white"/>
<path d="M116.413 231.782H69.8762V171.007H104.963L116.413 182.456V231.782Z" fill="#0E2C66"/>
<path opacity="0.6" d="M116.413 231.782H69.8762V171.007H104.963L116.413 182.456V231.782Z" fill="white"/>
<path d="M116.413 182.456H104.963V171.007L116.413 182.456Z" fill="#0E2C66"/>
<path d="M80.6331 192.42C80.6349 193.107 80.8403 193.778 81.2235 194.348C81.6066 194.918 82.1502 195.362 82.7855 195.623C83.4208 195.884 84.1193 195.951 84.7927 195.815C85.4661 195.679 86.084 195.347 86.5685 194.86C87.0529 194.373 87.3821 193.753 87.5144 193.079C87.6466 192.405 87.576 191.707 87.3114 191.073C87.0469 190.439 86.6003 189.898 86.0282 189.518C85.456 189.138 84.784 188.936 84.0971 188.938C83.1767 188.942 82.2956 189.311 81.6465 189.964C80.9974 190.616 80.633 191.499 80.6331 192.42Z" fill="#0E2C66"/>
<path d="M85.9932 207.835H109.521L97.7526 193.468L85.9932 207.835Z" fill="#0E2C66"/>
<path d="M76.7678 207.834H96.1937L86.4762 198.481L76.7678 207.834Z" fill="#0E2C66"/>
<path opacity="0.1" d="M76.7678 207.834H96.1937L86.4762 198.481L76.7678 207.834Z" fill="black"/>
<path d="M109.521 184.854H76.7678V207.835H109.521V184.854Z" stroke="#0E2C66" stroke-width="2.22692" stroke-miterlimit="10"/>
<path d="M92.0002 210.314H58.5815V224.143H92.0002V210.314Z" fill="#455A64"/>
<path d="M66.476 217.388C66.4769 216.974 66.5509 216.563 66.6948 216.175C66.8403 215.779 67.06 215.414 67.342 215.1C67.6366 214.781 67.9893 214.521 68.3812 214.334C68.819 214.135 69.2952 214.035 69.7759 214.042C70.3385 214.027 70.8942 214.169 71.3803 214.452C71.8086 214.702 72.1565 215.069 72.3831 215.51L71.3803 216.203C71.2384 215.866 70.9838 215.589 70.6602 215.419C70.5171 215.34 70.3637 215.282 70.2044 215.245C70.051 215.217 69.8955 215.202 69.7395 215.2C69.4425 215.193 69.1484 215.259 68.8826 215.391C68.6503 215.524 68.446 215.7 68.2809 215.911C68.115 216.126 67.9913 216.37 67.9163 216.631C67.7464 217.168 67.7464 217.744 67.9163 218.281C68.0055 218.543 68.1414 218.787 68.3174 219.001C68.4907 219.209 68.7047 219.38 68.9464 219.503C69.1906 219.632 69.4633 219.698 69.7395 219.694C69.899 219.693 70.058 219.675 70.2135 219.639C70.3766 219.602 70.5332 219.54 70.6784 219.457C70.834 219.377 70.9732 219.269 71.0886 219.138C71.2194 219.003 71.3244 218.846 71.3986 218.673L72.4651 219.284C72.3573 219.535 72.1991 219.762 72.0002 219.949C71.8046 220.146 71.5803 220.312 71.3347 220.442C71.0794 220.571 70.8103 220.672 70.5325 220.742C70.2615 220.811 69.9827 220.845 69.703 220.843C69.2479 220.847 68.7981 220.744 68.3903 220.542C68.0041 220.346 67.6578 220.08 67.3693 219.758C67.0797 219.431 66.8512 219.054 66.6948 218.646C66.5418 218.244 66.4675 217.817 66.476 217.388Z" fill="white"/>
<path d="M77.3513 215.838C77.2793 215.769 77.1998 215.708 77.1143 215.656C76.8131 215.477 76.4877 215.342 76.148 215.255C75.9517 215.203 75.7493 215.179 75.5463 215.182C75.2657 215.163 74.9859 215.23 74.7442 215.374C74.6578 215.44 74.5887 215.525 74.5427 215.624C74.4967 215.722 74.4751 215.83 74.4798 215.939C74.4765 216.059 74.5116 216.177 74.5801 216.276C74.6605 216.376 74.7595 216.46 74.8718 216.522C75.0238 216.597 75.1825 216.659 75.3458 216.704C75.5372 216.768 75.7651 216.823 76.0113 216.887C76.2574 216.951 76.6402 217.069 76.9228 217.169C77.1706 217.258 77.4017 217.387 77.6065 217.552C77.7883 217.697 77.9348 217.881 78.035 218.09C78.144 218.337 78.1969 218.604 78.1899 218.874C78.1958 219.191 78.1238 219.504 77.9803 219.786C77.8478 220.031 77.6607 220.243 77.4333 220.406C77.1921 220.568 76.9234 220.685 76.6402 220.752C76.3406 220.816 76.0351 220.85 75.7287 220.852C75.2224 220.852 74.7188 220.778 74.2337 220.633C73.7609 220.491 73.3145 220.272 72.9119 219.986L73.4862 218.865C73.5841 218.945 73.6877 219.018 73.7961 219.084C74.1693 219.307 74.571 219.479 74.9903 219.594C75.2376 219.656 75.4918 219.687 75.7469 219.685C76.467 219.685 76.8226 219.457 76.8226 218.993C76.8284 218.861 76.7863 218.731 76.7041 218.628C76.6067 218.514 76.4853 218.424 76.3485 218.364C76.1728 218.278 75.9898 218.207 75.8016 218.154L75.0814 217.944C74.7982 217.871 74.5209 217.776 74.2519 217.662C74.0357 217.57 73.8356 217.443 73.6594 217.288C73.5055 217.153 73.384 216.984 73.3038 216.796C73.2232 216.583 73.183 216.357 73.1853 216.13C73.1784 215.816 73.2439 215.504 73.3768 215.219C73.4998 214.962 73.6771 214.735 73.8964 214.553C74.1314 214.373 74.397 214.237 74.6803 214.152C74.976 214.063 75.2831 214.017 75.5919 214.015C76.0367 214.011 76.4785 214.088 76.8955 214.243C77.2507 214.395 77.5872 214.588 77.8982 214.817L77.3513 215.838Z" fill="white"/>
<path d="M83.149 215.838C83.0714 215.772 82.9892 215.711 82.9029 215.656C82.6041 215.472 82.2779 215.336 81.9366 215.255C81.7434 215.203 81.544 215.178 81.344 215.182C81.0632 215.16 80.7827 215.227 80.5418 215.373C80.4543 215.438 80.3844 215.524 80.3382 215.622C80.2921 215.721 80.2712 215.83 80.2775 215.938C80.2715 216.058 80.3034 216.176 80.3686 216.276C80.4491 216.376 80.5481 216.459 80.6603 216.522C80.8124 216.597 80.9711 216.658 81.1344 216.704C81.3258 216.768 81.5537 216.823 81.7998 216.886C82.046 216.95 82.4288 217.069 82.7114 217.169C82.9601 217.255 83.1915 217.385 83.3951 217.552C83.5768 217.696 83.7233 217.88 83.8235 218.09C83.9325 218.336 83.9855 218.604 83.9785 218.874C83.9843 219.19 83.9123 219.503 83.7689 219.785C83.6431 220.036 83.4547 220.249 83.2219 220.405C82.9806 220.568 82.7119 220.685 82.4288 220.752C82.1293 220.817 81.8238 220.85 81.5172 220.852C81.011 220.851 80.5074 220.778 80.0222 220.633C79.5504 220.488 79.1043 220.27 78.7004 219.986L79.2839 218.865C79.3764 218.948 79.4772 219.021 79.5847 219.083C79.756 219.184 79.9325 219.275 80.1134 219.357C80.3279 219.455 80.5506 219.534 80.7789 219.594C81.0262 219.656 81.2804 219.687 81.5355 219.685C82.2556 219.685 82.6111 219.457 82.6111 218.992C82.6169 218.86 82.5748 218.731 82.4926 218.628C82.3968 218.516 82.2788 218.426 82.1462 218.363C81.9667 218.279 81.7807 218.209 81.5902 218.154L80.8791 217.944C80.5926 217.872 80.3121 217.777 80.0405 217.661C79.8242 217.569 79.6242 217.443 79.4479 217.288C79.294 217.152 79.1725 216.984 79.0924 216.795C79.0118 216.583 78.9716 216.357 78.9739 216.13C78.967 215.815 79.0325 215.503 79.1653 215.218C79.2887 214.959 79.4695 214.732 79.6941 214.553C79.9258 214.373 80.1884 214.237 80.4689 214.152C80.7648 214.063 81.0717 214.017 81.3805 214.015C81.8254 214.009 82.2676 214.086 82.6841 214.243C83.0494 214.375 83.3981 214.55 83.7233 214.762L83.149 215.838Z" fill="white"/>
<path d="M65.4917 200.77H64.5801" stroke="#263238" stroke-width="0.835093" stroke-miterlimit="10"/>
<path d="M62.9118 200.77H57.0776" stroke="#263238" stroke-width="0.835093" stroke-miterlimit="10" stroke-dasharray="2.04 2.04"/>
<path d="M56.248 200.77H55.3364V199.858" stroke="#263238" stroke-width="0.835093" stroke-miterlimit="10"/>
<path d="M55.3364 198.053V119.52" stroke="#263238" stroke-width="0.835093" stroke-miterlimit="10" stroke-dasharray="2.21 2.21"/>
<path d="M55.3364 118.618V117.707H56.248" stroke="#263238" stroke-width="0.835093" stroke-miterlimit="10"/>
<path d="M57.7158 117.707H62.8845" stroke="#263238" stroke-width="0.835093" stroke-miterlimit="10" stroke-dasharray="1.8 1.8"/>
<path d="M63.6138 117.707H64.5254" stroke="#263238" stroke-width="0.835093" stroke-miterlimit="10"/>
<path d="M65.4459 199.74C65.6496 199.74 65.8488 199.8 66.0182 199.913C66.1875 200.027 66.3196 200.187 66.3975 200.376C66.4755 200.564 66.4959 200.771 66.4562 200.971C66.4164 201.171 66.3183 201.354 66.1742 201.498C66.0302 201.642 65.8466 201.74 65.6468 201.78C65.447 201.82 65.2399 201.799 65.0517 201.722C64.8634 201.644 64.7026 201.512 64.5894 201.342C64.4762 201.173 64.4158 200.974 64.4158 200.77C64.4182 200.497 64.5274 200.237 64.7201 200.044C64.9128 199.851 65.1734 199.742 65.4459 199.74Z" fill="#263238"/>
<path d="M64.4796 118.736C65.0485 118.736 65.5096 118.275 65.5096 117.706C65.5096 117.137 65.0485 116.676 64.4796 116.676C63.9106 116.676 63.4495 117.137 63.4495 117.706C63.4495 118.275 63.9106 118.736 64.4796 118.736Z" fill="#263238"/>
<path d="M55.3365 159.183H44.1787V64.0776H163.432" stroke="#263238" stroke-width="0.835093" stroke-miterlimit="10" stroke-dasharray="2.23 2.23"/>
<path d="M163.031 65.4361L165.392 64.0778L163.031 62.7104V65.4361Z" fill="#263238"/>
<path d="M589.069 37.7598H243.825V256.358H589.069V37.7598Z" fill="white"/>
<path d="M589.178 256.467H243.688V37.687H589.178V256.467ZM243.934 256.239H588.951V37.8693H243.934V256.239Z" fill="#263238"/>
<path d="M589.069 37.7598H243.825V46.1737H589.069V37.7598Z" fill="#0E2C66"/>
<path d="M251.737 41.9623C251.739 42.2801 251.646 42.5912 251.47 42.8556C251.293 43.1201 251.042 43.3258 250.748 43.4465C250.454 43.5672 250.131 43.5973 249.819 43.533C249.508 43.4687 249.223 43.3129 249.001 43.0856C248.779 42.8583 248.63 42.5698 248.573 42.2571C248.516 41.9445 248.553 41.6219 248.681 41.3308C248.808 41.0397 249.02 40.7933 249.288 40.6232C249.557 40.4531 249.87 40.3671 250.188 40.3761C250.602 40.3857 250.996 40.557 251.286 40.8534C251.575 41.1499 251.738 41.5479 251.737 41.9623Z" fill="#C7C7C7"/>
<path d="M258.237 41.9622C258.239 42.2784 258.146 42.5881 257.972 42.8519C257.797 43.1156 257.548 43.3215 257.256 43.4433C256.964 43.5652 256.643 43.5976 256.333 43.5363C256.022 43.475 255.737 43.3229 255.514 43.0993C255.29 42.8756 255.138 42.5905 255.077 42.2802C255.015 41.9699 255.048 41.6484 255.17 41.3566C255.291 41.0647 255.497 40.8156 255.761 40.6411C256.025 40.4665 256.334 40.3742 256.651 40.376C257.071 40.376 257.475 40.5431 257.772 40.8406C258.07 41.138 258.237 41.5415 258.237 41.9622Z" fill="white"/>
<path d="M264.773 41.9622C264.775 42.2784 264.683 42.5881 264.508 42.8519C264.333 43.1156 264.084 43.3215 263.792 43.4433C263.501 43.5652 263.179 43.5976 262.869 43.5363C262.559 43.475 262.273 43.3229 262.05 43.0993C261.826 42.8756 261.674 42.5905 261.613 42.2802C261.551 41.9699 261.584 41.6484 261.706 41.3566C261.828 41.0647 262.033 40.8156 262.297 40.6411C262.561 40.4665 262.871 40.3742 263.187 40.376C263.608 40.376 264.011 40.5431 264.308 40.8406C264.606 41.138 264.773 41.5415 264.773 41.9622Z" fill="#455A64"/>
<path d="M279.167 46.1646H253.643V159.557H279.167V46.1646Z" fill="#EBEBEB"/>
<path d="M567.656 60.1484H265.238V87.6145H567.656V60.1484Z" fill="#0E2C66"/>
<path d="M286.131 70.7773H279.167V71.9077H286.131V70.7773Z" fill="white"/>
<path d="M286.131 75.855H279.167V76.9853H286.131V75.855Z" fill="white"/>
<path d="M286.131 73.3481H279.167V74.4785H286.131V73.3481Z" fill="white"/>
<path d="M368.748 69.7563H301.71V78.0153H368.748V69.7563Z" fill="white"/>
<path d="M368.83 78.0796H301.628V69.6475H368.83V78.0796Z" fill="white"/>
<path d="M368.83 69.665H360.398V78.0972H368.83V69.665Z" fill="#455A64"/>
<path d="M367.235 76.2014L366.469 76.7757L365.056 74.9525L364.546 74.2688C364.65 74.2234 364.748 74.1652 364.837 74.0956C365.01 73.9661 365.145 73.7931 365.229 73.5942L365.776 74.3144L367.235 76.2014Z" fill="white"/>
<path d="M365.731 71.8079C365.489 71.4946 365.162 71.257 364.79 71.1229C364.418 70.9888 364.015 70.9638 363.628 71.051C363.242 71.1382 362.889 71.3338 362.61 71.6149C362.331 71.8959 362.139 72.2508 362.055 72.6376C361.971 73.0245 361.999 73.4273 362.136 73.7986C362.274 74.17 362.514 74.4944 362.829 74.7338C363.144 74.9732 363.522 75.1175 363.916 75.1499C364.311 75.1822 364.706 75.1012 365.056 74.9164C365.159 74.8612 365.257 74.7972 365.348 74.725C365.513 74.5994 365.658 74.4487 365.776 74.2783C366.036 73.9164 366.171 73.4806 366.163 73.0356C366.155 72.5905 366.003 72.16 365.731 71.8079ZM364.819 74.0595C364.73 74.1292 364.632 74.1873 364.528 74.2327C364.247 74.344 363.937 74.3503 363.652 74.2503C363.368 74.1503 363.129 73.9509 362.98 73.6888C362.832 73.4267 362.783 73.1196 362.842 72.8241C362.902 72.5287 363.067 72.2649 363.306 72.0814C363.522 71.9165 363.786 71.8267 364.058 71.8255C364.33 71.8243 364.594 71.9118 364.812 72.0747C365.03 72.2376 365.188 72.467 365.263 72.7282C365.339 72.9893 365.327 73.2679 365.23 73.5217C365.151 73.7338 365.015 73.92 364.838 74.0595H364.819Z" fill="white"/>
<path d="M303.889 71.3789H303.442V76.3926H303.889V71.3789Z" fill="#C7C7C7"/>
<path d="M553.682 72.6284H524.711V75.1444H553.682V72.6284Z" fill="white"/>
<path d="M509.223 72.6284H480.253V75.1444H509.223V72.6284Z" fill="white"/>
<path opacity="0.1" d="M464.766 72.6284H435.795V75.1444H464.766V72.6284Z" fill="black"/>
<path d="M420.307 72.6284H391.337V75.1444H420.307V72.6284Z" fill="white"/>
<path d="M589.069 173.194H243.825V200.66H589.069V173.194Z" fill="#0E2C66"/>
<path d="M332.057 213.632H265.238V216.722H332.057V213.632Z" fill="#455A64"/>
<path d="M265.238 224.224L275.958 224.06L286.678 223.96L308.119 223.878L329.559 223.96L340.279 224.051L351 224.224L340.279 224.388L329.559 224.489L308.119 224.562L286.678 224.489L275.958 224.388L265.238 224.224Z" fill="#A6A6A6"/>
<path d="M265.238 228.436L275.958 228.272L286.678 228.181L308.119 228.099L329.559 228.172L340.279 228.272L351 228.436L340.279 228.609L329.559 228.7L308.119 228.782L286.678 228.7L275.958 228.609L265.238 228.436Z" fill="#A6A6A6"/>
<path d="M265.238 232.656L275.958 232.492L286.678 232.392L308.119 232.31L329.559 232.392L340.279 232.492L351 232.656L340.279 232.821L329.559 232.921L308.119 232.994L286.678 232.921L275.958 232.821L265.238 232.656Z" fill="#A6A6A6"/>
<path d="M265.238 236.869L275.958 236.704L286.678 236.613L308.119 236.531L329.559 236.613L340.279 236.704L351 236.869L340.279 237.042L329.559 237.133L308.119 237.215L286.678 237.133L275.958 237.042L265.238 236.869Z" fill="#A6A6A6"/>
<path d="M265.238 241.089C268.811 240.952 272.385 240.88 275.958 240.825L286.678 240.752L297.398 240.825C300.972 240.88 304.545 240.943 308.119 241.089C304.545 241.235 300.972 241.299 297.398 241.354L286.651 241.436L275.931 241.354C272.385 241.299 268.811 241.253 265.238 241.089Z" fill="#A6A6A6"/>
<path d="M440.38 213.632H373.561V216.722H440.38V213.632Z" fill="#455A64"/>
<path d="M373.561 224.224L384.282 224.06L395.002 223.96L416.442 223.878L437.883 223.96L448.603 224.051L459.323 224.224L448.603 224.388L437.883 224.489L416.442 224.562L395.002 224.489L384.282 224.388L373.561 224.224Z" fill="#A6A6A6"/>
<path d="M373.561 228.436L384.282 228.272L395.002 228.181L416.442 228.099L437.883 228.172L448.603 228.272L459.323 228.436L448.603 228.609L437.883 228.7L416.442 228.782L395.002 228.7L384.282 228.609L373.561 228.436Z" fill="#A6A6A6"/>
<path d="M373.561 232.656L384.282 232.492L395.002 232.392L416.442 232.31L437.883 232.392L448.603 232.492L459.323 232.656L448.603 232.821L437.883 232.921L416.442 232.994L395.002 232.921L384.282 232.821L373.561 232.656Z" fill="#A6A6A6"/>
<path d="M373.561 236.869L384.282 236.704L395.002 236.613L416.442 236.531L437.883 236.613L448.603 236.704L459.323 236.869L448.603 237.042L437.883 237.133L416.442 237.215L395.002 237.133L384.282 237.042L373.561 236.869Z" fill="#A6A6A6"/>
<path d="M373.561 241.089C377.135 240.952 380.708 240.88 384.282 240.825L395.002 240.752L405.722 240.825C409.295 240.88 412.869 240.943 416.442 241.089C412.869 241.235 409.295 241.299 405.722 241.354L395.002 241.436L384.282 241.354C380.708 241.299 377.135 241.253 373.561 241.089Z" fill="#A6A6A6"/>
<path d="M548.704 213.632H481.885V216.722H548.704V213.632Z" fill="#455A64"/>
<path d="M481.885 224.224L492.605 224.06L503.325 223.96L524.766 223.878L546.216 223.96L556.936 224.051L567.656 224.224L556.936 224.388L546.216 224.489L524.766 224.562L503.325 224.489L492.605 224.388L481.885 224.224Z" fill="#A6A6A6"/>
<path d="M481.885 228.436L492.605 228.272L503.325 228.181L524.766 228.099L546.216 228.172L556.936 228.272L567.656 228.436L556.936 228.609L546.216 228.7L524.766 228.782L503.325 228.7L492.605 228.609L481.885 228.436Z" fill="#A6A6A6"/>
<path d="M481.885 232.656L492.605 232.492L503.325 232.392L524.766 232.31L546.216 232.392L556.936 232.492L567.656 232.656L556.936 232.821L546.216 232.921L524.766 232.994L503.325 232.921L492.605 232.821L481.885 232.656Z" fill="#A6A6A6"/>
<path d="M481.885 236.869L492.605 236.704L503.325 236.613L524.766 236.531L546.216 236.613L556.936 236.704L567.656 236.869L556.936 237.042L546.216 237.133L524.766 237.215L503.325 237.133L492.605 237.042L481.885 236.869Z" fill="#A6A6A6"/>
<path d="M481.885 241.089C485.458 240.952 489.032 240.88 492.605 240.825L503.325 240.752L514.046 240.825C517.619 240.88 521.193 240.943 524.766 241.089C521.193 241.235 517.619 241.299 514.046 241.354L503.325 241.436L492.605 241.354C489.023 241.299 485.458 241.253 481.885 241.089Z" fill="#A6A6A6"/>
<path d="M303.26 162.994H361.692V104.561H303.26V162.994Z" fill="#EBEBEB"/>
<path d="M306.697 159.557H358.256V107.997H306.697V159.557Z" fill="#455A64"/>
<path d="M315.001 120.295C314.797 121.319 314.927 122.382 315.373 123.327C315.819 124.272 316.557 125.048 317.478 125.541C318.399 126.034 319.455 126.217 320.488 126.064C321.521 125.911 322.478 125.43 323.217 124.691C323.956 123.952 324.437 122.995 324.59 121.962C324.743 120.928 324.56 119.873 324.067 118.952C323.574 118.031 322.798 117.293 321.853 116.847C320.908 116.401 319.845 116.271 318.821 116.475C317.878 116.664 317.012 117.127 316.333 117.807C315.653 118.486 315.19 119.352 315.001 120.295Z" fill="#37474F"/>
<path d="M320.99 146.175H358.256L339.623 125.281L320.99 146.175Z" fill="#37474F"/>
<path d="M306.697 146.175H337.463L322.075 132.565L306.697 146.175Z" fill="#263238"/>
<path d="M358.256 146.175H306.697V159.557H358.256V146.175Z" fill="#263238"/>
<path d="M471.201 162.994H529.634V104.561H471.201V162.994Z" fill="#EBEBEB"/>
<path d="M474.638 159.557H526.197V107.997H474.638V159.557Z" fill="#455A64"/>
<path d="M482.942 120.294C482.739 121.317 482.871 122.377 483.316 123.319C483.762 124.261 484.499 125.035 485.418 125.526C486.338 126.017 487.391 126.2 488.421 126.047C489.452 125.894 490.407 125.413 491.144 124.676C491.881 123.939 492.361 122.985 492.514 121.954C492.667 120.923 492.485 119.87 491.994 118.951C491.502 118.032 490.729 117.295 489.787 116.849C488.845 116.403 487.784 116.272 486.762 116.475C485.819 116.662 484.952 117.125 484.272 117.805C483.593 118.485 483.13 119.351 482.942 120.294Z" fill="#37474F"/>
<path d="M488.931 146.175H526.197L507.564 125.281L488.931 146.175Z" fill="#37474F"/>
<path d="M474.629 146.175H505.395L490.016 132.565L474.629 146.175Z" fill="#263238"/>
<path d="M526.188 146.175H474.629V159.557H526.188V146.175Z" fill="#263238"/>
<path d="M387.217 162.994H445.658V104.561H387.217V162.994Z" fill="#EBEBEB"/>
<path d="M390.663 159.557H442.222V107.997H390.663V159.557Z" fill="#0E2C66"/>
<path opacity="0.1" d="M398.967 120.295C398.762 121.319 398.893 122.382 399.339 123.327C399.785 124.272 400.523 125.048 401.444 125.541C402.365 126.034 403.42 126.217 404.454 126.064C405.487 125.911 406.444 125.43 407.183 124.691C407.921 123.952 408.403 122.995 408.556 121.962C408.709 120.928 408.526 119.873 408.033 118.952C407.54 118.031 406.764 117.293 405.819 116.847C404.874 116.401 403.811 116.271 402.787 116.475C401.844 116.664 400.978 117.127 400.299 117.807C399.619 118.486 399.156 119.352 398.967 120.295Z" fill="black"/>
<path opacity="0.1" d="M404.957 146.175H442.222L423.589 125.281L404.957 146.175Z" fill="black"/>
<path d="M390.663 146.175H421.429L406.05 132.565L390.663 146.175Z" fill="#0E2C66"/>
<g opacity="0.2">
<path opacity="0.2" d="M390.663 146.175H421.429L406.05 132.565L390.663 146.175Z" fill="black"/>
</g>
<path d="M442.222 146.175H390.663V159.557H442.222V146.175Z" fill="#0E2C66"/>
<path opacity="0.2" d="M442.222 146.175H390.663V159.557H442.222V146.175Z" fill="black"/>
<path d="M306.697 180.605L320.963 180.441L335.229 180.341L363.771 180.259L392.304 180.341L406.57 180.432L420.845 180.605L406.57 180.769L392.304 180.87L363.771 180.942L335.229 180.87L320.963 180.769L306.697 180.605Z" fill="white"/>
<path d="M306.697 184.816L320.963 184.652L335.229 184.561L363.771 184.479L392.304 184.561L406.57 184.652L420.845 184.816L406.57 184.989L392.304 185.081L363.771 185.163L335.229 185.081L320.963 184.989L306.697 184.816Z" fill="white"/>
<path d="M306.697 189.037L320.963 188.873L335.229 188.773L363.771 188.7L392.304 188.773L406.57 188.873L420.845 189.037L406.57 189.202L392.304 189.302L363.771 189.375L335.229 189.302L320.963 189.202L306.697 189.037Z" fill="white"/>
<path d="M306.706 193.258C311.455 193.112 316.214 193.048 320.972 192.994L335.238 192.912L349.505 192.994C354.263 193.048 359.022 193.112 363.78 193.258C359.022 193.395 354.263 193.459 349.505 193.513L335.238 193.595L320.972 193.513C316.205 193.459 311.446 193.395 306.706 193.258Z" fill="white"/>
<path d="M269.404 191.116V182.748L265.338 186.631L269.404 191.116Z" fill="white"/>
<path d="M563.699 182.748V191.116L567.765 187.233L563.699 182.748Z" fill="white"/>
<path d="M191.545 58.1887C191.545 61.6958 192.586 65.1241 194.534 68.0401C196.483 70.956 199.252 73.2285 202.493 74.5702C205.733 75.9119 209.299 76.2625 212.738 75.5777C216.178 74.8928 219.337 73.2032 221.816 70.7227C224.296 68.2422 225.983 65.0821 226.667 61.6421C227.35 58.2022 226.997 54.6369 225.654 51.3973C224.31 48.1576 222.037 45.3892 219.12 43.442C216.203 41.4949 212.774 40.4566 209.267 40.4584C204.567 40.4656 200.063 42.3363 196.741 45.66C193.419 48.9838 191.55 53.4894 191.545 58.1887ZM195.319 58.1887C195.318 55.4276 196.135 52.728 197.668 50.4315C199.201 48.135 201.38 46.3448 203.931 45.2873C206.481 44.2299 209.288 43.9527 211.996 44.491C214.704 45.0292 217.192 46.3586 219.144 48.311C221.097 50.2633 222.426 52.751 222.964 55.4591C223.503 58.1672 223.225 60.9741 222.168 63.5247C221.111 66.0752 219.32 68.2548 217.024 69.7877C214.727 71.3205 212.028 72.1377 209.267 72.1359C205.568 72.1359 202.02 70.6665 199.404 68.0509C196.789 65.4353 195.319 61.8877 195.319 58.1887ZM191.545 58.1887C191.545 61.6958 192.586 65.1241 194.534 68.0401C196.483 70.956 199.252 73.2285 202.493 74.5702C205.733 75.9119 209.299 76.2625 212.738 75.5777C216.178 74.8928 219.337 73.2032 221.816 70.7227C224.296 68.2422 225.983 65.0821 226.667 61.6421C227.35 58.2022 226.997 54.6369 225.654 51.3973C224.31 48.1576 222.037 45.3892 219.12 43.442C216.203 41.4949 212.774 40.4566 209.267 40.4584C204.567 40.4656 200.063 42.3363 196.741 45.66C193.419 48.9838 191.55 53.4894 191.545 58.1887ZM195.319 58.1887C195.318 55.4276 196.135 52.728 197.668 50.4315C199.201 48.135 201.38 46.3448 203.931 45.2873C206.481 44.2299 209.288 43.9527 211.996 44.491C214.704 45.0292 217.192 46.3586 219.144 48.311C221.097 50.2633 222.426 52.751 222.964 55.4591C223.503 58.1672 223.225 60.9741 222.168 63.5247C221.111 66.0752 219.32 68.2548 217.024 69.7877C214.727 71.3205 212.028 72.1377 209.267 72.1359C205.568 72.1359 202.02 70.6665 199.404 68.0509C196.789 65.4353 195.319 61.8877 195.319 58.1887ZM179.394 58.1887C179.396 64.0987 181.15 69.8755 184.435 74.7886C187.72 79.7016 192.388 83.5302 197.849 85.7902C203.31 88.0502 209.318 88.6401 215.114 87.4854C220.911 86.3306 226.234 83.483 230.412 79.3027C234.59 75.1224 237.434 69.7971 238.585 64.0003C239.736 58.2034 239.143 52.1954 236.879 46.7359C234.616 41.2764 230.785 36.6107 225.87 33.3288C220.955 30.0468 215.177 28.2961 209.267 28.2979C205.342 28.2979 201.456 29.0711 197.831 30.5735C194.205 32.0759 190.911 34.2779 188.137 37.0538C185.363 39.8296 183.163 43.1249 181.663 46.7513C180.163 50.3778 179.392 54.2642 179.394 58.1887ZM189.85 58.1887C189.85 54.3462 190.989 50.5901 193.124 47.3953C195.259 44.2006 198.294 41.7107 201.844 40.2407C205.394 38.7706 209.3 38.3865 213.069 39.1368C216.837 39.8871 220.299 41.7381 223.015 44.4558C225.732 47.1734 227.581 50.6356 228.329 54.4045C229.078 58.1733 228.692 62.0795 227.22 65.629C225.749 69.1784 223.257 72.2117 220.062 74.3451C216.866 76.4786 213.109 77.6164 209.267 77.6146C204.118 77.6049 199.184 75.5549 195.544 71.9137C191.905 68.2724 189.857 63.337 189.85 58.1887ZM191.545 58.1887C191.545 61.6958 192.586 65.1241 194.534 68.0401C196.483 70.956 199.252 73.2285 202.493 74.5702C205.733 75.9119 209.299 76.2625 212.738 75.5777C216.178 74.8928 219.337 73.2032 221.816 70.7227C224.296 68.2422 225.983 65.0821 226.667 61.6421C227.35 58.2022 226.997 54.6369 225.654 51.3973C224.31 48.1576 222.037 45.3892 219.12 43.442C216.203 41.4949 212.774 40.4566 209.267 40.4584C204.567 40.4656 200.063 42.3363 196.741 45.66C193.419 48.9838 191.55 53.4894 191.545 58.1887ZM195.319 58.1887C195.318 55.4276 196.135 52.728 197.668 50.4315C199.201 48.135 201.38 46.3448 203.931 45.2873C206.481 44.2299 209.288 43.9527 211.996 44.491C214.704 45.0292 217.192 46.3586 219.144 48.311C221.097 50.2633 222.426 52.751 222.964 55.4591C223.503 58.1672 223.225 60.9741 222.168 63.5247C221.111 66.0752 219.32 68.2548 217.024 69.7877C214.727 71.3205 212.028 72.1377 209.267 72.1359C205.568 72.1359 202.02 70.6665 199.404 68.0509C196.789 65.4353 195.319 61.8877 195.319 58.1887Z" fill="#0E2C66"/>
<path d="M205.766 28.8444H212.603L211.92 22.0166H206.441L205.766 28.8444Z" fill="#0E2C66"/>
<path d="M220.907 31.0237L226.833 34.4422L229.65 28.1887L224.909 25.4448L220.907 31.0237Z" fill="#0E2C66"/>
<path d="M232.931 40.4763L236.35 46.4016L241.92 42.3906L239.185 37.6504L232.931 40.4763Z" fill="#0E2C66"/>
<path d="M238.611 54.6699V61.5159L245.438 60.8322V55.3536L238.611 54.6699Z" fill="#0E2C66"/>
<path d="M236.441 69.811L233.013 75.7363L239.267 78.5622L242.011 73.822L236.441 69.811Z" fill="#0E2C66"/>
<path d="M226.979 81.8354L221.053 85.263L225.064 90.8328L229.805 88.0889L226.979 81.8354Z" fill="#0E2C66"/>
<path d="M212.785 87.5234H205.939L206.623 94.3512H212.102L212.785 87.5234Z" fill="#0E2C66"/>
<path d="M197.644 85.3447L191.718 81.9263L188.893 88.1797L193.642 90.9236L197.644 85.3447Z" fill="#0E2C66"/>
<path d="M185.62 75.8916L182.193 69.9663L176.623 73.9682L179.367 78.7175L185.62 75.8916Z" fill="#0E2C66"/>
<path d="M179.932 61.6894V54.8525L173.104 55.5362V61.0149L179.932 61.6894Z" fill="#0E2C66"/>
<path d="M182.111 46.5569L185.529 40.6316L179.276 37.8057L176.532 42.5459L182.111 46.5569Z" fill="#0E2C66"/>
<path d="M191.564 34.5239L197.489 31.1054L193.487 25.5356L188.738 28.2704L191.564 34.5239Z" fill="#0E2C66"/>
<path d="M134.699 31.0417C134.608 34.4808 135.54 37.8695 137.375 40.7794C139.21 43.6892 141.867 45.9895 145.01 47.3891C148.152 48.7888 151.64 49.2251 155.03 48.6427C158.421 48.0604 161.563 46.4856 164.058 44.1175C166.554 41.7495 168.291 38.6945 169.05 35.3391C169.81 31.9836 169.557 28.4784 168.324 25.2667C167.091 22.0549 164.933 19.281 162.123 17.2958C159.313 15.3105 155.978 14.2031 152.539 14.1136C150.256 14.0529 147.983 14.4427 145.851 15.2608C143.718 16.0788 141.768 17.309 140.111 18.8811C138.455 20.4532 137.124 22.3363 136.195 24.4229C135.267 26.5094 134.758 28.7585 134.699 31.0417ZM143.961 31.2878C144.003 29.6818 144.52 28.1243 145.448 26.8123C146.375 25.5004 147.67 24.4929 149.17 23.9173C150.67 23.3417 152.307 23.2239 153.874 23.5787C155.441 23.9335 156.867 24.745 157.973 25.9106C159.079 27.0762 159.814 28.5435 160.086 30.1269C160.357 31.7103 160.153 33.3388 159.499 34.8062C158.845 36.2737 157.771 37.5143 156.412 38.3711C155.053 39.2279 153.47 39.6624 151.864 39.6197C149.712 39.5624 147.67 38.6525 146.188 37.0901C144.705 35.5277 143.905 33.4406 143.961 31.2878Z" fill="#EBEBEB"/>
<path d="M149.184 14.7425L155.866 14.9248L155.62 10.1846L149.676 10.0205L149.184 14.7425Z" fill="#EBEBEB"/>
<path d="M161.846 17.3315L166.45 22.1902L169.631 18.6624L165.538 14.3506L161.846 17.3315Z" fill="#EBEBEB"/>
<path d="M168.975 28.1245L168.792 34.8064L173.532 34.5603L173.697 28.6168L168.975 28.1245Z" fill="#EBEBEB"/>
<path d="M166.386 40.7861L161.527 45.3896L165.055 48.5711L169.376 44.4781L166.386 40.7861Z" fill="#EBEBEB"/>
<path d="M155.593 47.9152L148.911 47.7329L149.157 52.4823L155.1 52.6372L155.593 47.9152Z" fill="#EBEBEB"/>
<path d="M142.931 45.326L138.327 40.4673L135.146 43.9951L139.239 48.316L142.931 45.326Z" fill="#EBEBEB"/>
<path d="M135.802 34.533L135.984 27.8511L131.244 28.0972L131.08 34.0407L135.802 34.533Z" fill="#EBEBEB"/>
<path d="M138.391 21.8709L143.25 17.2674L139.722 14.0859L135.401 18.1881L138.391 21.8709Z" fill="#EBEBEB"/>
<path d="M156.705 27.2405L150.998 25.5449L146.687 29.6379L148.09 35.4174L153.788 37.1129L158.118 33.0199L156.705 27.2405ZM152.338 33.2113C151.965 33.2021 151.602 33.082 151.296 32.8663C150.991 32.6506 150.757 32.3491 150.623 31.9999C150.489 31.6507 150.462 31.2696 150.545 30.9051C150.628 30.5406 150.818 30.209 151.09 29.9524C151.362 29.6958 151.704 29.5258 152.073 29.4639C152.442 29.4021 152.821 29.4512 153.161 29.6051C153.502 29.7589 153.79 30.0105 153.987 30.328C154.185 30.6455 154.283 31.0145 154.271 31.3882C154.254 31.8855 154.042 32.3561 153.68 32.6975C153.318 33.039 152.836 33.2236 152.338 33.2113Z" fill="#EBEBEB"/>
<path d="M209.185 17.2036V12.436H316.852V30.6221" stroke="#263238" stroke-width="0.835093" stroke-miterlimit="10" stroke-dasharray="2.23 2.23"/>
<path d="M315.485 30.23L316.852 32.591L318.21 30.23H315.485Z" fill="#263238"/>
<path d="M559.324 306.304C560.212 309.555 560.801 312.881 561.083 316.24C560.992 316.404 561.01 317.024 561.083 316.851C561.083 317.398 561.931 317.298 561.931 316.76C561.931 316.413 561.931 316.058 561.931 315.72C563.873 313.305 566.699 311.782 568.969 309.686C570.804 308.043 572.141 305.917 572.825 303.551C574.721 297.042 572.943 290.141 575.222 283.642C577.182 278.045 580.691 273.177 583.663 268.099C586.799 262.739 589.133 257.097 589.352 250.779C589.534 245.966 588.96 239.558 585.295 235.948C581.412 232.128 576.598 234.991 573.618 238.4C564.994 248.3 561.001 260.807 559.388 273.596C558.476 280.679 557.565 287.799 557.792 294.945C557.925 298.773 558.438 302.578 559.324 306.304Z" fill="#0E2C66"/>
<path d="M561.038 318.838C560.565 312.158 560.644 305.45 561.275 298.783C561.275 298.783 561.275 298.783 561.275 298.71C561.165 293.295 560.737 287.89 560.947 282.466C561.212 276.595 562.012 270.762 563.335 265.036C563.335 264.972 563.454 265.036 563.444 265.036C562.383 270.662 561.752 276.361 561.557 282.083C561.448 285.146 561.466 288.209 561.63 291.262C561.685 292.265 561.776 293.268 561.84 294.271C564.096 279.053 569.595 264.498 577.966 251.59C578.084 251.417 578.394 251.59 578.285 251.782C572.301 261.591 567.873 272.267 565.158 283.432C569.306 275.747 575.568 269.421 580.218 262.037C580.218 262.037 580.309 262.037 580.29 262.083C576.115 270.287 569.215 276.787 564.794 284.872C564.028 288.181 563.399 291.509 562.97 294.9C562.346 299.478 562.005 304.09 561.949 308.71C564.474 303.988 567.091 299.476 569.16 294.48C569.215 294.353 569.406 294.435 569.361 294.572C567.601 299.758 565.24 305.346 561.931 309.768C561.931 313.058 562.013 316.34 562.205 319.622C562.724 328.373 564.219 337.015 564.939 345.739C564.939 345.792 564.918 345.843 564.881 345.881C564.843 345.918 564.792 345.939 564.739 345.939C564.686 345.939 564.635 345.918 564.597 345.881C564.559 345.843 564.538 345.792 564.538 345.739C562.761 336.862 561.591 327.874 561.038 318.838Z" fill="#263238"/>
<path d="M570.345 251.281C570.345 251.217 570.464 251.281 570.436 251.281C568.841 255.702 567.938 260.187 566.79 264.718C566.783 264.761 566.758 264.8 566.723 264.826C566.687 264.851 566.642 264.862 566.598 264.854C566.555 264.847 566.516 264.823 566.49 264.787C566.465 264.751 566.454 264.706 566.462 264.663C566.918 260.141 568.568 255.556 570.345 251.281Z" fill="#263238"/>
<path d="M529.734 269.849C530.793 272.441 532.01 274.965 533.38 277.406C536.261 282.639 539.269 287.434 539.761 293.514C539.858 296.24 540.246 298.948 540.919 301.591C541.683 303.84 542.767 305.968 544.137 307.908C547.264 312.466 551.165 316.368 554.055 321.09C557.089 326.004 559.337 331.362 560.719 336.969C560.783 337.279 561.266 337.197 561.193 336.887C561.193 336.887 561.193 336.842 561.193 336.824C561.198 336.803 561.198 336.781 561.193 336.76C561.649 323.697 560.609 310.543 556.635 298.036C554.875 292.536 552.762 287.155 550.308 281.928C548.302 277.307 545.399 273.13 541.767 269.64C539.333 267.452 534.064 263.304 530.609 265.501C528.959 266.559 529.078 268.227 529.734 269.849Z" fill="#0E2C66"/>
<path d="M542.852 299.449C545.153 303.249 547.689 306.903 550.445 310.388C551.703 312.038 552.988 313.669 554.256 315.329C554.848 316.103 555.514 316.887 556.079 317.726C555.732 316.349 555.404 314.991 555.049 313.606C553.362 307.006 551.749 300.351 549.233 294.007C546.667 287.863 543.638 281.924 540.172 276.24C540.08 276.085 540.327 275.975 540.418 276.121C543.152 280.679 545.978 285.192 548.294 289.977C549.575 292.642 550.692 295.381 551.639 298.182C550.575 292.231 549.089 286.364 547.191 280.625C547.191 280.57 547.245 280.533 547.264 280.625C549.752 286.421 551.312 292.574 551.885 298.856C552.451 300.552 552.973 302.262 553.453 303.988C555.513 311.281 557.318 318.674 558.996 326.076C559.023 321.21 558.602 316.352 557.738 311.564C557.738 311.445 557.875 311.427 557.902 311.564C559.178 316.559 559.606 321.732 559.169 326.869C559.798 329.686 560.418 332.512 560.992 335.329C562.268 341.345 563.845 347.471 564.638 353.56C564.631 353.587 564.615 353.611 564.593 353.628C564.571 353.645 564.543 353.654 564.515 353.654C564.487 353.654 564.46 353.645 564.438 353.628C564.416 353.611 564.4 353.587 564.392 353.56C563.481 350.27 562.961 346.851 562.223 343.533C561.484 340.215 560.737 336.851 559.953 333.506C558.823 328.644 557.647 323.782 556.425 318.92C555.614 317.143 554.055 315.566 552.879 314.08C551.594 312.448 550.308 310.816 549.059 309.157C546.711 306.087 544.611 302.834 542.779 299.43C542.706 299.43 542.806 299.385 542.852 299.449Z" fill="#263238"/>
<path d="M542.296 293.87C545.171 297.536 547.661 301.489 549.725 305.666C549.725 305.72 549.67 305.775 549.634 305.72C547.136 301.81 544.675 297.863 542.186 293.943C542.141 293.879 542.25 293.806 542.296 293.87Z" fill="#263238"/>
<path d="M597.875 282.274C596.188 285.191 594.229 288.655 594.985 292.192C595.441 294.407 597.064 296.203 597.355 298.464C598.012 303.45 593.044 306.741 589.443 309.102C580.482 314.982 568.185 320.223 566.553 332.238C566.489 332.666 565.76 332.557 565.814 332.138C565.814 332.138 565.814 332.138 565.814 332.065C565.814 331.992 565.814 332.065 565.814 331.992C564.633 325.926 564.689 319.685 565.979 313.642C567.319 307.452 570.017 301.891 573.207 296.449C578.604 287.242 584.32 277.816 592.478 270.77C594.739 268.819 599.361 265.3 601.157 269.712C602.952 274.124 599.953 278.682 597.875 282.274Z" fill="#0E2C66"/>
<path d="M589.671 301.745C583.727 308.181 574.283 311.773 569.16 318.993C572.018 308.021 577.42 297.878 584.93 289.384C585.122 289.166 584.812 288.847 584.602 289.056C579.128 294.375 574.749 300.714 571.712 307.716C573.13 302.83 574.988 298.083 577.264 293.532C577.346 293.359 577.1 293.204 577 293.377C574.193 298.345 572.19 303.727 571.065 309.321C564.329 325.638 563.7 344.781 565.113 361.983C565.122 362.028 565.147 362.068 565.183 362.097C565.218 362.125 565.263 362.141 565.309 362.141C565.354 362.141 565.399 362.125 565.434 362.097C565.47 362.068 565.495 362.028 565.505 361.983C565.113 348.428 565.331 334.635 568.586 321.399C568.65 321.117 568.722 320.843 568.795 320.57C574.365 312.812 583.773 309.22 589.826 301.846C589.835 301.782 589.734 301.673 589.671 301.745Z" fill="#263238"/>
<path d="M591.047 296.222C587.929 299.084 584.857 302.01 581.731 304.873C581.731 304.873 581.731 304.955 581.731 304.927C585.271 302.546 588.456 299.677 591.193 296.404C591.201 296.382 591.203 296.358 591.199 296.335C591.196 296.312 591.186 296.29 591.171 296.272C591.157 296.254 591.137 296.239 591.116 296.231C591.094 296.222 591.07 296.219 591.047 296.222Z" fill="#263238"/>
<path d="M591.548 283.815C588.788 288.343 585.663 292.638 582.205 296.659C582.2 296.664 582.196 296.671 582.194 296.678C582.192 296.684 582.191 296.692 582.191 296.699C582.191 296.706 582.193 296.713 582.196 296.719C582.2 296.726 582.204 296.732 582.209 296.737C582.215 296.741 582.221 296.745 582.228 296.747C582.235 296.75 582.242 296.751 582.249 296.75C582.256 296.75 582.263 296.748 582.27 296.745C582.276 296.742 582.282 296.737 582.287 296.732C586.163 293.052 589.355 288.712 591.713 283.915C591.767 283.806 591.612 283.705 591.548 283.815Z" fill="#263238"/>
<path d="M577.492 374.117H550.163L553.846 337.344H573.29L577.492 374.117Z" fill="#455A64"/>
<path d="M573.973 343.324H553.244L553.846 337.344H573.29L573.973 343.324Z" fill="#263238"/>
<path d="M576.635 333.269H551.02V339.139H576.635V333.269Z" fill="#455A64"/>
</svg>
