<svg width="32" height="32" viewBox="0 0 32 32" fill="none" xmlns="http://www.w3.org/2000/svg">
<path d="M24.8844 11.4859C24.8984 11.6828 24.8984 11.8797 24.8984 12.0766C24.8984 18.0812 20.3282 25 11.975 25C9.40156 25 7.01095 24.2547 5 22.961C5.36564 23.0031 5.71717 23.0172 6.09687 23.0172C8.22028 23.0172 10.175 22.3 11.7359 21.0766C9.73906 21.0344 8.06561 19.7266 7.48904 17.9266C7.77032 17.9687 8.05155 17.9969 8.34689 17.9969C8.75469 17.9969 9.16253 17.9406 9.54219 17.8422C7.46095 17.4203 5.89996 15.5922 5.89996 13.3844V13.3281C6.50463 13.6656 7.20781 13.8766 7.95307 13.9047C6.72963 13.089 5.9281 11.6969 5.9281 10.1218C5.9281 9.27811 6.15306 8.50467 6.54683 7.82967C8.78278 10.5859 12.1437 12.3859 15.9124 12.5828C15.8422 12.2453 15.7999 11.8938 15.7999 11.5422C15.7999 9.03904 17.825 7 20.3421 7C21.6499 7 22.8312 7.54844 23.6609 8.43437C24.6874 8.23751 25.6718 7.8578 26.5437 7.3375C26.2062 8.39221 25.489 9.27815 24.5468 9.84061C25.4609 9.74222 26.3468 9.48904 27.1624 9.13752C26.5438 10.0375 25.7703 10.839 24.8844 11.4859Z" fill="#0E2C66"/>
<rect x="0.5" y="0.5" width="31" height="31" rx="7.5" stroke="#0E2C66"/>
</svg>
